<?xml version="1.0" encoding="utf-8"?>
<!-- Generator: Adobe Illustrator 23.0.1, SVG Export Plug-In . SVG Version: 6.00 Build 0)  -->
<svg version="1.1" id="Layer_1" xmlns="http://www.w3.org/2000/svg" xmlns:xlink="http://www.w3.org/1999/xlink" x="0px" y="0px"
	 viewBox="0 0 1091.9 228.8" style="enable-background:new 0 0 1091.9 228.8;" xml:space="preserve">
<style type="text/css">
	.st0{fill:#2B2B2B;}
</style>
<g>
	<g>
		<g>
			<path class="st0" d="M178.8,222.8H76.7c-26.6,0-48.3-21.7-48.3-48.3V94.7c0-3.8,3.1-6.9,6.9-6.9h184.8c3.8,0,6.9,3.1,6.9,6.9
				v79.9C227.1,201.1,205.4,222.8,178.8,222.8z M42.3,101.6v73c0,19,15.5,34.5,34.5,34.5h102.1c19,0,34.5-15.5,34.5-34.5v-73H42.3z"
				/>
		</g>
		<g>
			<path class="st0" d="M151.9,186.3h-48.3c-3.8,0-6.9-3.1-6.9-6.9v-24.1c0-17.1,13.9-31,31-31s31,13.9,31,31v24.1
				C158.8,183.2,155.7,186.3,151.9,186.3z M110.5,172.5H145v-17.2c0-9.5-7.7-17.2-17.2-17.2s-17.2,7.7-17.2,17.2V172.5z"/>
		</g>
		<g>
			<path class="st0" d="M220.2,74.7C220.2,74.7,220.2,74.7,220.2,74.7L183,74.7c-3.8,0-6.9-3.1-6.9-6.9c0-3.8,3.1-6.9,6.9-6.9
				c0,0,0,0,0,0l30.2,0.1V19.8h-23.2v11.6c0,1.8-0.7,3.6-2,4.9c-1.3,1.3-3,2-4.9,2l0,0l-37,0c-3.8,0-6.9-3.1-6.9-6.9V19.8h-23.2
				v11.6c0,3.8-3.1,6.9-6.9,6.9l-37,0c-1.8,0-3.6-0.7-4.9-2s-2-3-2-4.9V19.8H42.3v41.2h29.9c3.8,0,6.9,3.1,6.9,6.9
				c0,3.8-3.1,6.9-6.9,6.9H35.4c-3.8,0-6.9-3.1-6.9-6.9v-55c0-3.8,3.1-6.9,6.9-6.9h37c3.8,0,6.9,3.1,6.9,6.9v11.6l23.2,0V12.9
				c0-3.8,3.1-6.9,6.9-6.9h37c3.8,0,6.9,3.1,6.9,6.9v11.6l23.2,0V12.9c0-3.8,3.1-6.9,6.9-6.9h37c3.8,0,6.9,3.1,6.9,6.9v55
				c0,1.8-0.7,3.6-2,4.9C223.8,74,222,74.7,220.2,74.7z"/>
		</g>
	</g>
	<g>
		<path class="st0" d="M432.4,202.2l-40.2-56.5c-4.5,0.5-9.2,0.8-14.1,0.8h-47.2v55.7h-18.6V26.5h65.8c22.4,0,40,5.4,52.7,16.1
			c12.7,10.7,19.1,25.4,19.1,44.2c0,13.7-3.5,25.3-10.4,34.8c-6.9,9.5-16.9,16.3-29.7,20.5l42.9,60.3H432.4z M417.5,119.2
			c9.2-7.7,13.8-18.5,13.8-32.4c0-14.2-4.6-25.1-13.8-32.8c-9.2-7.6-22.5-11.4-39.9-11.4h-46.7v88.1h46.7
			C395,130.7,408.3,126.9,417.5,119.2z"/>
		<path class="st0" d="M523.4,192.1c-14.1-7.8-25.2-18.5-33.1-32c-8-13.6-11.9-28.8-11.9-45.7c0-16.9,4-32.1,11.9-45.7
			c7.9-13.6,19-24.2,33.1-32c14.1-7.8,29.9-11.7,47.3-11.7c17.4,0,33.1,3.9,47.1,11.5c14,7.7,25,18.4,33,32
			c8,13.6,12.1,28.9,12.1,45.8c0,16.9-4,32.2-12.1,45.8c-8,13.6-19,24.3-33,32c-14,7.7-29.7,11.5-47.1,11.5
			C553.3,203.8,537.5,199.9,523.4,192.1z M608.3,177.8c11.2-6.3,20-15,26.4-26.1c6.4-11.1,9.5-23.6,9.5-37.3
			c0-13.7-3.2-26.1-9.5-37.3C628.3,66,619.5,57.3,608.3,51c-11.2-6.3-23.8-9.4-37.7-9.4c-13.9,0-26.5,3.1-37.8,9.4
			c-11.3,6.3-20.2,15-26.6,26.1c-6.4,11.1-9.7,23.6-9.7,37.3c0,13.7,3.2,26.2,9.7,37.3c6.4,11.1,15.3,19.8,26.6,26.1
			c11.3,6.3,23.9,9.4,37.8,9.4C584.6,187.2,597.1,184,608.3,177.8z"/>
		<path class="st0" d="M734,192.1c-14.1-7.8-25.2-18.5-33.1-32c-8-13.6-11.9-28.8-11.9-45.7c0-16.9,4-32.1,11.9-45.7
			c7.9-13.6,19-24.2,33.1-32c14.1-7.8,29.9-11.7,47.3-11.7c17.4,0,33.1,3.9,47.1,11.5c14,7.7,25,18.4,33,32
			c8,13.6,12.1,28.9,12.1,45.8c0,16.9-4,32.2-12.1,45.8c-8,13.6-19,24.3-33,32c-14,7.7-29.7,11.5-47.1,11.5
			C763.9,203.8,748.1,199.9,734,192.1z M819,177.8c11.2-6.3,20-15,26.4-26.1c6.4-11.1,9.5-23.6,9.5-37.3c0-13.7-3.2-26.1-9.5-37.3
			C839,66,830.2,57.3,819,51c-11.2-6.3-23.8-9.4-37.7-9.4c-13.9,0-26.5,3.1-37.8,9.4c-11.3,6.3-20.2,15-26.6,26.1
			c-6.4,11.1-9.7,23.6-9.7,37.3c0,13.7,3.2,26.2,9.7,37.3c6.4,11.1,15.3,19.8,26.6,26.1c11.3,6.3,23.9,9.4,37.8,9.4
			C795.2,187.2,807.7,184,819,177.8z"/>
		<path class="st0" d="M969.6,119.7l-35.9,36.4v46.2h-18.6V26.5h18.6v106.2l103.2-106.2h21.3l-76.1,79.6l81.3,96.1h-22.1
			L969.6,119.7z"/>
	</g>
</g>
</svg>
