<?xml version="1.0" encoding="utf-8"?>
<!-- Generator: Adobe Illustrator 23.0.2, SVG Export Plug-In . SVG Version: 6.00 Build 0)  -->
<svg version="1.1" id="Layer_2" xmlns="http://www.w3.org/2000/svg" xmlns:xlink="http://www.w3.org/1999/xlink" x="0px" y="0px"
	 viewBox="0 0 460 345" style="enable-background:new 0 0 460 345;" xml:space="preserve">
<style type="text/css">
	.st0{fill:#9E896A;}
	.st1{fill:#755832;}
	.st2{fill:none;stroke:#1B0C59;stroke-width:2.7407;stroke-linecap:round;stroke-linejoin:round;stroke-miterlimit:10;}
	.st3{fill:#A9B2B5;stroke:#1B0C59;stroke-width:2.7407;stroke-linecap:round;stroke-linejoin:round;stroke-miterlimit:10;}
	.st4{fill:#9E896A;stroke:#1B0C59;stroke-width:2.7407;stroke-linecap:round;stroke-linejoin:round;stroke-miterlimit:10;}
	.st5{fill:#1B0C59;}
	.st6{opacity:0.25;fill:#1B0C59;}
	.st7{fill:#D8E9F0;}
	.st8{fill:none;stroke:#1B0C59;stroke-width:2.1242;stroke-miterlimit:10;}
	.st9{fill:none;stroke:#1B0C59;stroke-width:2.1242;stroke-linecap:round;stroke-miterlimit:10;}
	.st10{fill:#D8E9F0;stroke:#1B0C59;stroke-width:2.1242;stroke-miterlimit:10;}
	.st11{fill:#EB586F;stroke:#1B0C59;stroke-width:2.1242;stroke-miterlimit:10;}
	.st12{fill:#EB586F;}
	.st13{fill:none;stroke:#FFFFFF;stroke-width:0.9165;stroke-linecap:round;stroke-linejoin:round;stroke-miterlimit:10;}
	.st14{fill:none;stroke:#1B0C59;stroke-width:33.185;stroke-linecap:round;stroke-linejoin:round;stroke-miterlimit:10;}
	.st15{fill:#2AC6EA;}
	.st16{fill:none;stroke:#1B0C59;stroke-width:2.5331;stroke-linecap:round;stroke-linejoin:round;stroke-miterlimit:10;}
	.st17{fill:none;stroke:#1B0C59;stroke-width:2.7196;stroke-linecap:round;stroke-linejoin:round;stroke-miterlimit:10;}
	.st18{fill:none;stroke:#2AC6EA;stroke-width:28.4443;stroke-linecap:round;stroke-linejoin:round;stroke-miterlimit:10;}
	.st19{fill:none;stroke:#191059;stroke-width:2.2035;stroke-linecap:round;stroke-linejoin:round;stroke-miterlimit:10;}
	.st20{fill:none;stroke:#1B0C59;stroke-width:2.1829;stroke-linecap:round;stroke-linejoin:round;stroke-miterlimit:10;}
	.st21{fill:none;stroke:#1B0C59;stroke-width:8.0844;stroke-linecap:round;stroke-linejoin:round;stroke-miterlimit:10;}
	.st22{fill:none;stroke:#1B0C59;stroke-width:2.3704;stroke-linecap:round;stroke-linejoin:round;stroke-miterlimit:10;}
	.st23{fill:none;stroke:#1B0C59;stroke-width:2.0063;stroke-linecap:round;stroke-linejoin:round;stroke-miterlimit:10;}
	.st24{fill:#2AC6EA;stroke:#1B0C59;stroke-width:2.1785;stroke-linecap:round;stroke-linejoin:round;stroke-miterlimit:10;}
	.st25{fill:#24C7EA;}
	.st26{fill:none;stroke:#191059;stroke-width:2.0743;stroke-linecap:round;stroke-linejoin:round;stroke-miterlimit:10;}
	.st27{fill:none;stroke:#191059;stroke-width:2.1643;stroke-linecap:round;stroke-linejoin:round;stroke-miterlimit:10;}
	.st28{fill:none;stroke:#191059;stroke-width:2.0744;stroke-linecap:round;stroke-linejoin:round;stroke-miterlimit:10;}
	.st29{fill:none;stroke:#191059;stroke-width:2.1205;stroke-linecap:round;stroke-linejoin:round;stroke-miterlimit:10;}
	.st30{fill:none;stroke:#191059;stroke-width:1.6492;stroke-linecap:round;stroke-linejoin:round;stroke-miterlimit:10;}
	.st31{fill:#84725A;stroke:#191059;stroke-width:2.1205;stroke-miterlimit:10;}
	.st32{opacity:0.25;}
</style>
<g>
	<g>
		<path class="st0" d="M124.8,189.9c0,0,6.3,7.8,34.7,7.8s38.4-7.8,38.4-7.8s49.6,65.8-6.4,131.9c0,0-28.7,11-62.3,0.2
			C129.3,322,73,267.9,124.8,189.9z"/>
		<path class="st1" d="M124.7,190.7c0,0-52.6,65.1,4.2,131.2c0,0-29.1-39.6-2.4-128.2C126.9,192.1,124.3,192.2,124.7,190.7z"/>
		<path class="st1" d="M135.2,195.3l24.6,2.5l-0.7,128.1l-20.3-1.5C138.8,324.4,125.9,244.6,135.2,195.3z"/>
		<path class="st1" d="M183.4,195.3l12.3-1.9c0,0,25.3,51.3,2.2,120.9l-7.4,7.5l-11.7,3.2C178.8,325,191.3,299.5,183.4,195.3z"/>
		<g>
			<path class="st2" d="M196,187.6L196,187.6l-22-0.2l-47.6-0.2c-13.4,17.3-24.2,44.7-23.9,66.4c0.4,26.3,10.5,47.6,26.7,68.5
				c0,0,9.1,3.5,30,3.5s31.2-3.9,31.2-3.9C225,292.1,225.7,225.9,196,187.6z"/>
			<path class="st2" d="M137,187.6c0,0-4.8,25.2-4.8,64.8s7,72,7,72"/>
			<line class="st2" x1="159.2" y1="187.6" x2="159.5" y2="325.5"/>
			<path class="st2" d="M181.5,187.6c0,0,5.2,28.2,5.2,65.1s-7.3,71.1-7.3,71.1"/>
			<path class="st2" d="M195.5,193.2c0,0,28.7,71.7-1.9,125.8"/>
			<path class="st2" d="M126.7,193.2c0,0-27.4,74.5,3.2,128.6"/>
			<path class="st3" d="M213.6,225.9c0,0-20.2,9.7-54.3,9.7s-52.4-9.3-52.4-9.3l5.8-15.2c0,0,12.3,8.8,46.6,8.8s49.9-9,49.9-9
				l2.2,7.4L213.6,225.9z"/>
			<path class="st3" d="M210.9,291.1c0,0-19.1,7.7-51.6,7.7s-49.2-8.6-49.2-8.6l-3.8-11.7c0,0,20.4,7.2,53,7.2s55.4-7,55.4-7
				L210.9,291.1z"/>
			<ellipse class="st4" cx="161" cy="189.7" rx="36.6" ry="7.9"/>
			<path class="st1" d="M124.7,188.7c0,0,8.2-7.7,33.2-6.9s39.2,2.3,39.6,7.9c0.4,5.6-8.2,1.1-17.5,0c-9.3-1.1-7.5-3-16.8-2.2
				c-9.3,0.7-30.6,1.5-33.2,5.2C127.4,196.4,124.7,191,124.7,188.7z"/>
			<ellipse class="st2" cx="161" cy="189.7" rx="36.6" ry="7.9"/>
			<path class="st2" d="M193.8,192.7c0,0-9.3-5.2-33.6-5.2c-25,0-31.4,5.2-31.4,5.2"/>
		</g>
		<g>
			<circle class="st5" cx="111.2" cy="220.2" r="2.6"/>
			<circle class="st5" cx="110.2" cy="285.8" r="2.6"/>
			<circle class="st5" cx="125.1" cy="289" r="2.6"/>
			<circle class="st5" cx="146.4" cy="291.6" r="2.6"/>
			<circle class="st5" cx="173.3" cy="291.6" r="2.6"/>
			<circle class="st5" cx="196.4" cy="288.2" r="2.6"/>
			<path class="st5" d="M213.9,285.8c0,1.4-0.9,2.4-2.3,2.4c-1.4,0-2.6-1.2-2.6-2.6c0-1.4,1.2-2.6,2.6-2.6
				C213,283,213.9,284.3,213.9,285.8z"/>
			<circle class="st5" cx="125.7" cy="224.2" r="2.6"/>
			<circle class="st5" cx="147" cy="226.8" r="2.6"/>
			<circle class="st5" cx="173.9" cy="226.2" r="2.6"/>
			<circle class="st5" cx="194.9" cy="223.4" r="2.6"/>
			<circle class="st5" cx="209.9" cy="217.8" r="2.6"/>
		</g>
	</g>
	<path class="st6" d="M172.9,196.6c0,0,11.9,89.7-58.9,104.3c0,0,14.2,17,16.8,20.9c2.6,3.9,41.6,6.6,56.5,1.3
		c14.9-5.2,34.3-54,31.4-74.8c-2.9-20.8-22.2-59.6-22.2-59.6S203.4,197,172.9,196.6z"/>
</g>
<g>
	<g>
		<g>
			
				<rect x="199.1" y="47.6" transform="matrix(-0.8355 0.5495 -0.5495 -0.8355 407.9417 2.5865)" class="st7" width="8.9" height="29.5"/>
			
				<rect x="199.1" y="47.6" transform="matrix(-0.8355 0.5495 -0.5495 -0.8355 407.9417 2.5865)" class="st8" width="8.9" height="29.5"/>
			<line class="st9" x1="200.9" y1="50.2" x2="198.2" y2="64"/>
			<line class="st9" x1="197.8" y1="47.9" x2="194.7" y2="62.8"/>
			<line class="st9" x1="203.9" y1="54.7" x2="200.8" y2="68.9"/>
			<line class="st9" x1="211.9" y1="66.9" x2="210.2" y2="75.6"/>
			<line class="st9" x1="209.2" y1="62.8" x2="206.2" y2="77.3"/>
		</g>
		<g>
			<g>
				<g>
					<path class="st7" d="M297.5,204.1c-7.1-2.2-13.7-5.9-19.2-10.9c-3-2.7-5.7-5.8-7.9-9.2c-0.1-0.1-0.2-0.3-0.3-0.4l-63.4-96.4
						l19.5-12.8l63.3,96.3C295.9,180.5,298.8,192.4,297.5,204.1z"/>
					<path class="st5" d="M225.8,75.8l18,27.3l0,0l0.3,0.5l19.5,29.6l2.8,4.2l8.2,12.5l14,21.3c6.1,9.3,8.9,20.4,8,31.5
						c-6.5-2.2-12.5-5.7-17.6-10.3c-2.9-2.7-5.6-5.7-7.8-9l0,0l0,0c-0.1-0.1-0.1-0.2-0.2-0.3l-0.1-0.1l-2.4-3.7l-19.5-29.6
						l-40.9-62.1L225.8,75.8 M226.4,72.9l-21.3,14l0.1,0.2l41.9,63.7l19.5,29.6l2.4,3.7c0.1,0.2,0.2,0.4,0.4,0.5
						c2.3,3.5,5.1,6.6,8.1,9.4c5.9,5.4,13,9.3,20.9,11.5c1.7-12.4-1.2-25-8-35.4l-14-21.3l-8.2-12.5l-2.8-4.2l-19.5-29.6l0,0
						l-18.4-28l-0.9-1.4L226.4,72.9L226.4,72.9z"/>
				</g>
			</g>
			<path class="st5" d="M298.4,205.5l-21.4-32.5l-8.2-12.5l-2.8-4.2l-19.5-29.6l-29.7-45.2l10.6-7l0,0l18.4,28l0,0l19.5,29.6
				l2.8,4.2l8.2,12.5l14,21.3C297.2,180.5,300.1,193.1,298.4,205.5z"/>
		</g>
		<g>
			<g>
				<path class="st7" d="M200.7,90.7c-1.2,0-2.2-0.6-2.8-1.5c-1-1.6-0.6-3.7,1-4.7l26.3-17.3c0.6-0.4,1.2-0.6,1.9-0.6
					c1.2,0,2.2,0.6,2.8,1.5c1,1.6,0.6,3.7-1,4.7l-26.3,17.3C202,90.5,201.4,90.7,200.7,90.7C200.7,90.7,200.7,90.7,200.7,90.7z"/>
				<path class="st5" d="M227,67.6c0.8,0,1.5,0.4,2,1.1c0.7,1.1,0.4,2.5-0.7,3.2L202,89.2c-0.4,0.3-0.8,0.4-1.3,0.4
					c-0.8,0-1.5-0.4-2-1.1c-0.7-1.1-0.4-2.5,0.7-3.2L225.8,68C226.1,67.7,226.6,67.6,227,67.6 M227,65.5c-0.9,0-1.7,0.3-2.5,0.7
					l-26.3,17.3c-2.1,1.4-2.6,4.1-1.3,6.2c0.8,1.3,2.2,2,3.7,2c0.9,0,1.7-0.3,2.5-0.7l26.3-17.3c1-0.7,1.7-1.7,1.9-2.8
					c0.2-1.2,0-2.4-0.6-3.4C229.9,66.2,228.5,65.5,227,65.5L227,65.5z"/>
			</g>
		</g>
		<g>
			<circle class="st10" cx="190.5" cy="42.5" r="9"/>
			<line class="st11" x1="185.5" y1="34.9" x2="195.5" y2="50"/>
			<line class="st11" x1="198.1" y1="37.5" x2="182.9" y2="47.4"/>
			<g>
				<path class="st12" d="M190.5,47.3c-1.6,0-3.1-0.8-4-2.2c-1.5-2.2-0.8-5.2,1.4-6.6c0.8-0.5,1.7-0.8,2.6-0.8c1.6,0,3.1,0.8,4,2.2
					c1.5,2.2,0.8,5.2-1.4,6.6C192.4,47,191.4,47.3,190.5,47.3L190.5,47.3z"/>
				<path class="st5" d="M190.5,38.7c1.3,0,2.4,0.6,3.1,1.7c0.5,0.8,0.7,1.8,0.5,2.8s-0.8,1.8-1.6,2.4c-0.6,0.4-1.3,0.6-2,0.6
					c-1.3,0-2.4-0.6-3.1-1.7c-1.1-1.7-0.7-4,1.1-5.2C189.1,38.9,189.8,38.7,190.5,38.7 M190.5,36.6c-1.1,0-2.2,0.3-3.2,1
					c-2.7,1.8-3.5,5.4-1.7,8.1c1.1,1.7,3,2.6,4.9,2.6c1.1,0,2.2-0.3,3.2-1c2.7-1.8,3.5-5.4,1.7-8.1
					C194.3,37.5,192.4,36.6,190.5,36.6L190.5,36.6z"/>
			</g>
			<path class="st13" d="M191.8,44.7c1.2-0.8,1.5-2.3,0.7-3.5c-0.2-0.3-0.5-0.6-0.8-0.7"/>
		</g>
	</g>
	<line class="st14" x1="272.4" y1="206.5" x2="285.5" y2="288.9"/>
	<line class="st14" x1="229.3" y1="206.5" x2="216.2" y2="288.9"/>
	<g>
		<path class="st15" d="M254.9,213.2c-5.1-28.3-1.6-26-2.8-31.1c-0.7-1.5-1.1-3.2-1.2-5c-0.8-9.1,5.9-17.2,15-18
			c7.6-0.7,14.6,3.8,17.3,11.1c0.3,0.8,0.6,1.6,0.8,2.7c0.3,1.2,0.7,2.8,1.1,4.9c0.7,3.1,1.5,7.5,2.5,12.9
			c1.7,9.1,3.3,19.7,3.3,19.7L254.9,213.2z M258.1,189.4c2.8,1.9,6.5,3.2,10.8,2.8C264.9,192.6,261.2,191.5,258.1,189.4z"/>
	</g>
	<g>
		<path class="st15" d="M210.7,208.2c0,0,1.4-9.4,2.8-18.5c0.9-5.4,1.6-9.8,2.2-13c0.4-2.1,0.7-3.7,1-4.9c0.3-1.1,0.5-1.9,0.8-2.7
			c2.9-8.4,11.2-13.2,19.9-11.1c6.5,1.5,11.6,7.1,12.4,13.8c0.4,3,0,5.9-1,8.4c-0.8,3.5-3.5,20.8-4.7,28.8c-0.4,2.3-2.5,3.8-4.8,3.5
			L210.7,208.2z M232.3,190.6c4.3,0.3,7.9-1,10.7-3C240,189.7,236.3,190.9,232.3,190.6z"/>
	</g>
	<path class="st15" d="M234.1,191c0.5,6.5,5.9,11,12.5,10.5l11.3-0.3h0c6.5-0.5,11.5-6.1,11-12.6l-0.3-4.7
		c-0.5-6.5-6.1-11.5-12.6-11l-11.2,0.8c-6.5,0.5-11.5,6.1-11,12.6L234.1,191z"/>
	<g>
		<path class="st16" d="M279.5,163c1.5,1.7,2.8,3.9,3.6,6.4c0.3,0.8,0.5,1.6,0.7,2.7c0.3,1.2,0.6,2.8,1,4.9
			c0.6,3.1,1.3,7.5,2.2,12.9c1.5,9.1,2.9,19.5,2.9,19.5l-35.1,3.8l-0.3-12.5"/>
	</g>
	<g>
		<path class="st17" d="M245.9,200.8l-1.3,6.8c-1.2,6.8-4.9,5.5-4.9,5.5l-28.9-4.9c0,0,1.6-9.3,3.3-18.4c1-5.4,1.8-9.8,2.5-12.9
			c0.4-2.1,0.8-3.7,1.1-4.9c0.3-1,0.5-1.9,0.8-2.7c0.9-2.5,2.4-4.7,4.1-6.5"/>
	</g>
	<line class="st17" x1="258.9" y1="200.9" x2="246.5" y2="200.6"/>
	<path class="st17" d="M248.6,183c0,0-3.8,12,3.2,17.7"/>
	<polyline class="st14" points="215.9,119.4 203.7,143.8 153,143.8 	"/>
	<line class="st18" x1="180.1" y1="143.8" x2="153" y2="143.9"/>
	<g>
		<path class="st15" d="M196.2,113.8c-3.4-10.2,2.2-21.8,12.7-25.3s21.9,2.5,25.3,12.7S199.6,123.9,196.2,113.8z"/>
		<path class="st19" d="M196.2,113.8c-3.4-10.2,2.2-21.8,12.7-25.3s21.9,2.5,25.3,12.7S199.6,123.9,196.2,113.8z"/>
	</g>
	<path class="st5" d="M281.4,210.3l6.4-0.5l-0.4-5.1L283,205c-1.1,0.1-1.9,1-1.8,2.1L281.4,210.3z"/>
	<path class="st5" d="M268.9,211.2l6.4-0.5l-0.2-3.2c-0.1-1.1-1-1.9-2.1-1.8l-2.5,0.2c-1.1,0.1-1.9,1-1.8,2.1L268.9,211.2z"/>
	<path class="st5" d="M256.3,212.1l6.4-0.5l-0.2-3.2c-0.1-1.1-1-1.9-2.1-1.8l-4.4,0.3L256.3,212.1z"/>
	<path class="st5" d="M218,208.2l-6.1-1.1l0.9-5l4.2,0.8c1,0.2,1.7,1.2,1.5,2.2L218,208.2z"/>
	<path class="st5" d="M231,210.7l-6.1-1.1l0.6-3.2c0.2-1,1.2-1.7,2.2-1.5l2.4,0.4c1,0.2,1.7,1.2,1.5,2.2L231,210.7z"/>
	<path class="st5" d="M242.7,212.4l-6.1-1.1l0.6-3.2c0.2-1,1.2-1.7,2.2-1.5l4.2,0.8L242.7,212.4z"/>
	<g>
		<path class="st15" d="M305.8,217.3l1.2-17.1c0.3-5-2.2-11.1-7.1-16.7l-16.5-19c-5.2-6.1-14.1-7.3-14.9-2l-2.9,17.9
			c-0.7,4.6,1.7,10.4,6.6,15.6l19.1,20.3C296.8,222.1,305.4,222.7,305.8,217.3z"/>
		<path class="st17" d="M305.8,217.3l1.2-17.1c0.3-5-2.2-11.1-7.1-16.7l-16.5-19c-5.2-6.1-14.1-7.3-14.9-2l-2.9,17.9
			c-0.7,4.6,1.7,10.4,6.6,15.6l19.1,20.3C296.8,222.1,305.4,222.7,305.8,217.3z"/>
	</g>
	<g>
		<path class="st15" d="M196.1,212.6l-1.3-16.6c-0.4-4.9,2.1-10.8,6.7-16.2l15.8-18.6c5-5.9,13.6-7.1,14.4-2.1l3,17.3
			c0.8,4.4-1.6,10.1-6.3,15.1l-18.3,19.8C204.8,217.1,196.5,217.8,196.1,212.6z"/>
		<path class="st17" d="M196.1,212.6l-1.3-16.6c-0.4-4.9,2.1-10.8,6.7-16.2l15.8-18.6c5-5.9,13.6-7.1,14.4-2.1l3,17.3
			c0.8,4.4-1.6,10.1-6.3,15.1l-18.3,19.8C204.8,217.1,196.5,217.8,196.1,212.6z"/>
	</g>
	<path class="st15" d="M246.9,184.3c2.8,0.5,5.7,0.7,8.9,0.7c22.4-0.5,30.9-21.5,31.3-22.4c1.1-2.7-0.3-5.7-2.9-6.8
		c-2.7-1.1-5.7,0.2-6.8,2.9c-0.3,0.7-6.4,15.4-21.8,15.8c-18.6,0.4-25.3-12.7-26.9-16.7c-1.1-2.7-4.1-4-6.8-2.9
		c-2.7,1.1-4,4.1-2.9,6.8C222.8,171.4,232.1,181.6,246.9,184.3z"/>
	<path class="st17" d="M247.8,184.5c2.8,0.4,5.8,0.4,8.9,0.2c22.3-1.7,29.7-23.1,30-24c0.9-2.7-0.6-5.7-3.3-6.6
		c-2.7-0.9-5.7,0.5-6.6,3.3c-0.2,0.7-5.6,15.7-21,16.9c-18.5,1.4-26-11.4-27.8-15.3c-1.2-2.6-4.3-3.7-6.9-2.5
		c-2.6,1.2-3.7,4.3-2.5,6.9C223.1,172.9,232.8,182.6,247.8,184.5z"/>
	<path class="st15" d="M210.2,112L210.2,112c-0.2-12.2,8.7-22.1,19.9-22.3l39.4-0.5c11.1-0.1,20.3,9.6,20.4,21.7v0
		c0,3.2,0.2,17.5,0.3,22c0.1,9-2.3,17.4-6.4,24.4c-1.7,2.9-3.7,5.5-5.9,7.8c-7.1,7.5-16.7,12.1-27.4,12.3
		c-10.6,0.1-20.4-4.3-27.7-11.5c-2.3-2.3-4.3-4.9-6.1-7.7c-4.3-6.9-6.9-15.3-7-24.3C209.5,129,210.2,114.7,210.2,112z"/>
	<path class="st17" d="M211.1,111.1L211.1,111.1C211,98.9,219.9,89,231,88.8l39.4-0.5c11.1-0.1,20.3,9.6,20.4,21.7v0
		c0,3.2,0.2,17.5,0.3,22c0.1,9-2.3,17.4-6.4,24.4c-1.7,2.9-3.7,5.5-5.9,7.8c-7.1,7.5-16.7,12.1-27.4,12.3
		c-10.6,0.1-20.4-4.3-27.7-11.5c-2.3-2.3-4.3-4.9-6.1-7.7c-4.3-6.9-6.9-15.3-7-24.3C210.5,128.1,211.2,113.8,211.1,111.1z"/>
	<polyline class="st14" points="291.7,105 313.5,152.3 316.6,190 	"/>
	<line class="st18" x1="314.5" y1="160.2" x2="316.6" y2="189.5"/>
	<g>
		<path class="st15" d="M312.6,108.4c0.5-10.7-8-20.4-19.1-21s-20.4,8.4-21,19.1S312.1,119.1,312.6,108.4z"/>
		<path class="st19" d="M312.6,108.4c0.5-10.7-8-20.4-19.1-21s-20.4,8.4-21,19.1S312.1,119.1,312.6,108.4z"/>
	</g>
	<path class="st15" d="M232.5,80.1l37.5-0.7c4.3-0.1,7.7-3.6,7.6-7.9l-0.8-47l-53.1,0.9l0.8,47C224.7,76.8,228.2,80.2,232.5,80.1z"
		/>
	
		<rect x="246.8" y="12.9" transform="matrix(1.680822e-02 -0.9999 0.9999 1.680822e-02 207.4146 289.7278)" class="st12" width="8.5" height="53.1"/>
	<path class="st17" d="M231.6,79.5l37.5,0.6c4.3,0.1,7.8-3.3,7.9-7.6l0.8-47l-53.1-0.9l-0.8,47C223.9,75.9,227.3,79.4,231.6,79.5z"
		/>
	
		<rect x="245.4" y="52.7" transform="matrix(-1 -3.926594e-03 3.926594e-03 -1 501.7925 133.121)" class="st5" width="11.2" height="26.8"/>
	<line class="st20" x1="279.4" y1="44.1" x2="222.5" y2="43.2"/>
	<line class="st20" x1="279.5" y1="35.6" x2="222.6" y2="34.7"/>
	<line class="st21" x1="265.3" y1="52.8" x2="236.8" y2="52.6"/>
	<g>
		<path class="st15" d="M228.6,91.8L228.6,91.8c9.6,16.9,33.9,17.1,43.8,0.4l0,0l0-4.3c0-2.6-2.1-4.8-4.7-4.8l-34.3-0.3
			c-2.6,0-4.8,2.1-4.8,4.7L228.6,91.8z"/>
		<path class="st22" d="M227.5,91.8L227.5,91.8c9.6,16.9,33.9,17.1,43.8,0.4l0,0l0-4.3c0-2.6-2.1-4.8-4.7-4.8l-34.3-0.3
			c-2.6,0-4.8,2.1-4.8,4.7L227.5,91.8z"/>
		<path class="st22" d="M234.9,88.5c8.8,5.7,24.3,6.1,31.2-1.8"/>
	</g>
	<path class="st5" d="M236.2,89.2l0.2,0.1c9.3,4.9,20.6,3.9,29-2.5l0,0l0.1-7.4l-30.1,0.2L236.2,89.2z"/>
	<path class="st15" d="M304.8,146.3"/>
	<path class="st22" d="M260.1,175.2c0,0-20.5,6-18.6-31.1v0l0.7-25.6l0.5-7.7c0.2-3.5,3-6.2,6.5-6.2l0,0"/>
	<g>
		<path class="st15" d="M269.6,317.2l1.5-25.9l13.9,2c2.7-17.2,17.2-11.2,17.2-11.2l-1,12.4l4.5,6.9c2.1,3.2,5.6,5.3,9.4,5.6
			l4.3,0.3c1.9,0.7,3.5,2.5,3.9,4.8l1.2,6.2l-19.1,4.6L269.6,317.2z"/>
		<path class="st23" d="M269.6,317.2l1.5-25.9l13.9,2c2.7-17.2,17.2-11.2,17.2-11.2l-1,12.4l4.5,6.9c2.1,3.2,5.6,5.3,9.4,5.6
			l4.3,0.3c1.9,0.7,3.5,2.5,3.9,4.8l1.2,6.2l-19.1,4.6L269.6,317.2z"/>
		<g>
			<path class="st5" d="M324.2,323.3l-14.7,2.9c-2.8,0.6-5.7,0.5-8.5-0.3c-9.1-2.4-30-7.8-30.3-7.9c-2.3-0.8-3.4-1.4-3.8-3.4l0,0
				c-0.5-2.7,1.9-4.9,4.6-4.2l27.9,7.4c2.8,0.7,5.8,0.8,8.6,0.3l14.6-2.9c1.9-0.4,3.8,1.1,4.2,3.4
				C327.2,320.8,326.1,322.9,324.2,323.3z"/>
		</g>
		<path class="st24" d="M271.9,284.1l12.8,1.8c4.2,0.6,7.1,4.4,6.5,8.6l0,0l-20.3-2.8c-2.1-0.3-3.5-2.2-3.2-4.3l0,0
			C267.9,285.3,269.8,283.8,271.9,284.1z"/>
		<polyline class="st23" points="290.9,295.2 290.7,299.2 295.5,305.3 306.1,303.2 		"/>
		<path class="st23" d="M316.9,307c0,0-8.3-1.1-13.9,2.6l0,0"/>
		<line class="st23" x1="291.2" y1="295.8" x2="301.2" y2="293.8"/>
	</g>
	<g>
		<path class="st15" d="M232.4,315.3l-1.5-25.9l-13.9,2c-2.7-17.2-17.2-11.2-17.2-11.2l1,12.4l-4.5,6.9c-2.1,3.2-5.6,5.3-9.4,5.6
			l-4.3,0.3c-1.9,0.7-3.5,2.5-3.9,4.8l-1.2,6.2l19.1,4.6L232.4,315.3z"/>
		<path class="st23" d="M232.4,315.3l-1.5-25.9l-13.9,2c-2.7-17.2-17.2-11.2-17.2-11.2l1,12.4l-4.5,6.9c-2.1,3.2-5.6,5.3-9.4,5.6
			l-4.3,0.3c-1.9,0.7-3.5,2.5-3.9,4.8l-1.2,6.2l19.1,4.6L232.4,315.3z"/>
		<g>
			<path class="st5" d="M177.8,321.4l14.7,2.9c2.8,0.6,5.7,0.5,8.5-0.3c9.1-2.4,30-7.8,30.3-7.9c2.3-0.8,3.4-1.4,3.8-3.4v0
				c0.5-2.7-1.9-4.9-4.6-4.2l-27.9,7.4c-2.8,0.7-5.8,0.8-8.6,0.3l-14.6-2.9c-1.9-0.4-3.8,1.1-4.2,3.4
				C174.7,318.9,175.9,321,177.8,321.4z"/>
		</g>
		<path class="st24" d="M230.1,282.2l-12.8,1.8c-4.2,0.6-7.1,4.4-6.5,8.6l0,0l20.3-2.8c2.1-0.3,3.5-2.2,3.2-4.3l0,0
			C234.1,283.3,232.1,281.9,230.1,282.2z"/>
		<polyline class="st23" points="211,293.3 211.3,297.3 206.4,303.3 195.8,301.2 		"/>
		<path class="st23" d="M185.1,305c0,0,8.3-1.1,13.9,2.6h0"/>
		<line class="st23" x1="210.7" y1="293.8" x2="200.7" y2="291.9"/>
	</g>
	<g>
		<circle class="st15" cx="315" cy="191.4" r="13.3"/>
		<g>
			<path class="st25" d="M320.6,193.1c1.2-1.6,2.7-2.5,4.4-2.4c3.3,0.2,5.8,4.4,5.5,9.4c-0.3,5-3.2,9-6.5,8.8
				c-1.7-0.1-3.1-1.2-4.1-2.9"/>
			<path class="st25" d="M310.8,205.5c0.9,1.8,2.2,3,3.8,3.2c1.6,0.2,3.3-0.6,4.6-2c1.3-1.5,2.3-3.7,2.6-6.2c0.4-2.5,0-4.9-0.8-6.6
				c-0.9-1.8-2.2-3-3.8-3.2s-3.3,0.6-4.6,2"/>
			<g>
				<path class="st25" d="M305.7,206c3.2,0.7,6.6-1.4,7.9-7.5c1.1-4.9-0.6-9.5-3.8-10.3c-2.9-0.7-4.7,0.3-6.1,4.3
					c-0.1,0.2-1.5,4.7-1.4,7.8C302.4,203.7,304,205.6,305.7,206z"/>
				<path class="st26" d="M330.5,200.1"/>
				<path class="st26" d="M301.9,195.9c-0.1,0.5-0.3,1.2-0.3,1.7c-0.5,4.3,1.2,8,4.1,8.7c1.4,0.3,2.9-0.1,4.2-1.2c0,0,0.9-0.6,1,0.4
					c0.9,1.8,2.2,3,3.8,3.2c1.6,0.2,3.3-0.6,4.6-2c0.2-0.3,0.5-0.6,0.7-0.9l0,0.2c1,1.7,2.4,2.8,4.1,2.9c3.2,0.2,8.5-3.9,6-13"/>
			</g>
		</g>
		
			<ellipse transform="matrix(6.405977e-02 -0.9979 0.9979 6.405977e-02 96.2938 483.9821)" class="st25" cx="306.2" cy="190.7" rx="4.6" ry="9.5"/>
		<path class="st27" d="M301.1,186c-2.7,1.4-3.9,2.5-3.6,5.3c0.3,2.1,2.1,3.8,4.8,4.6"/>
	</g>
	<g>
		<circle class="st15" cx="149.7" cy="141.8" r="10.6"/>
		<path class="st15" d="M154.3,140.3h4.7v-16.1c0-1.5-1.2-2.8-2.8-2.8h0c-3.6,0-6.5,2.9-6.5,6.5v7.6
			C149.7,138.2,151.7,140.3,154.3,140.3z"/>
		<path class="st28" d="M149.7,129.9v-2c0-3.6,2.9-6.5,6.5-6.5h0c1.5,0,2.8,1.2,2.8,2.8v16.1"/>
		<g>
			<g>
				<path class="st25" d="M137.8,147.6c-1.2,1-1.9,2.2-1.8,3.5c0.2,2.6,3.7,4.5,7.7,4.1c4-0.3,7-2.8,6.8-5.4c-0.1-1.3-1-2.4-2.4-3.2
					"/>
				<path class="st29" d="M137.8,147.6c-1.2,1-1.9,2.2-1.8,3.5c0.2,2.6,3.7,4.5,7.7,4.1c4-0.3,7-2.8,6.8-5.4c-0.1-1.3-1-2.4-2.4-3.2
					"/>
			</g>
			<g>
				<path class="st25" d="M147.5,140.4c1.3,0.9,2.1,2.1,2.1,3.4s-0.8,2.5-2.1,3.4c-1.3,0.9-3.1,1.4-5.1,1.4c-2,0-3.8-0.5-5.1-1.4
					c-1.3-0.9-2.1-2.1-2.1-3.4s0.8-2.5,2.1-3.4"/>
				<path class="st29" d="M147.5,140.4c1.3,0.9,2.1,2.1,2.1,3.4s-0.8,2.5-2.1,3.4c-1.3,0.9-3.1,1.4-5.1,1.4c-2,0-3.8-0.5-5.1-1.4
					c-1.3-0.9-2.1-2.1-2.1-3.4s0.8-2.5,2.1-3.4"/>
			</g>
			<g>
				<path class="st25" d="M136.3,136.4c-0.2,2.6,2.8,5,6.8,5.4c4,0.3,7.4-1.5,7.6-4.1c0.2-2.3-0.7-3.6-4.1-4.3
					c-0.2,0-3.9-0.6-6.3-0.2C137.7,133.6,136.4,135,136.3,136.4z"/>
				<path class="st29" d="M143.8,132.3c-0.4,0-1-0.1-1.4-0.1c-3.4,0.1-6.2,1.8-6.4,4.2c-0.2,2.6,2.8,5,6.8,5.4
					c4,0.3,7.4-1.5,7.6-4.1c0.1-1.3-0.5-2.5-1.7-3.5"/>
			</g>
		</g>
		<path class="st30" d="M148.9,146.6c1.1,2.7,4.2,3.9,6.9,2.8"/>
	</g>
	<g>
		<path class="st31" d="M278.3,164.6c-6.2,0-12.3-2.6-16.5-7.4L224.6,115c-7.6-6.8-10.2-17.7-6.4-27.2c1-2.5,3.9-3.8,6.4-2.8
			c2.5,1,3.8,3.9,2.8,6.4c-2.3,5.7-0.7,12.3,4,16.3c0.2,0.1,0.3,0.3,0.5,0.5l37.5,42.4c3,3.4,7.8,4.8,12.2,3.6
			c2.6-0.7,5.4,0.8,6.1,3.5c0.7,2.6-0.8,5.4-3.5,6.1C282.2,164.4,280.2,164.6,278.3,164.6z"/>
	</g>
</g>
<g class="st32">
	<path class="st5" d="M276.1,47.8c0,0-7.1,23.4-53.2,25c0,0-2.2,4.8,4.7,5.8c6.9,1,42.1,0.8,42.1,0.8s6.6-1.1,6.4-11.8
		C275.9,56.9,276.1,47.8,276.1,47.8z"/>
	<path class="st5" d="M249.5,87.5c0,0-0.4,0.3-1,0.9c-2.9,2.4-11.3,9-16.5,9.1c0,0,5.9,7.3,12.3,7.2c6.5-0.1,19.4-1.4,23.8-6.9
		c4.4-5.5,2.9-11.8,2.9-11.8s-1.1-3.3-5.4-3.1C261.2,83.1,249.5,87.5,249.5,87.5z"/>
	<path class="st5" d="M272.6,102.5c0,0,7.1-8.9,22-12.9c13.4-3.6,19.8,15.5,18,18.8c-1.8,3.3-11.2,9.7-29.8,5.8
		C268,111.1,272.6,102.5,272.6,102.5z"/>
	<path class="st5" d="M213.9,145.9c0,0,14.5,21.4,43.9,8.6c30.6-13.4,19.3-40.7,19.3-40.7l9.1,10.9l3.3,19.8l-4.1,10.1
		c0,0,3.6,6.7,0.8,8.3c-2.8,1.6-4.9,14.5-17.2,18.2c-12.3,3.7-28.8,4.5-38.6-2.9c-9.9-7.3-13-16.4-13.6-17.9
		C216.3,158.6,213.9,145.9,213.9,145.9z"/>
	<path class="st5" d="M220,109.6c0,0,19.4,20.3,35.7,25.8l13.9,14.4c0,0-8.5,6.5-9.4,5.5C259.2,154.3,220,109.6,220,109.6z"/>
	<path class="st5" d="M215.9,92.7c0,0-11.6,15.3-10.8,24.8h5.9L215.9,92.7z"/>
	<path class="st5" d="M144.9,155.9l5.9-6.1l5-0.6c0,0,21.2,6.5,39-1c17.7-7.4-7.5,10.8-7.5,10.8h-32.9
		C154.4,159.1,147.7,161.2,144.9,155.9z"/>
	<path class="st5" d="M137.2,148.2l11.6-1.5l1.9,3.1l-4.9,5.5l-6.8-0.8C139.1,154.5,135.3,153.7,137.2,148.2z"/>
	<path class="st5" d="M135.1,142.7c0,0,8.6,3.7,14.5,1.1c0,0,0.7,2.9-2.7,3.7C143.5,148.3,135.7,149,135.1,142.7z"/>
	<path class="st5" d="M136.7,134.8c0,0-1.7,7.2,6.6,6.9c8.3-0.3,7.5-4.4,7.5-4.4S140.6,143.4,136.7,134.8z"/>
	<path class="st5" d="M265.5,182c0,0,4.4,14.1,10.4,17.9s14.3,16.4,14.3,16.4s11.4,8.9,13.9,4.8s2-13.5,2-13.5s-5.3-4.3-4.4-9
		c0.5-2.6,0.5-2.6,0.5-2.6s-9.5-3.1-0.8-10l-16.1-20L265.5,182z"/>
	<path class="st5" d="M317.9,141.8c0,0-2.8,33.4-15.6,43.1c-12.8,9.7,0,11,0,11s-1.2,13.1,5.8,10.2c7-2.9,2.7,7.1,11.8,0
		c0,0,5.6,6.6,10.6-2.5v-6.5c0,0,1.2-4.4,0.2-21.6C329.6,158.3,329.6,144.6,317.9,141.8z"/>
	<path class="st5" d="M234.4,181.4c0,0-12,17-15.9,20.2c-3.9,3.2-2.3,7.8-2.3,7.8l25.2,4.8c0,0,2.4-4.7,2.6-4.8
		c0.2-0.1,2.4-8.7,2.4-8.7l7.9,1l1.7,10.8c0,0,7.4,4.2,8.4,3.8c1-0.4,21.7-3.8,21.7-3.8s-10.9-12.9-11.7-13.6
		c-0.7-0.7-8.8-11.5-10.2-15.8C262.9,178.6,261.1,188.4,234.4,181.4z"/>
	<path class="st5" d="M216.8,161.2c0,0-20.5,21.6-20.5,26.8s-2.2,21,0,24.4c2.2,3.4,1.2,2.9,1.2,2.9s14.9-22.1,34.4-30.4l1.8-4.6
		c0,0-14.3-11.9-17-20"/>
	<path class="st5" d="M269,283.6l29.5-4.5l3.8,4.5c0,0-3.1,8.4,1.8,14.8s7.6,7.8,11.9,8.5s9.9,6.6,8.5,9.6c-1.4,3.1-23,6.3-23,6.3
		s-29.6-9.4-30.6-10.1c-1-0.6,0-17.9,0-17.9S264.9,288.8,269,283.6z"/>
	<path class="st5" d="M232.3,282.6c0,0-18.8,0.7-20.2,4.5c-1.4,3.8-1,8.7-1,8.7l-15.3,4.5c0,0-4.6,4.3-8.9,4.6
		c-4.3,0.3-10,3.5-8.8,10.1c0,0,15.3,2.2,17.3,3.3s35.8-6.3,35.8-6.3l-0.2-21.4C230.9,290.7,235.8,286.5,232.3,282.6z"/>
	<path class="st5" d="M198.3,89.6l24.5-16.8l-2.8,13l-1.8,1.6c0,0-9.4,0.7-12,2.2C203.7,91.1,200.6,91,198.3,89.6z"/>
	<path class="st5" d="M191.7,52.4l12.2,18.9l3.8-11.7l-9.4-12.2C198.3,47.4,194.9,52.5,191.7,52.4z"/>
</g>
</svg>
