<?xml version="1.0" encoding="utf-8"?>
<!-- Generator: Adobe Illustrator 23.0.2, SVG Export Plug-In . SVG Version: 6.00 Build 0)  -->
<svg version="1.1" id="Layer_2" xmlns="http://www.w3.org/2000/svg" xmlns:xlink="http://www.w3.org/1999/xlink" x="0px" y="0px"
	 viewBox="0 0 460 345" style="enable-background:new 0 0 460 345;" xml:space="preserve">
<style type="text/css">
	.st0{fill:#1B8059;}
	.st1{fill:#1B8059;stroke:#191059;stroke-width:1.6253;stroke-linecap:round;stroke-linejoin:round;stroke-miterlimit:10;}
	.st2{fill:#1BE059;}
	.st3{fill:#191059;}
	.st4{fill:#1B0C59;}
	.st5{fill:#A9B2B5;}
	.st6{display:none;fill:#707677;}
	.st7{fill:none;stroke:#191059;stroke-width:1.4133;stroke-linecap:round;stroke-linejoin:round;stroke-miterlimit:10;}
	.st8{fill:#707677;}
	.st9{fill:none;stroke:#191059;stroke-width:1.6253;stroke-linecap:round;stroke-linejoin:round;stroke-miterlimit:10;}
	.st10{fill:none;stroke:#191059;stroke-width:1.3364;stroke-linecap:round;stroke-linejoin:round;stroke-miterlimit:10;}
	.st11{fill:#1BE059;stroke:#191059;stroke-width:1.4133;stroke-linecap:round;stroke-linejoin:round;stroke-miterlimit:10;}
	.st12{fill:#1BE059;stroke:#191059;stroke-width:1.6253;stroke-linecap:round;stroke-linejoin:round;stroke-miterlimit:10;}
	.st13{fill:#1B8059;stroke:#191059;stroke-width:1.2373;stroke-linecap:round;stroke-linejoin:round;stroke-miterlimit:10;}
	.st14{fill:none;stroke:#191059;stroke-width:1.908;stroke-linecap:round;stroke-linejoin:round;stroke-miterlimit:10;}
	.st15{fill:#1B8059;stroke:#191059;stroke-width:1.908;stroke-linecap:round;stroke-linejoin:round;stroke-miterlimit:10;}
	.st16{fill:#1BE059;stroke:#191059;stroke-width:1.908;stroke-linecap:round;stroke-linejoin:round;stroke-miterlimit:10;}
	.st17{fill:url(#SVGID_1_);}
	.st18{fill:#FFD60B;}
	.st19{fill:#FFE161;}
	.st20{fill:none;stroke:#1B0C59;stroke-width:2.8267;stroke-linecap:round;stroke-linejoin:round;stroke-miterlimit:10;}
	
		.st21{display:none;fill:none;stroke:#1B0C59;stroke-width:5.3998;stroke-linecap:round;stroke-linejoin:round;stroke-miterlimit:10;}
	
		.st22{display:none;fill:none;stroke:#1B0C59;stroke-width:3.9313;stroke-linecap:round;stroke-linejoin:round;stroke-miterlimit:10;}
	
		.st23{display:none;fill:none;stroke:#1B0C59;stroke-width:7.045;stroke-linecap:round;stroke-linejoin:round;stroke-miterlimit:10;}
	
		.st24{display:none;fill:none;stroke:#1B0C59;stroke-width:6.1723;stroke-linecap:round;stroke-linejoin:round;stroke-miterlimit:10;}
	.st25{fill:none;stroke:#191059;stroke-width:1.7667;stroke-linecap:round;stroke-linejoin:round;stroke-miterlimit:10;}
	.st26{fill:#9E896A;}
	.st27{display:none;}
	.st28{display:inline;fill:#1BE059;}
	.st29{display:inline;}
	.st30{fill:#FFD60B;stroke:#1B0C59;stroke-width:2.8267;stroke-linecap:round;stroke-linejoin:round;stroke-miterlimit:10;}
	.st31{opacity:0.5;fill:#1B0C59;}
	.st32{fill:#2AC6EA;}
	.st33{fill:none;stroke:#1B0C59;stroke-width:2.5019;stroke-linecap:round;stroke-linejoin:round;stroke-miterlimit:10;}
	.st34{fill:none;stroke:#1B0C59;stroke-width:30.5285;stroke-linecap:round;stroke-linejoin:round;stroke-miterlimit:10;}
	.st35{fill:none;stroke:#2AC6EA;stroke-width:26.1673;stroke-linecap:round;stroke-linejoin:round;stroke-miterlimit:10;}
	.st36{fill:none;stroke:#191059;stroke-width:2.0271;stroke-linecap:round;stroke-linejoin:round;stroke-miterlimit:10;}
	.st37{fill:none;stroke:#1B0C59;stroke-width:1.8457;stroke-linecap:round;stroke-linejoin:round;stroke-miterlimit:10;}
	.st38{fill:#2AC6EA;stroke:#1B0C59;stroke-width:2.0041;stroke-linecap:round;stroke-linejoin:round;stroke-miterlimit:10;}
	.st39{fill:#EB586F;}
	.st40{fill:none;stroke:#1B0C59;stroke-width:2.0082;stroke-linecap:round;stroke-linejoin:round;stroke-miterlimit:10;}
	.st41{fill:none;stroke:#1B0C59;stroke-width:7.4373;stroke-linecap:round;stroke-linejoin:round;stroke-miterlimit:10;}
	.st42{fill:none;stroke:#1B0C59;stroke-width:2.1806;stroke-linecap:round;stroke-linejoin:round;stroke-miterlimit:10;}
	.st43{display:none;fill:#FFFFFF;}
	.st44{fill:none;stroke:#1B0C59;stroke-width:1.8578;stroke-linecap:round;stroke-linejoin:round;stroke-miterlimit:10;}
	.st45{fill:#2AC6EA;stroke:#1B0C59;stroke-width:2.0173;stroke-linecap:round;stroke-linejoin:round;stroke-miterlimit:10;}
	.st46{fill:none;stroke:#1B0C59;stroke-width:2.0173;stroke-linecap:round;stroke-linejoin:round;stroke-miterlimit:10;}
	
		.st47{display:none;fill:none;stroke:#1B0C59;stroke-width:2.0173;stroke-linecap:round;stroke-linejoin:round;stroke-miterlimit:10;}
	.st48{opacity:0.25;fill:#1B0C59;}
	.st49{fill:#D8E9F0;}
	.st50{fill:none;stroke:#1B0C59;stroke-width:1.9911;stroke-miterlimit:10;}
	.st51{fill:none;stroke:#1B0C59;stroke-width:1.9911;stroke-linecap:round;stroke-miterlimit:10;}
	.st52{fill:#D8E9F0;stroke:#1B0C59;stroke-width:1.9911;stroke-miterlimit:10;}
	.st53{fill:#EB586F;stroke:#1B0C59;stroke-width:1.9911;stroke-miterlimit:10;}
	.st54{fill:none;stroke:#FFFFFF;stroke-width:0.8591;stroke-linecap:round;stroke-linejoin:round;stroke-miterlimit:10;}
	.st55{fill:#FFFFFF;}
	.st56{display:none;fill:#2AC6EA;}
	.st57{fill:#24C7EA;}
	.st58{fill:none;stroke:#191059;stroke-width:1.8455;stroke-linecap:round;stroke-linejoin:round;stroke-miterlimit:10;}
	.st59{fill:none;stroke:#191059;stroke-width:1.9255;stroke-linecap:round;stroke-linejoin:round;stroke-miterlimit:10;}
	.st60{fill:none;stroke:#191059;stroke-width:1.6489;stroke-linecap:round;stroke-linejoin:round;stroke-miterlimit:10;}
	.st61{opacity:0.5;}
	.st62{fill:#EB586F;stroke:#191059;stroke-width:1.6253;stroke-linecap:round;stroke-linejoin:round;stroke-miterlimit:10;}
	
		.st63{display:inline;fill:none;stroke:#191059;stroke-width:1.6253;stroke-linecap:round;stroke-linejoin:round;stroke-miterlimit:10;}
</style>
<g>
	<g>
		<ellipse class="st0" cx="278.4" cy="220.1" rx="18.5" ry="15.9"/>
		<path class="st1" d="M267.8,210.5c-0.5-0.6-1.1-1.3-1.5-2.1c-1.8-3.3-1.9-6.8,0-7.3c3.5-0.9,7,2.8,8.7,7.4"/>
		<path class="st1" d="M274.9,208c-0.3-0.9-0.4-1.9-0.5-3c-0.3-4.3,1.6-8.3,4-8c4.4,0.5,6.2,5.9,5.6,11.7"/>
		<path class="st1" d="M294.2,210.3c0.6-1,1.2-2,1.7-3.2c1.9-4.8,1.3-9.8-1.6-10.2c-5.1-0.7-9.1,5-10.6,11.7"/>
		<path class="st1" d="M262.2,214.4c-0.4-0.2-0.8-0.5-1.2-0.7c-3.4-2.2-5.1-5.1-3.9-6.5c1.2-1.4,5-0.8,8.4,1.4
			c0.8,0.5,1.5,1.1,2.1,1.7"/>
		<path class="st1" d="M260.4,217.7c-0.3,0-0.6-0.1-0.9-0.1c-2.4-0.5-4.2-1.7-3.9-2.8c0.3-1,2.5-1.4,4.9-0.9
			c0.6,0.1,1.1,0.3,1.6,0.5"/>
	</g>
	<g>
		<ellipse class="st0" cx="175.2" cy="223.1" rx="21.5" ry="18.5"/>
		<path class="st1" d="M187.6,211.9c0.6-0.7,1.2-1.6,1.8-2.5c2.1-3.8,2.3-7.9,0-8.5c-4.1-1-8.1,3.2-10.2,8.7"/>
		<path class="st1" d="M179.3,209c0.3-1.1,0.5-2.2,0.6-3.4c0.3-5.1-1.8-9.7-4.7-9.4c-5.1,0.5-7.2,6.8-6.5,13.6"/>
		<path class="st1" d="M156.8,211.6c-0.7-1.1-1.4-2.4-1.9-3.7c-2.2-5.6-1.5-11.4,1.9-11.8c5.9-0.8,10.6,5.8,12.3,13.6"/>
		<path class="st1" d="M194.1,216.5c0.5-0.2,1-0.5,1.4-0.8c3.9-2.5,6-5.9,4.5-7.6c-1.4-1.7-5.8-0.9-9.7,1.6c-1,0.6-1.8,1.3-2.5,2"/>
		<path class="st1" d="M196.2,220.4c0.3,0,0.7-0.1,1-0.2c2.8-0.6,4.9-2,4.5-3.2s-2.9-1.7-5.7-1.1c-0.7,0.1-1.3,0.3-1.9,0.6"/>
	</g>
	<g>
		<ellipse class="st2" cx="224.5" cy="274.3" rx="90.6" ry="10.6"/>
		<ellipse class="st2" cx="204.3" cy="260.5" rx="90.6" ry="10.6"/>
		<ellipse class="st2" cx="145" cy="249.8" rx="144.9" ry="21.1"/>
		<ellipse class="st2" cx="275.6" cy="232.9" rx="137.4" ry="16.4"/>
		<ellipse class="st2" cx="322.6" cy="246.2" rx="137.4" ry="16.4"/>
		<ellipse class="st2" cx="316.5" cy="266.3" rx="106.9" ry="16.4"/>
		<ellipse class="st2" cx="97.3" cy="284.8" rx="24.8" ry="4.9"/>
		<ellipse class="st2" cx="444.1" cy="261.5" rx="12.4" ry="2.5"/>
	</g>
	<ellipse class="st3" cx="119.9" cy="247.3" rx="25" ry="5.1"/>
	<ellipse class="st3" cx="201.9" cy="276" rx="19.2" ry="2.8"/>
	<ellipse class="st3" cx="432.2" cy="247.5" rx="8.9" ry="1.2"/>
	<ellipse class="st4" cx="324.2" cy="268.5" rx="43" ry="5.6"/>
	<ellipse class="st4" cx="439.1" cy="248.2" rx="10" ry="2.1"/>
	<g>
		<polygon class="st5" points="431.2,240.8 441.6,241.2 443.2,243.3 444.1,245.9 440,248.2 427.1,247.3 424.5,243 		"/>
		<polygon class="st6" points="440,248.2 444.1,245.9 443.2,243.3 441.6,241.2 439.6,241.2 437.9,242.5 435.1,244.8 435.9,247.9 		
			"/>
		<polygon class="st7" points="431.2,240.8 441.6,241.2 443.2,243.3 444.1,245.9 440,248.2 427.1,247.3 424.5,243 		"/>
		<polyline class="st7" points="435.9,247.9 435.1,244.8 425.6,244.1 		"/>
		<line class="st7" x1="435.1" y1="244.8" x2="443.2" y2="243.3"/>
	</g>
	<g>
		<polygon class="st5" points="308.6,255.2 326.8,255.9 329.5,259.5 331.1,264.1 323.9,268.2 301.4,266.6 296.8,259 		"/>
		<polygon class="st8" points="323.9,268.2 331.1,264.1 329.5,259.5 326.8,255.9 325.4,255.9 321.5,258.8 315.4,262.2 316.8,267.7 
					"/>
		<polygon class="st9" points="308.6,255.2 326.8,255.9 329.5,259.5 331.1,264.1 323.9,268.2 301.4,266.6 296.8,259 		"/>
		<polyline class="st9" points="316.8,267.7 315.4,262.2 298.7,261 		"/>
		<line class="st9" x1="315.4" y1="262.2" x2="326.8" y2="255.9"/>
	</g>
	<g>
		<polygon class="st10" points="188.1,276 189.3,271.4 194.4,267.6 215.3,269.9 220.3,276 		"/>
		<polygon class="st5" points="188.1,276 189.3,271.4 194.4,267.6 215.3,269.9 220.3,276 		"/>
		<polygon class="st8" points="188.1,276 189.3,271.4 194.4,267.6 207.4,272.9 208.3,276 		"/>
		<polygon class="st9" points="188.1,276 189.3,271.4 194.4,267.6 215.3,269.9 220.3,276 		"/>
		<polyline class="st9" points="189.3,271.4 208.3,272.9 215.3,269.9 		"/>
		<line class="st9" x1="208.3" y1="276" x2="208.3" y2="272.9"/>
	</g>
	<g>
		<path class="st11" d="M107.3,238.5c-0.4-0.5-0.7-1-1-1.6c-1.2-2.5-1.3-5.2,0-5.6c3.8-1.1,7.5,7.2,6.3,12.8"/>
		<path class="st11" d="M103.6,241.5c-0.3-0.2-0.5-0.3-0.8-0.5c-2.2-1.7-3.4-3.9-2.6-5c0.8-1.1,3.3-0.6,5.5,1c0.5,0.4,1,0.8,1.4,1.3
			"/>
		<path class="st11" d="M102.4,244.1c-0.2,0-0.4-0.1-0.6-0.1c-1.6-0.4-2.7-1.3-2.6-2.1c0.2-0.8,1.6-1.1,3.2-0.7
			c0.4,0.1,0.7,0.2,1.1,0.4"/>
	</g>
	<g>
		<path class="st2" d="M183.9,283.7l9.5-0.2v-10.3c0,0-3.1,1.2-3.6,0.9c-1.6-0.7-2.3-4.3-5.1-1.1
			C180.9,277.1,183.9,283.7,183.9,283.7z"/>
		<g>
			<path class="st12" d="M189.3,275.2c-0.4-0.5-0.7-1-1-1.6c-1.2-2.5-1.3-5.2,0-5.6c3.8-1.1,7.5,7.2,6.3,12.8"/>
			<path class="st12" d="M185.7,278.2c-0.3-0.2-0.5-0.3-0.8-0.5c-2.2-1.7-3.4-3.9-2.6-5s3.3-0.6,5.5,1c0.5,0.4,1,0.8,1.4,1.3"/>
			<path class="st12" d="M184.5,280.8c-0.2,0-0.4-0.1-0.6-0.1c-1.6-0.4-2.7-1.3-2.6-2.1s1.6-1.1,3.2-0.7c0.4,0.1,0.7,0.2,1.1,0.4"/>
		</g>
	</g>
	<g>
		<path class="st7" d="M106.1,237.6c0,0-16.7-31.7,16.4-55.2c4.6-3.2,8.2-6.5,11-9.8"/>
		<path class="st7" d="M101.9,217.5c0,0,7.9-6.7,18-10.3"/>
		<path class="st7" d="M101.7,214.9c0,0-1.8-3.8-4.3-6.6"/>
		<path class="st7" d="M107.8,196.9c0,0,3.8-17-8.9-29.3"/>
		<path class="st7" d="M107.4,182.7c0,0-5.5-3.1-9.8-1.7"/>
		<path class="st7" d="M119.5,184.6c0,0,6.8,4,13.5,1.6"/>
		<path class="st13" d="M124.1,196.7c4.3-2.5,9.4-1.8,11.3,1.5c1.9,3.3,0,8.1-4.4,10.6c-4.3,2.5-11.3-1.5-11.3-1.5
			S119.7,199.2,124.1,196.7z"/>
		<path class="st13" d="M102.1,197.7c2.8-4.1,7.7-5.7,10.9-3.5c3.2,2.2,3.5,7.3,0.6,11.4c-2.8,4.1-10.9,3.5-10.9,3.5
			S99.3,201.9,102.1,197.7z"/>
		<path class="st11" d="M137.2,175.8c4.3-2.5,9.4-1.8,11.3,1.5c1.9,3.3,0,8.1-4.4,10.6c-4.3,2.5-11.3-1.5-11.3-1.5
			S132.8,178.3,137.2,175.8z"/>
		<path class="st11" d="M99.5,196.6c-2.3-4.5-6.9-6.7-10.3-4.9s-4.4,6.8-2.1,11.2c2.3,4.5,10.3,4.9,10.3,4.9S101.8,201.1,99.5,196.6
			z"/>
		<path class="st13" d="M86.2,178.4c-4.6,1.9-7.2,6.4-5.7,9.9c1.5,3.6,6.4,4.9,11.1,3c4.6-1.9,5.7-9.9,5.7-9.9
			S90.9,176.4,86.2,178.4z"/>
		<path class="st13" d="M90.5,159.6c-0.7-5,1.8-9.4,5.6-10c3.8-0.6,7.5,3,8.2,7.9c0.7,5-5.6,10-5.6,10S91.2,164.6,90.5,159.6z"/>
		<path class="st11" d="M134.8,161.2c3.5-3.5,8.6-4.2,11.4-1.5s2.1,7.8-1.5,11.4c-3.5,3.5-11.4,1.5-11.4,1.5
			S131.3,164.8,134.8,161.2z"/>
		<path class="st11" d="M112.1,178.8c2.5-4.4,7.2-6.4,10.5-4.5s4.1,7,1.6,11.3c-2.5,4.4-10.5,4.5-10.5,4.5S109.6,183.2,112.1,178.8z
			"/>
		<path class="st11" d="M103.8,164.8c2.5-4.4,7.2-6.4,10.5-4.5s4.1,7,1.6,11.3c-2.5,4.4-10.5,4.5-10.5,4.5S101.3,169.2,103.8,164.8z
			"/>
	</g>
</g>
<g>
	<ellipse class="st4" cx="94" cy="250.6" rx="76.3" ry="10.3"/>
	<g>
		<path class="st14" d="M43.5,238.1c0,0-14.4-37.9,26-59.6c5.6-3,10.1-6.2,13.6-9.4"/>
		<path class="st14" d="M41.6,215c0,0,9.8-6.5,21.6-9.1"/>
		<path class="st14" d="M41.7,212c0,0-1.5-4.5-3.9-8"/>
		<path class="st14" d="M51,192.8c0,0,6.6-18.5-5.9-34"/>
		<path class="st14" d="M52.5,176.8c0,0-5.8-4.2-10.8-3.2"/>
		<path class="st14" d="M65.9,180.7c0,0,7,5.4,14.9,3.6"/>
		<path class="st15" d="M69.2,194.8c5.2-2.2,10.8-0.7,12.5,3.3c1.7,4-1.1,9-6.4,11.3c-5.2,2.2-12.5-3.3-12.5-3.3S64,197,69.2,194.8z
			"/>
		<path class="st15" d="M44.5,192.9c3.7-4.2,9.4-5.3,12.7-2.5s2.9,8.7-0.9,12.9c-3.7,4.2-12.7,2.5-12.7,2.5S40.8,197.1,44.5,192.9z"
			/>
		<path class="st16" d="M86.9,173.1c5.2-2.2,10.8-0.7,12.5,3.3c1.7,4-1.1,9-6.4,11.3c-5.2,2.2-12.5-3.3-12.5-3.3
			S81.6,175.3,86.9,173.1z"/>
		<path class="st16" d="M41.8,191.3c-1.9-5.3-6.8-8.4-10.9-7c-4.1,1.5-5.9,7-3.9,12.3s10.9,7,10.9,7S43.7,196.6,41.8,191.3z"/>
		<path class="st15" d="M29.4,169c-5.4,1.5-8.9,6.1-7.8,10.3s6.5,6.4,12,4.9s7.8-10.3,7.8-10.3S34.9,167.5,29.4,169z"/>
		<path class="st15" d="M36.8,148.6c-0.1-5.7,3.3-10.3,7.6-10.4s8,4.4,8.1,10c0.1,5.7-7.6,10.4-7.6,10.4S36.9,154.3,36.8,148.6z"/>
		<path class="st16" d="M86.2,156.5c4.5-3.5,10.2-3.5,12.9-0.1c2.7,3.4,1.2,9-3.2,12.5c-4.5,3.5-12.9,0.1-12.9,0.1
			S81.8,160,86.2,156.5z"/>
		<path class="st16" d="M58.3,173.1c3.4-4.5,8.9-6.1,12.4-3.5s3.6,8.4,0.2,12.9c-3.4,4.5-12.4,3.5-12.4,3.5S55,177.7,58.3,173.1z"/>
		<path class="st16" d="M50.9,156.3c3.4-4.5,8.9-6.1,12.4-3.5c3.5,2.6,3.6,8.4,0.2,12.9c-3.4,4.5-12.4,3.5-12.4,3.5
			S47.6,160.8,50.9,156.3z"/>
	</g>
	<linearGradient id="SVGID_1_" gradientUnits="userSpaceOnUse" x1="67.7757" y1="188.3557" x2="240.5905" y2="121.8329">
		<stop  offset="0.3897" style="stop-color:#FFE161"/>
		<stop  offset="0.8112" style="stop-color:#FFFFFF;stop-opacity:0"/>
	</linearGradient>
	<path class="st17" d="M67.2,184.4l93.5-76.7c21.8-17.9,54.2-14,71,8.7c0.1,0.1,0.2,0.3,0.3,0.4c0.2,0.3,0.4,0.6,0.6,0.9
		c19.2,26.6,0.4,63.9-32.4,64.4l-48.1,0.8L67.2,184.4z"/>
	<g>
		<rect x="118.2" y="171.5" class="st18" width="15.9" height="13.3"/>
		<rect x="118.2" y="171.5" class="st19" width="10.6" height="13.3"/>
		<rect x="118.2" y="171.5" class="st20" width="15.9" height="13.3"/>
		<line class="st21" x1="128.8" y1="171.5" x2="128.8" y2="184.8"/>
	</g>
	<g>
		<rect x="86.3" y="177.7" class="st18" width="15.9" height="7"/>
		<rect x="86.3" y="177.7" class="st19" width="10.6" height="7"/>
		<rect x="86.3" y="177.7" class="st20" width="15.9" height="7"/>
		<line class="st22" x1="96.9" y1="177.7" x2="96.9" y2="184.8"/>
	</g>
	<g>
		<rect x="134.1" y="156.6" class="st18" width="15.9" height="7"/>
		<rect x="134.1" y="156.6" class="st19" width="10.6" height="7"/>
		<rect x="134.1" y="156.6" class="st20" width="15.9" height="7"/>
		<line class="st22" x1="144.7" y1="156.6" x2="144.7" y2="163.7"/>
	</g>
	<g>
		<rect x="107.9" y="149.8" class="st18" width="15.9" height="7"/>
		<rect x="107.9" y="149.8" class="st19" width="10.6" height="7"/>
		<rect x="107.9" y="149.8" class="st20" width="15.9" height="7"/>
		<line class="st22" x1="118.5" y1="149.8" x2="118.5" y2="156.8"/>
	</g>
	<g>
		<rect x="81" y="165.8" class="st18" width="15.9" height="7"/>
		<rect x="81" y="165.8" class="st19" width="10.6" height="7"/>
		<rect x="81" y="165.8" class="st20" width="15.9" height="7"/>
		<line class="st22" x1="91.6" y1="165.8" x2="91.6" y2="172.9"/>
	</g>
	<g>
		<rect x="102.5" y="162.2" class="st18" width="15.9" height="22.6"/>
		<rect x="102.5" y="162.2" class="st19" width="10.6" height="22.6"/>
		<rect x="102.5" y="162.2" class="st20" width="15.9" height="22.6"/>
		<line class="st23" x1="113.1" y1="162.2" x2="113.1" y2="184.8"/>
	</g>
	<g>
		<rect x="134.1" y="167.4" class="st18" width="15.9" height="17.4"/>
		<rect x="134.1" y="167.4" class="st19" width="10.6" height="17.4"/>
		<rect x="134.1" y="167.4" class="st20" width="15.9" height="17.4"/>
		<line class="st24" x1="144.7" y1="167.4" x2="144.7" y2="184.8"/>
	</g>
	<g>
		<polygon class="st8" points="55.1,235.2 67.4,237.1 86,228.8 73.5,216.8 66.1,210.6 56.9,219.8 		"/>
		<polygon class="st8" points="55.1,235.2 67.4,237.1 86,228.8 82.8,224.5 75.6,218.5 66.1,210.6 68.3,217.6 		"/>
		<polygon class="st25" points="55.1,235.2 67.4,237.1 86,228.8 82.8,224.5 66.1,210.6 56.9,219.8 		"/>
		<polyline class="st25" points="55.1,235.2 68.6,217.3 75.6,218.5 		"/>
		<line class="st25" x1="66.1" y1="210.6" x2="68.6" y2="217.3"/>
	</g>
	<rect x="66.5" y="184.4" class="st26" width="103.7" height="68.7"/>
	<rect x="66.5" y="184.4" class="st20" width="103.7" height="68.7"/>
	<rect x="82.8" y="195.2" class="st20" width="71.3" height="47.2"/>
	<path class="st18" d="M146.6,117.7c-18.4-21.9-51.1-24.8-73.1-6.4s-24.8,51.1-6.4,73.1L146.6,117.7z"/>
	<path class="st19" d="M55.2,155c0,0,21.6-74.4,91.5-37.2c0,0-27.8-33.6-68.4-9.9C51.7,123.4,55.2,155,55.2,155z"/>
	<path class="st20" d="M146.6,117.7c-18.4-21.9-51.1-24.8-73.1-6.4s-24.8,51.1-6.4,73.1L146.6,117.7z"/>
	<path class="st26" d="M131.1,119.4c-12.2-14.6-35.4-15.2-51.9-1.4s-19.8,36.8-7.6,51.3L131.1,119.4z"/>
	<path class="st20" d="M131.1,119.4c-12.2-14.6-35.4-15.2-51.9-1.4s-19.8,36.8-7.6,51.3L131.1,119.4z"/>
	<g>
		<polygon class="st8" points="52.7,214 39.2,223.9 29.3,249.6 52.7,249.1 65.7,247.9 65.7,230.4 		"/>
		<polygon class="st8" points="52.7,214 39.2,223.9 29.3,249.6 36.5,250.6 49.1,249.5 65.7,247.9 56.9,243.5 		"/>
		<polygon class="st9" points="52.7,214 39.2,223.9 29.3,249.6 36.5,250.6 65.7,247.9 65.7,230.4 		"/>
		<polyline class="st9" points="52.7,214 56.9,244 49.1,249.5 		"/>
		<line class="st9" x1="65.7" y1="247.9" x2="56.9" y2="244"/>
	</g>
	<g class="st27">
		<path class="st28" d="M172.8,244.5l9.5-0.2V234c0,0-3.1,1.2-3.6,0.9c-1.6-0.7-2.3-4.3-5.1-1.1C169.8,238,172.8,244.5,172.8,244.5z
			"/>
		<g class="st29">
			<path class="st11" d="M178.1,236.5c0.7,0,0.9-0.7,1.2-1.3c1.2-2.5,1.3-5.2,0-5.6c-3.8-1.1-8.7,7-7.5,12.6"/>
			<path class="st11" d="M181.2,239.9c0.3-0.2,0.5-0.3,0.8-0.5c2.2-1.7,3.4-3.9,2.6-5c-0.8-1.1-3.3-0.6-5.5,1
				c-0.5,0.4-1,0.8-1.4,1.3"/>
			<path class="st11" d="M182.4,242.4c0.2,0,0.4-0.1,0.6-0.1c1.6-0.4,2.7-1.3,2.6-2.1c-0.2-0.8-1.6-1.1-3.2-0.7
				c-0.4,0.1-0.7,0.2-1.1,0.4"/>
		</g>
	</g>
	<path class="st30" d="M64.4,239.3v17.9h18.5C82.9,257.2,84.5,239.3,64.4,239.3z"/>
	<path class="st30" d="M172.6,239.3v17.9h-18.5C154.1,257.2,152.5,239.3,172.6,239.3z"/>
	<path class="st30" d="M64.4,184.9v14.6c0,1.2,1.5,1.8,2.4,1l16-16L64.4,184.9z"/>
	<path class="st30" d="M172.5,184v15c0,1.2-1.5,1.8-2.4,1l-16-16H172.5z"/>
	<line class="st20" x1="112.5" y1="108.7" x2="68.7" y2="131.1"/>
	<line class="st20" x1="64.5" y1="144.5" x2="117.2" y2="131.1"/>
	<line class="st20" x1="97.6" y1="136.4" x2="66.5" y2="161"/>
	<line class="st20" x1="82.8" y1="203.3" x2="154.1" y2="208.1"/>
	<line class="st20" x1="83" y1="220.1" x2="154.1" y2="216.1"/>
	<line class="st20" x1="82.8" y1="227.1" x2="154.1" y2="231.5"/>
	<line class="st20" x1="82.8" y1="242.4" x2="144.5" y2="231"/>
	<polygon class="st31" points="82.8,195.2 82.8,198.5 154.1,203.3 154.1,195.2 	"/>
	<polygon class="st31" points="82.8,203.3 82.4,218.8 154.1,211.1 154.1,208.1 	"/>
	<polygon class="st31" points="96.3,241.1 139.7,231.5 153.3,231.5 154.1,242.4 	"/>
	<polygon class="st31" points="82.8,227.1 139.7,231.5 118.5,235.8 82.8,232.6 	"/>
	<path class="st31" d="M125.2,124.4c0,0-17.5-8.7-34.6-2.3c-15.9,6-28.8,23.5-19,47.3c0,0-11.7-12.2-5.2-33s28.8-30.3,42.8-28.3
		s21.9,11.3,21.9,11.3L125.2,124.4z"/>
	<polygon class="st31" points="66.7,161 97.6,136.4 104.1,134.3 68.7,167.4 	"/>
</g>
<g>
	<g>
		<path class="st32" d="M282.5,215l6.6-13.8c1.9-4,1.8-9.9-0.4-16.1l-7.4-21.2c-2.3-6.7-9.3-10.6-11.7-6.6l-8.3,13.9
			c-2.1,3.5-2,9.2,0.3,15.1l9.1,23.1C273.5,216,280.4,219.4,282.5,215z"/>
		<path class="st33" d="M282.5,215l6.6-13.8c1.9-4,1.8-9.9-0.4-16.1l-7.4-21.2c-2.3-6.7-9.3-10.6-11.7-6.6l-8.3,13.9
			c-2.1,3.5-2,9.2,0.3,15.1l9.1,23.1C273.5,216,280.4,219.4,282.5,215z"/>
	</g>
	<polyline class="st34" points="286.7,181.1 233.2,182.7 233.2,208.1 	"/>
	<polyline class="st34" points="321.8,187.9 338.2,233.4 355.1,224 	"/>
	<g>
		<g>
			<path class="st32" d="M311.4,202.8c0,0-7.1-25.4-8.5-29.4c-0.7-1.4-1.3-2.9-1.6-4.4c-1.5-8.3,3.9-16.3,12.2-17.8
				c6.9-1.3,13.7,2.2,16.8,8.7c0.3,0.7,0.6,1.4,1,2.4c0.4,1.1,0.9,2.5,1.5,4.4c0.9,2.8,2,6.7,3.4,11.6c2.3,8.2,4.6,16.6,4.6,16.6
				L311.4,202.8z M309,179.6c2.7,1.5,6.2,2.3,10.1,1.6C315.5,181.9,312,181.2,309,179.6z"/>
		</g>
		<g>
			<path class="st32" d="M259.6,166.8c0,0,8.7-0.4,17.2-0.7c5.1-0.2,9.1-0.3,12.1-0.3c2,0,3.5,0,4.6,0.1c1,0,1.8,0.1,2.6,0.2
				c8.1,1.1,13.9,7.8,13.5,16c-0.2,4.4-9.6,7.8-15,10.5c-2.2,1.1-2.3,3.8-3,3.7c-3.3-0.1-19.3,0.5-26.8,0.8c-2.1,0.1-3.9-1.6-4-3.7
				L259.6,166.8z"/>
		</g>
		<path class="st32" d="M288.1,182.2c-1,5.9,3,11.1,8.9,12.1l10.2,2.2v0c5.9,1,11.6-3,12.5-9l0.7-4.2c1-5.9-3-11.6-9-12.5l-10.2-1.7
			c-5.9-1-11.6,3-12.5,9L288.1,182.2z"/>
		<g>
			<path class="st33" d="M331,152.2c1.8,1.5,3.3,3.3,4.4,5.6c0.3,0.7,0.6,1.4,1,2.4c0.4,1.1,0.9,2.5,1.5,4.4c0.9,2.8,2,6.7,3.4,11.6
				c2.3,8.2,4.6,16.6,4.6,16.6l-35.5,9.7c0,0-0.1,0.1-1.8-6"/>
		</g>
		<g>
			<path class="st33" d="M291.3,195.8l-24.6,1.2c-6.4,0.4-6-3.2-6-3.2l-2-26.9c0,0,8.7-0.6,17.2-1.2c5.1-0.3,9.1-0.5,12.1-0.6
				c2-0.1,3.5-0.1,4.6-0.1c1,0,1.8,0.1,2.6,0.1c2.5,0.3,4.7,1.1,6.7,2.3"/>
		</g>
		<polyline class="st33" points="308.5,196.4 294.6,192.7 291.3,195.8 		"/>
		<path class="st33" d="M302.8,178c0,0-6,9.9-0.9,16.5"/>
	</g>
	<g>
		<polyline class="st34" points="273.9,109.4 261.6,139.5 218,139.5 		"/>
		<line class="st35" x1="243" y1="139.4" x2="218.1" y2="139.5"/>
	</g>
	<g>
		<path class="st32" d="M249.7,113.1c-3.1-9.3,2-20.1,11.7-23.3c9.7-3.2,20.2,2.3,23.3,11.7C287.8,110.8,252.8,122.5,249.7,113.1z"
			/>
		<path class="st36" d="M249.7,113.1c-3.1-9.3,2-20.1,11.7-23.3c9.7-3.2,20.2,2.3,23.3,11.7C287.8,110.8,252.8,122.5,249.7,113.1z"
			/>
	</g>
	<path class="st4" d="M334.5,195l5.5-1.6l-1.3-4.5l-3.8,1.1c-0.9,0.3-1.5,1.2-1.2,2.2L334.5,195z"/>
	<path class="st4" d="M323.7,198.1l5.5-1.6l-0.8-2.8c-0.3-0.9-1.2-1.5-2.2-1.2l-2.1,0.6c-0.9,0.3-1.5,1.2-1.2,2.2L323.7,198.1z"/>
	<path class="st4" d="M312.8,201.2l5.5-1.6l-0.8-2.8c-0.3-0.9-1.2-1.5-2.2-1.2l-3.8,1.1L312.8,201.2z"/>
	<path class="st4" d="M260,173.4l-0.4-5.7l4.7-0.3l0.3,3.9c0.1,1-0.7,1.8-1.6,1.9L260,173.4z"/>
	<path class="st4" d="M260.7,185.6l-0.4-5.7l3-0.2c1-0.1,1.8,0.7,1.9,1.6l0.2,2.2c0.1,1-0.7,1.8-1.6,1.9L260.7,185.6z"/>
	<path class="st4" d="M261.8,196.5l-0.4-5.7l3-0.2c1-0.1,1.8,0.7,1.9,1.6l0.3,3.9L261.8,196.5z"/>
	<g>
		<path class="st32" d="M379.5,199.3l-21.9,9.4l6.1,11.4c-14,7.7-4.3,18.4-4.3,18.4l10.4-4.8l7.3,1.7c3.4,0.8,6.3,3.2,7.7,6.4
			l1.6,3.6c1.2,1.5,3.3,2.2,5.4,1.9l5.7-0.9l-2-17.9L379.5,199.3z"/>
		<path class="st37" d="M379.5,199.3l-21.9,9.4l6.1,11.4c-2.6,1.4-4.4,3-5.6,4.6c-5.1,6.8,1.3,13.8,1.3,13.8l10.4-4.8l7.3,1.7
			c3.4,0.8,6.3,3.2,7.7,6.4l1.6,3.6c1.2,1.5,3.3,2.2,5.4,1.9l5.7-0.9l-2-17.9L379.5,199.3z"/>
		<g>
			<path class="st4" d="M401.9,244.6l-2.1-13.6c-0.4-2.6-1.4-5.1-2.9-7.3c-4.9-7.2-16.1-23.5-16.3-23.7c-1.4-1.7-2.2-2.5-4.2-2.2
				l0,0c-2.5,0.4-3.7,3.2-2.2,5.3l15.2,21.8c1.5,2.2,2.5,4.7,2.9,7.4l2.1,13.6c0.3,1.8,2.2,2.9,4.3,2.6
				C400.7,248.1,402.2,246.4,401.9,244.6z"/>
		</g>
		<path class="st38" d="M351.6,211.7l5.5,10.5c1.8,3.4,6,4.7,9.5,2.9l0,0l-8.8-16.7c-0.9-1.7-3-2.4-4.7-1.5l0,0
			C351.4,207.9,350.7,210,351.6,211.7z"/>
		<polyline class="st37" points="367.2,224.7 370.6,223.2 377.3,225.5 378.8,235.4 		"/>
		<path class="st37" d="M385.5,243.4c0,0-3.6-6.8-2.1-12.8v0"/>
		<line class="st37" x1="367.8" y1="224.8" x2="369.2" y2="234"/>
	</g>
	<g>
		<path class="st32" d="M357.2,202.4l-0.7-15.8c-0.2-4.6-3.2-9.9-8.2-14.5l-17-15.7c-5.4-5-13.6-5.2-13.9-0.3l-0.8,16.7
			c-0.2,4.3,2.7,9.3,7.6,13.6l19.5,16.6C349.5,207.7,357.4,207.4,357.2,202.4z"/>
		<path class="st33" d="M357.2,202.4l-0.7-15.8c-0.2-4.6-3.2-9.9-8.2-14.5l-17-15.7c-5.4-5-13.6-5.2-13.9-0.3l-0.8,16.7
			c-0.2,4.3,2.7,9.3,7.6,13.6l19.5,16.6C349.5,207.7,357.4,207.4,357.2,202.4z"/>
	</g>
	<g>
		<path class="st32" d="M299.5,179.5c2.6,0.1,5.3-0.1,8.2-0.6c20.3-3.4,25.3-23.6,25.5-24.5c0.6-2.6-1-5.2-3.6-5.8
			c-2.6-0.6-5.1,1-5.8,3.6c-0.2,0.6-3.8,14.9-17.8,17.3c-16.9,2.9-24.7-8.2-26.8-11.7c-1.3-2.3-4.3-3.1-6.6-1.7
			c-2.3,1.3-3.1,4.3-1.7,6.6C275.9,171,285.7,179,299.5,179.5z"/>
	</g>
	<g>
		<path class="st33" d="M299.5,179.5c2.6,0.1,5.3-0.1,8.2-0.6c20.3-3.4,25.3-23.6,25.5-24.5c0.6-2.6-1-5.2-3.6-5.8
			c-2.6-0.6-5.1,1-5.8,3.6c-0.2,0.6-3.8,14.9-17.8,17.3c-16.9,2.9-24.7-8.2-26.8-11.7c-1.3-2.3-4.3-3.1-6.6-1.7
			c-2.3,1.3-3.1,4.3-1.7,6.6C275.9,171,285.7,179,299.5,179.5z"/>
	</g>
	<g>
		<path class="st32" d="M258.7,125L258.7,125c-3.4-10.6,1.7-21.8,11.5-24.9l34.5-11.1c9.7-3.1,20.4,3,23.8,13.6v0
			c0.9,2.8,4.9,15.3,6.2,19.3c2.5,7.9,2.7,15.9,0.9,23.2c-0.7,3-1.8,5.8-3.1,8.5c-4.2,8.5-11.5,15.2-20.8,18.2
			c-9.3,3-19.1,1.8-27.5-2.7c-2.6-1.4-5.1-3.1-7.4-5.1c-5.7-4.9-10.2-11.6-12.7-19.4C262.7,140.1,259.4,127.3,258.7,125z"/>
		<path class="st33" d="M258.9,124.9L258.9,124.9c-3.4-10.6,1.7-21.8,11.5-24.9l34.5-11.1c9.7-3.1,20.4,3,23.8,13.6l0,0
			c0.9,2.8,4.9,15.3,6.2,19.3c2.5,7.9,2.7,15.9,0.9,23.2c-0.7,3-1.8,5.8-3.1,8.5c-4.2,8.5-11.5,15.2-20.8,18.2
			c-9.3,3-19.1,1.8-27.5-2.7c-2.6-1.4-5.1-3.1-7.4-5.1c-5.7-4.9-10.2-11.6-12.7-19.4C262.9,140,259.7,127.3,258.9,124.9z"/>
	</g>
	<g>
		<path class="st32" d="M269.4,86.9l34.4-3.5c3.9-0.4,6.8-3.9,6.4-7.8l-4.3-43.1l-48.6,4.9l4.3,43.1C262,84.4,265.5,87.3,269.4,86.9
			z"/>
		
			<rect x="258.8" y="44.2" transform="matrix(0.9978 -6.583891e-02 6.583891e-02 0.9978 -2.5537 18.754)" class="st39" width="48.8" height="7.9"/>
		<path class="st33" d="M268.5,86.3l34.5-2.3c3.9-0.3,6.9-3.7,6.7-7.6l-2.8-43.2L258,36.5l2.8,43.2
			C261.1,83.6,264.5,86.6,268.5,86.3z"/>
		
			<rect x="276.8" y="60.3" transform="matrix(-0.9978 6.583891e-02 -6.583891e-02 -0.9978 568.0303 126.6299)" class="st4" width="10.3" height="24.7"/>
		<line class="st40" x1="309.6" y1="50.3" x2="257.4" y2="53.8"/>
		<line class="st40" x1="309.1" y1="42.5" x2="256.9" y2="45.9"/>
		<line class="st41" x1="294.3" y1="59.5" x2="268.1" y2="61.2"/>
	</g>
	<path class="st32" d="M270.2,100.2L270.2,100.2c11.6,13.6,33.6,9.5,39.6-7.4l0,0L309,89c-0.4-2.4-2.7-3.9-5.1-3.5l-31,5.8
		c-2.4,0.4-3.9,2.7-3.5,5.1L270.2,100.2z"/>
	<path class="st42" d="M269.2,100.4L269.2,100.4c11.6,13.6,33.6,9.5,39.6-7.4l0,0l-0.7-3.9c-0.4-2.4-2.7-3.9-5.1-3.5l-31,5.8
		c-2.4,0.4-3.9,2.7-3.5,5.1L269.2,100.4z"/>
	<path class="st4" d="M275.9,95.9l0.2,0.1c9,3.6,19.2,1.6,26.3-5v0l-0.6-6.8l-27.5,3L275.9,95.9z"/>
	<path class="st42" d="M275.2,96.2c9,3.6,23,1.2,27.9-7.1"/>
	<path class="st42" d="M307.8,172.6c0,0-17.7,2.7-22.2-26.8v0l-3.5-23.3l-0.8-7c-0.4-3.2,1.7-6.1,4.8-6.7l0,0"/>
	<g>
		<polyline class="st34" points="330.6,104.7 344.4,144.6 303.1,139.4 		"/>
		<line class="st35" x1="330.3" y1="142.6" x2="303.4" y2="139.6"/>
	</g>
	<g>
		<path class="st32" d="M347.9,107.5c0.6-9.8-7.2-18.9-17.3-19.5c-10.2-0.6-18.9,7.5-19.5,17.3C310.6,115.2,347.4,117.3,347.9,107.5
			z"/>
		<path class="st36" d="M347.9,107.5c0.6-9.8-7.2-18.9-17.3-19.5c-10.2-0.6-18.9,7.5-19.5,17.3C310.6,115.2,347.4,117.3,347.9,107.5
			z"/>
	</g>
	<g>
		<polygon class="st43" points="227.1,221.9 220.7,229.9 211.3,229.9 219.3,221.4 		"/>
		<path class="st32" d="M246.6,243.3l-0.5-26.5l-15.7,0.3l-0.1-3.1l-11.2-0.2l0.1,7.5h0c-2.8,4.9-7.4,8.4-12.8,9.9l-7.2,2
			c-1.6,1-2.6,3-2.6,5.1l0.1,5.8L246.6,243.3z"/>
		<path class="st44" d="M246.6,243.3l-0.5-26.5l-15.7,0.3l-0.1-3.1l-11.2-0.2l0.1,7.5h0c-2.8,4.9-7.4,8.4-12.8,9.9l-7.2,2
			c-1.6,1-2.6,3-2.6,5.1l0.1,5.8L246.6,243.3z"/>
		<path class="st45" d="M245.9,209.8l-11.9,0.2c-3.9,0.1-7,3.3-6.9,7.2v0l19-0.3c1.9,0,3.5-1.6,3.5-3.6l0,0
			C249.4,211.4,247.8,209.8,245.9,209.8z"/>
		<g>
			<path class="st4" d="M198.2,248.8l47.3-0.9c1.8,0,3.2-1.8,3.2-3.9c0-2.1-1.5-3.8-3.3-3.8l-47.3,0.9c-1.8,0-3.2,1.8-3.2,3.9
				C194.9,247.2,196.4,248.9,198.2,248.8z"/>
		</g>
		<polyline class="st46" points="210.3,230.1 220.7,229.9 227.1,221.9 227,217.2 		"/>
		<line class="st46" x1="227.1" y1="221.9" x2="219.6" y2="222"/>
		<line class="st47" x1="223.7" y1="226.1" x2="215.9" y2="226.2"/>
	</g>
	<path class="st48" d="M300.7,108.7c0,0,5.2,5.2,5.4,9.8c0.2,4.5,0,6.5,3.5,7.5c1.2,0.4-1.9-1.1-4.2-0.8c-4,0.6-10.3,3.7-10.3,3.7
		L300.7,108.7z"/>
	<g>
		<g>
			<g>
				<g>
					
						<rect x="288.8" y="123.4" transform="matrix(-1 -3.223619e-03 3.223619e-03 -1 585.5239 275.4385)" class="st49" width="8.4" height="27.7"/>
					
						<rect x="288.8" y="123.4" transform="matrix(-1 -3.223619e-03 3.223619e-03 -1 585.5239 275.4385)" class="st50" width="8.4" height="27.7"/>
					<line class="st51" x1="297.2" y1="126.4" x2="287.9" y2="135.7"/>
					<line class="st51" x1="295.9" y1="122.9" x2="285.8" y2="133"/>
					<line class="st51" x1="297.2" y1="131.5" x2="287.4" y2="140.9"/>
					<line class="st51" x1="297.1" y1="145.2" x2="291.3" y2="151.1"/>
					<line class="st51" x1="297.2" y1="140.5" x2="287.3" y2="150.3"/>
				</g>
				<g>
					<g>
						<g>
							<path class="st49" d="M293,296.6c-4.4-5.4-7.7-11.8-9.4-18.5c-0.9-3.7-1.4-7.5-1.5-11.3c0-0.2,0-0.3,0-0.4l0.3-108.2
								l21.9,0.1l-0.3,108C304,277.4,300.1,288.1,293,296.6z"/>
							<path class="st4" d="M283.5,159.2l19.9,0.1l-0.1,30.6l0,0l0,0.6l-0.1,33.2l0,4.7l0,14l-0.1,23.9c0,10.5-3.6,20.6-10.1,28.7
								c-4-5.1-6.8-11-8.4-17.2c-0.9-3.6-1.4-7.3-1.4-11l0,0l0,0c0-0.1,0-0.2,0-0.3l0-0.2l0-4.1l0.1-33.2L283.5,159.2 M281.5,157.2
								l0,0.2l-0.2,71.5l-0.1,33.2l0,4.1c0,0.2,0,0.4,0,0.6c0,3.9,0.5,7.8,1.5,11.5c1.8,7.3,5.4,14,10.3,19.8
								c7.7-8.8,12-20.1,12.1-31.8l0.1-23.9l0-14l0-4.7l0.1-33.2l0,0l0.1-31.4l0-1.5l0-0.2L281.5,157.2L281.5,157.2z"/>
						</g>
					</g>
					<path class="st4" d="M293,298.1l0.1-36.5l0-14l0-4.7l0.1-33.2l0.2-50.7l11.9,0l0,0l-0.1,31.4l0,0l-0.1,33.2l0,4.7l0,14
						l-0.1,23.9C305,278,300.7,289.3,293,298.1z"/>
				</g>
				<g>
					<g>
						<path class="st49" d="M277.8,158.4c-0.9,0-1.7-0.3-2.3-0.9c-0.6-0.6-0.9-1.4-0.9-2.3c0-1.8,1.4-3.2,3.2-3.2l29.5,0.1
							c1.8,0,3.2,1.4,3.2,3.2c0,1.8-1.4,3.2-3.2,3.2C307.4,158.5,277.8,158.4,277.8,158.4z"/>
						<path class="st4" d="M277.9,153C277.9,153,277.9,153,277.9,153l29.5,0.1c1.2,0,2.2,1,2.2,2.2c0,1.2-1,2.2-2.2,2.2c0,0,0,0,0,0
							l-29.5-0.1c-1.2,0-2.2-1-2.2-2.2C275.7,154,276.6,153,277.9,153 M277.9,151c-2.3,0-4.2,1.9-4.2,4.2c0,1.1,0.4,2.2,1.2,3
							c0.8,0.8,1.8,1.2,3,1.2l29.5,0.1c2.3,0,4.2-1.9,4.2-4.2c0-1.1-0.4-2.2-1.2-3s-1.8-1.2-3-1.2L277.9,151L277.9,151L277.9,151
							L277.9,151z"/>
					</g>
				</g>
				<g>
					<circle class="st52" cx="293.1" cy="114.9" r="8.5"/>
					<line class="st53" x1="293.1" y1="106.5" x2="293" y2="123.4"/>
					<line class="st53" x1="301.5" y1="115" x2="284.6" y2="114.9"/>
					<g>
						<path class="st39" d="M293,119.4c-1.2,0-2.3-0.5-3.2-1.3c-0.8-0.9-1.3-2-1.3-3.2c0-2.5,2-4.5,4.5-4.5c1.2,0,2.3,0.5,3.2,1.3
							c0.8,0.9,1.3,2,1.3,3.2C297.5,117.4,295.5,119.4,293,119.4L293,119.4z"/>
						<path class="st4" d="M293.1,109.4l0,2c1.9,0,3.5,1.6,3.5,3.5c0,1.9-1.6,3.5-3.5,3.5c-1.9,0-3.5-1.6-3.5-3.5
							c0-1.9,1.6-3.5,3.5-3.5V109.4 M293.1,109.4c-3,0-5.5,2.4-5.5,5.5c0,3,2.4,5.5,5.5,5.5c0,0,0,0,0,0c3,0,5.5-2.4,5.5-5.5
							C298.6,111.9,296.1,109.5,293.1,109.4C293.1,109.4,293.1,109.4,293.1,109.4L293.1,109.4z"/>
					</g>
					<path class="st54" d="M292.9,117.3c1.3,0,2.4-1.1,2.4-2.4c0-0.3-0.1-0.7-0.2-1"/>
				</g>
			</g>
		</g>
	</g>
	<path class="st55" d="M280.6,281.7c0,0,0-3.5,9.2-3.5s14.4,1.2,14.3,0.9c-0.1-0.2,0.6,7.5,0.6,8.2s-4.2,10.6-4.9,11.3
		s-12-0.7-12-0.7s-6.4-8.5-6.4-9.9S280.6,281.7,280.6,281.7z"/>
	<g>
		<circle class="st56" cx="301.9" cy="138.4" r="11.8"/>
		<g>
			<path class="st57" d="M299.6,143.6c1.5,0.9,2.4,2.2,2.5,3.7c0.1,2.9-3.5,5.4-8,5.6c-4.5,0.1-8.2-2.2-8.3-5.1
				c0-1.5,0.8-2.8,2.3-3.8"/>
			<path class="st57" d="M287.9,135.8c-1.5,0.9-2.5,2.1-2.6,3.6c-0.1,1.5,0.7,2.8,2.1,3.9c1.4,1.1,3.4,1.8,5.7,1.9
				c2.2,0.1,4.3-0.3,5.8-1.2c1.5-0.9,2.5-2.1,2.6-3.6c0.1-1.5-0.7-2.8-2.1-3.9"/>
			<g>
				<path class="st57" d="M287.1,131.3c-0.4,2.9,1.7,5.7,7.3,6.5c4.4,0.7,8.4-1.2,8.8-4.1c0.4-2.6-0.6-4.1-4.3-5.1
					c-0.2-0.1-4.3-1-7-0.7C288.9,128.2,287.3,129.8,287.1,131.3z"/>
				<path class="st58" d="M294.1,152.9"/>
				<path class="st58" d="M295.8,127.2c-0.5-0.1-1.1-0.1-1.5-0.2c-3.8-0.1-7,1.6-7.4,4.2c-0.2,1.3,0.3,2.5,1.3,3.6
					c0,0,0.6,0.7-0.3,0.9c-1.5,0.9-2.5,2.1-2.6,3.6c-0.1,1.5,0.7,2.8,2.1,3.9c0.3,0.2,0.6,0.4,0.9,0.6l-0.2,0
					c-1.4,1-2.3,2.4-2.3,3.8c0.1,2.9,4.1,7.3,12.8,4.1"/>
			</g>
		</g>
		
			<ellipse transform="matrix(0.9999 -1.612598e-02 1.612598e-02 0.9999 -2.068 4.8663)" class="st57" cx="300.7" cy="130.7" rx="4.1" ry="8.5"/>
		<path class="st59" d="M304.7,125.5c-1.4-2.3-3-2.9-5.1-2.5c-1.9,0.4-3.2,2.2-3.8,4.6"/>
	</g>
	<circle class="st32" cx="215.4" cy="137.8" r="10.6"/>
	<path class="st32" d="M220.1,136.3h4.7v-16c0-1.5-1.2-2.8-2.8-2.8l0,0c-3.6,0-6.5,2.9-6.5,6.5v7.6
		C215.4,134.2,217.5,136.3,220.1,136.3z"/>
	<path class="st9" d="M215.4,125.9v-2c0-3.6,2.9-6.5,6.5-6.5h0c1.5,0,2.8,1.2,2.8,2.8v16"/>
	<g>
		<g>
			<path class="st57" d="M203.6,143.6c-1.2,1-1.9,2.2-1.8,3.5c0.2,2.6,3.7,4.5,7.6,4.1c4-0.3,7-2.8,6.8-5.4c-0.1-1.3-1-2.4-2.4-3.2"
				/>
			<path class="st60" d="M203.6,143.6c-1.2,1-1.9,2.2-1.8,3.5c0.2,2.6,3.7,4.5,7.6,4.1c4-0.3,7-2.8,6.8-5.4c-0.1-1.3-1-2.4-2.4-3.2"
				/>
		</g>
		<g>
			<path class="st57" d="M213.3,136.4c1.3,0.9,2.1,2.1,2.1,3.4c0,1.3-0.8,2.5-2.1,3.4c-1.3,0.9-3.1,1.4-5.1,1.4
				c-2,0-3.8-0.5-5.1-1.4c-1.3-0.9-2.1-2.1-2.1-3.4c0-1.3,0.8-2.5,2.1-3.4"/>
			<path class="st60" d="M213.3,136.4c1.3,0.9,2.1,2.1,2.1,3.4c0,1.3-0.8,2.5-2.1,3.4c-1.3,0.9-3.1,1.4-5.1,1.4
				c-2,0-3.8-0.5-5.1-1.4c-1.3-0.9-2.1-2.1-2.1-3.4c0-1.3,0.8-2.5,2.1-3.4"/>
		</g>
		<g>
			<path class="st57" d="M202,132.4c-0.2,2.6,2.8,5,6.8,5.4s7.4-1.5,7.6-4.1c0.2-2.3-0.7-3.6-4.1-4.3c-0.2,0-3.9-0.6-6.3-0.2
				C203.5,129.6,202.1,131.1,202,132.4z"/>
			<path class="st9" d="M209.6,128.3c-0.4,0-1-0.1-1.4-0.1c-3.4,0.1-6.2,1.8-6.4,4.2c-0.2,2.6,2.8,5,6.8,5.4c4,0.3,7.4-1.5,7.6-4.1
				c0.1-1.3-0.5-2.5-1.7-3.5"/>
		</g>
	</g>
	<path class="st60" d="M214.6,142.6c1.1,2.7,4.2,3.9,6.9,2.8"/>
</g>
<g class="st61">
	<g>
		<path class="st18" d="M126.4,144.8v6.7h-2.3v-5H123v-1.7H126.4z"/>
		<path class="st18" d="M136.7,151.2c-0.5-0.3-0.8-0.7-1.1-1.2c-0.3-0.5-0.4-1.2-0.4-1.9c0-0.7,0.1-1.4,0.4-1.9
			c0.3-0.5,0.6-0.9,1.1-1.2c0.5-0.3,1-0.4,1.6-0.4c0.6,0,1.1,0.1,1.6,0.4c0.5,0.3,0.8,0.7,1.1,1.2c0.3,0.5,0.4,1.2,0.4,1.9
			c0,0.7-0.1,1.4-0.4,1.9c-0.3,0.5-0.6,0.9-1.1,1.2c-0.5,0.3-1,0.4-1.6,0.4C137.7,151.6,137.2,151.5,136.7,151.2z M139.1,148.1
			c0-1.1-0.3-1.7-0.8-1.7s-0.8,0.6-0.8,1.7c0,1.1,0.3,1.7,0.8,1.7S139.1,149.3,139.1,148.1z"/>
		<path class="st18" d="M124.4,164.6c-0.5-0.3-0.8-0.7-1.1-1.2c-0.3-0.5-0.4-1.2-0.4-1.9c0-0.7,0.1-1.4,0.4-1.9
			c0.3-0.5,0.6-0.9,1.1-1.2c0.5-0.3,1-0.4,1.6-0.4c0.6,0,1.1,0.1,1.6,0.4c0.5,0.3,0.8,0.7,1.1,1.2c0.3,0.5,0.4,1.2,0.4,1.9
			c0,0.7-0.1,1.4-0.4,1.9c-0.3,0.5-0.6,0.9-1.1,1.2c-0.5,0.3-1,0.4-1.6,0.4C125.4,165,124.9,164.8,124.4,164.6z M126.8,161.5
			c0-1.1-0.3-1.7-0.8-1.7s-0.8,0.6-0.8,1.7c0,1.1,0.3,1.7,0.8,1.7S126.8,162.6,126.8,161.5z"/>
		<path class="st18" d="M153,144.8v6.7h-2.3v-5h-1.1v-1.7H153z"/>
		<path class="st18" d="M163.3,151.2c-0.5-0.3-0.8-0.7-1.1-1.2c-0.3-0.5-0.4-1.2-0.4-1.9c0-0.7,0.1-1.4,0.4-1.9
			c0.3-0.5,0.6-0.9,1.1-1.2c0.5-0.3,1-0.4,1.6-0.4c0.6,0,1.1,0.1,1.6,0.4c0.5,0.3,0.8,0.7,1.1,1.2c0.3,0.5,0.4,1.2,0.4,1.9
			c0,0.7-0.1,1.4-0.4,1.9c-0.3,0.5-0.6,0.9-1.1,1.2c-0.5,0.3-1,0.4-1.6,0.4C164.3,151.6,163.8,151.5,163.3,151.2z M165.7,148.1
			c0-1.1-0.3-1.7-0.8-1.7c-0.5,0-0.8,0.6-0.8,1.7c0,1.1,0.3,1.7,0.8,1.7C165.4,149.8,165.7,149.3,165.7,148.1z"/>
		<path class="st18" d="M179.6,144.8v6.7h-2.3v-5h-1.1v-1.7H179.6z"/>
		<path class="st18" d="M189.9,151.2c-0.5-0.3-0.8-0.7-1.1-1.2c-0.3-0.5-0.4-1.2-0.4-1.9c0-0.7,0.1-1.4,0.4-1.9
			c0.3-0.5,0.6-0.9,1.1-1.2c0.5-0.3,1-0.4,1.6-0.4c0.6,0,1.1,0.1,1.6,0.4c0.5,0.3,0.8,0.7,1.1,1.2c0.3,0.5,0.4,1.2,0.4,1.9
			c0,0.7-0.1,1.4-0.4,1.9c-0.3,0.5-0.6,0.9-1.1,1.2c-0.5,0.3-1,0.4-1.6,0.4C190.9,151.6,190.4,151.5,189.9,151.2z M192.3,148.1
			c0-1.1-0.3-1.7-0.8-1.7c-0.5,0-0.8,0.6-0.8,1.7c0,1.1,0.3,1.7,0.8,1.7C192,149.8,192.3,149.3,192.3,148.1z"/>
		<path class="st18" d="M206.2,144.8v6.7h-2.3v-5h-1.1v-1.7H206.2z"/>
	</g>
	<g>
		<path class="st18" d="M153,117.6v6.7h-2.3v-5h-1.1v-1.7H153z"/>
		<path class="st18" d="M163.3,124c-0.5-0.3-0.8-0.7-1.1-1.2c-0.3-0.5-0.4-1.2-0.4-1.9c0-0.7,0.1-1.4,0.4-1.9
			c0.3-0.5,0.6-0.9,1.1-1.2c0.5-0.3,1-0.4,1.6-0.4c0.6,0,1.1,0.1,1.6,0.4c0.5,0.3,0.8,0.7,1.1,1.2c0.3,0.5,0.4,1.2,0.4,1.9
			c0,0.7-0.1,1.4-0.4,1.9c-0.3,0.5-0.6,0.9-1.1,1.2c-0.5,0.3-1,0.4-1.6,0.4C164.3,124.4,163.8,124.3,163.3,124z M165.7,120.9
			c0-1.1-0.3-1.7-0.8-1.7c-0.5,0-0.8,0.6-0.8,1.7c0,1.1,0.3,1.7,0.8,1.7C165.4,122.6,165.7,122.1,165.7,120.9z"/>
		<path class="st18" d="M179.6,117.6v6.7h-2.3v-5h-1.1v-1.7H179.6z"/>
		<path class="st18" d="M189.9,124c-0.5-0.3-0.8-0.7-1.1-1.2c-0.3-0.5-0.4-1.2-0.4-1.9c0-0.7,0.1-1.4,0.4-1.9
			c0.3-0.5,0.6-0.9,1.1-1.2c0.5-0.3,1-0.4,1.6-0.4c0.6,0,1.1,0.1,1.6,0.4c0.5,0.3,0.8,0.7,1.1,1.2c0.3,0.5,0.4,1.2,0.4,1.9
			c0,0.7-0.1,1.4-0.4,1.9c-0.3,0.5-0.6,0.9-1.1,1.2c-0.5,0.3-1,0.4-1.6,0.4C190.9,124.4,190.4,124.3,189.9,124z M192.3,120.9
			c0-1.1-0.3-1.7-0.8-1.7c-0.5,0-0.8,0.6-0.8,1.7c0,1.1,0.3,1.7,0.8,1.7C192,122.6,192.3,122.1,192.3,120.9z"/>
		<path class="st18" d="M206.2,117.6v6.7h-2.3v-5h-1.1v-1.7H206.2z"/>
	</g>
	<g>
		<path class="st18" d="M179.6,92.9v6.7h-2.3v-5h-1.1v-1.7H179.6z"/>
		<path class="st18" d="M189.9,99.3c-0.5-0.3-0.8-0.7-1.1-1.2c-0.3-0.5-0.4-1.2-0.4-1.9c0-0.7,0.1-1.4,0.4-1.9
			c0.3-0.5,0.6-0.9,1.1-1.2c0.5-0.3,1-0.4,1.6-0.4c0.6,0,1.1,0.1,1.6,0.4c0.5,0.3,0.8,0.7,1.1,1.2c0.3,0.5,0.4,1.2,0.4,1.9
			c0,0.7-0.1,1.4-0.4,1.9c-0.3,0.5-0.6,0.9-1.1,1.2c-0.5,0.3-1,0.4-1.6,0.4C190.9,99.7,190.4,99.6,189.9,99.3z M192.3,96.2
			c0-1.1-0.3-1.7-0.8-1.7c-0.5,0-0.8,0.6-0.8,1.7c0,1.1,0.3,1.7,0.8,1.7C192,97.9,192.3,97.4,192.3,96.2z"/>
	</g>
	<g>
		<path class="st18" d="M126.4,171v6.7h-2.3v-5H123V171H126.4z"/>
		<path class="st18" d="M179.6,171v6.7h-2.3v-5h-1.1V171H179.6z"/>
		<path class="st18" d="M189.9,177.4c-0.5-0.3-0.8-0.7-1.1-1.2c-0.3-0.5-0.4-1.2-0.4-1.9c0-0.7,0.1-1.4,0.4-1.9
			c0.3-0.5,0.6-0.9,1.1-1.2c0.5-0.3,1-0.4,1.6-0.4c0.6,0,1.1,0.1,1.6,0.4c0.5,0.3,0.8,0.7,1.1,1.2c0.3,0.5,0.4,1.2,0.4,1.9
			c0,0.7-0.1,1.4-0.4,1.9c-0.3,0.5-0.6,0.9-1.1,1.2c-0.5,0.3-1,0.4-1.6,0.4C190.9,177.8,190.4,177.7,189.9,177.4z M192.3,174.3
			c0-1.1-0.3-1.7-0.8-1.7c-0.5,0-0.8,0.6-0.8,1.7c0,1.1,0.3,1.7,0.8,1.7C192,176,192.3,175.5,192.3,174.3z"/>
		<path class="st18" d="M206.2,171v6.7h-2.3v-5h-1.1V171H206.2z"/>
		<path class="st18" d="M216.5,177.4c-0.5-0.3-0.8-0.7-1.1-1.2c-0.3-0.5-0.4-1.2-0.4-1.9c0-0.7,0.1-1.4,0.4-1.9
			c0.3-0.5,0.6-0.9,1.1-1.2c0.5-0.3,1-0.4,1.6-0.4c0.6,0,1.1,0.1,1.6,0.4c0.5,0.3,0.8,0.7,1.1,1.2c0.3,0.5,0.4,1.2,0.4,1.9
			c0,0.7-0.1,1.4-0.4,1.9c-0.3,0.5-0.6,0.9-1.1,1.2c-0.5,0.3-1,0.4-1.6,0.4C217.5,177.8,217,177.7,216.5,177.4z M218.9,174.3
			c0-1.1-0.3-1.7-0.8-1.7s-0.8,0.6-0.8,1.7c0,1.1,0.3,1.7,0.8,1.7S218.9,175.5,218.9,174.3z"/>
	</g>
	<g>
		<path class="st18" d="M206.2,197v6.7h-2.3v-5h-1.1V197H206.2z"/>
	</g>
	<g>
		<path class="st18" d="M139.7,158.1v6.7h-2.3v-5h-1.1v-1.7H139.7z"/>
		<path class="st18" d="M150.1,164.6c-0.5-0.3-0.8-0.7-1.1-1.2c-0.3-0.5-0.4-1.2-0.4-1.9c0-0.7,0.1-1.4,0.4-1.9
			c0.3-0.5,0.6-0.9,1.1-1.2c0.5-0.3,1-0.4,1.6-0.4c0.6,0,1.1,0.1,1.6,0.4c0.5,0.3,0.8,0.7,1.1,1.2c0.3,0.5,0.4,1.2,0.4,1.9
			c0,0.7-0.1,1.4-0.4,1.9c-0.3,0.5-0.6,0.9-1.1,1.2c-0.5,0.3-1,0.4-1.6,0.4C151,165,150.5,164.8,150.1,164.6z M152.4,161.5
			c0-1.1-0.3-1.7-0.8-1.7c-0.5,0-0.8,0.6-0.8,1.7c0,1.1,0.3,1.7,0.8,1.7C152.1,163.2,152.4,162.6,152.4,161.5z"/>
		<path class="st18" d="M166.3,158.1v6.7h-2.3v-5h-1.1v-1.7H166.3z"/>
		<path class="st18" d="M176.7,164.6c-0.5-0.3-0.8-0.7-1.1-1.2c-0.3-0.5-0.4-1.2-0.4-1.9c0-0.7,0.1-1.4,0.4-1.9
			c0.3-0.5,0.6-0.9,1.1-1.2c0.5-0.3,1-0.4,1.6-0.4c0.6,0,1.1,0.1,1.6,0.4c0.5,0.3,0.8,0.7,1.1,1.2c0.3,0.5,0.4,1.2,0.4,1.9
			c0,0.7-0.1,1.4-0.4,1.9c-0.3,0.5-0.6,0.9-1.1,1.2c-0.5,0.3-1,0.4-1.6,0.4C177.6,165,177.1,164.8,176.7,164.6z M179,161.5
			c0-1.1-0.3-1.7-0.8-1.7c-0.5,0-0.8,0.6-0.8,1.7c0,1.1,0.3,1.7,0.8,1.7C178.7,163.2,179,162.6,179,161.5z"/>
		<path class="st18" d="M192.9,158.1v6.7h-2.3v-5h-1.1v-1.7H192.9z"/>
		<path class="st18" d="M203.3,164.6c-0.5-0.3-0.8-0.7-1.1-1.2c-0.3-0.5-0.4-1.2-0.4-1.9c0-0.7,0.1-1.4,0.4-1.9
			c0.3-0.5,0.6-0.9,1.1-1.2c0.5-0.3,1-0.4,1.6-0.4c0.6,0,1.1,0.1,1.6,0.4c0.5,0.3,0.8,0.7,1.1,1.2c0.3,0.5,0.4,1.2,0.4,1.9
			c0,0.7-0.1,1.4-0.4,1.9c-0.3,0.5-0.6,0.9-1.1,1.2c-0.5,0.3-1,0.4-1.6,0.4C204.2,165,203.7,164.8,203.3,164.6z M205.6,161.5
			c0-1.1-0.3-1.7-0.8-1.7c-0.5,0-0.8,0.6-0.8,1.7c0,1.1,0.3,1.7,0.8,1.7C205.3,163.2,205.6,162.6,205.6,161.5z"/>
		<path class="st18" d="M219.5,158.1v6.7h-2.3v-5h-1.1v-1.7H219.5z"/>
		<path class="st18" d="M229.9,164.6c-0.5-0.3-0.8-0.7-1.1-1.2c-0.3-0.5-0.4-1.2-0.4-1.9c0-0.7,0.1-1.4,0.4-1.9
			c0.3-0.5,0.6-0.9,1.1-1.2c0.5-0.3,1-0.4,1.6-0.4c0.6,0,1.1,0.1,1.6,0.4c0.5,0.3,0.8,0.7,1.1,1.2c0.3,0.5,0.4,1.2,0.4,1.9
			c0,0.7-0.1,1.4-0.4,1.9c-0.3,0.5-0.6,0.9-1.1,1.2c-0.5,0.3-1,0.4-1.6,0.4C230.8,165,230.3,164.8,229.9,164.6z M232.2,161.5
			c0-1.1-0.3-1.7-0.8-1.7c-0.5,0-0.8,0.6-0.8,1.7c0,1.1,0.3,1.7,0.8,1.7C231.9,163.2,232.2,162.6,232.2,161.5z"/>
	</g>
	<g>
		<path class="st18" d="M139.7,131.8v6.7h-2.3v-5h-1.1v-1.7H139.7z"/>
		<path class="st18" d="M150.1,138.2c-0.5-0.3-0.8-0.7-1.1-1.2c-0.3-0.5-0.4-1.2-0.4-1.9c0-0.7,0.1-1.4,0.4-1.9
			c0.3-0.5,0.6-0.9,1.1-1.2c0.5-0.3,1-0.4,1.6-0.4c0.6,0,1.1,0.1,1.6,0.4c0.5,0.3,0.8,0.7,1.1,1.2c0.3,0.5,0.4,1.2,0.4,1.9
			c0,0.7-0.1,1.4-0.4,1.9c-0.3,0.5-0.6,0.9-1.1,1.2c-0.5,0.3-1,0.4-1.6,0.4C151,138.6,150.5,138.5,150.1,138.2z M152.4,135.1
			c0-1.1-0.3-1.7-0.8-1.7c-0.5,0-0.8,0.6-0.8,1.7c0,1.1,0.3,1.7,0.8,1.7C152.1,136.8,152.4,136.2,152.4,135.1z"/>
		<path class="st18" d="M166.3,131.8v6.7h-2.3v-5h-1.1v-1.7H166.3z"/>
		<path class="st18" d="M176.7,138.2c-0.5-0.3-0.8-0.7-1.1-1.2c-0.3-0.5-0.4-1.2-0.4-1.9c0-0.7,0.1-1.4,0.4-1.9
			c0.3-0.5,0.6-0.9,1.1-1.2c0.5-0.3,1-0.4,1.6-0.4c0.6,0,1.1,0.1,1.6,0.4c0.5,0.3,0.8,0.7,1.1,1.2c0.3,0.5,0.4,1.2,0.4,1.9
			c0,0.7-0.1,1.4-0.4,1.9c-0.3,0.5-0.6,0.9-1.1,1.2c-0.5,0.3-1,0.4-1.6,0.4C177.6,138.6,177.1,138.5,176.7,138.2z M179,135.1
			c0-1.1-0.3-1.7-0.8-1.7c-0.5,0-0.8,0.6-0.8,1.7c0,1.1,0.3,1.7,0.8,1.7C178.7,136.8,179,136.2,179,135.1z"/>
		<path class="st18" d="M192.9,131.8v6.7h-2.3v-5h-1.1v-1.7H192.9z"/>
		<path class="st18" d="M203.3,138.2c-0.5-0.3-0.8-0.7-1.1-1.2c-0.3-0.5-0.4-1.2-0.4-1.9c0-0.7,0.1-1.4,0.4-1.9
			c0.3-0.5,0.6-0.9,1.1-1.2c0.5-0.3,1-0.4,1.6-0.4c0.6,0,1.1,0.1,1.6,0.4c0.5,0.3,0.8,0.7,1.1,1.2c0.3,0.5,0.4,1.2,0.4,1.9
			c0,0.7-0.1,1.4-0.4,1.9c-0.3,0.5-0.6,0.9-1.1,1.2c-0.5,0.3-1,0.4-1.6,0.4C204.2,138.6,203.7,138.5,203.3,138.2z M205.6,135.1
			c0-1.1-0.3-1.7-0.8-1.7c-0.5,0-0.8,0.6-0.8,1.7c0,1.1,0.3,1.7,0.8,1.7C205.3,136.8,205.6,136.2,205.6,135.1z"/>
	</g>
	<g>
		<path class="st18" d="M166.3,104.9v6.7h-2.3v-5h-1.1v-1.7H166.3z"/>
		<path class="st18" d="M176.7,111.3c-0.5-0.3-0.8-0.7-1.1-1.2c-0.3-0.5-0.4-1.2-0.4-1.9c0-0.7,0.1-1.4,0.4-1.9
			c0.3-0.5,0.6-0.9,1.1-1.2c0.5-0.3,1-0.4,1.6-0.4c0.6,0,1.1,0.1,1.6,0.4c0.5,0.3,0.8,0.7,1.1,1.2c0.3,0.5,0.4,1.2,0.4,1.9
			c0,0.7-0.1,1.4-0.4,1.9c-0.3,0.5-0.6,0.9-1.1,1.2c-0.5,0.3-1,0.4-1.6,0.4C177.6,111.7,177.1,111.6,176.7,111.3z M179,108.2
			c0-1.1-0.3-1.7-0.8-1.7c-0.5,0-0.8,0.6-0.8,1.7c0,1.1,0.3,1.7,0.8,1.7C178.7,109.9,179,109.4,179,108.2z"/>
		<path class="st18" d="M192.9,104.9v6.7h-2.3v-5h-1.1v-1.7H192.9z"/>
		<path class="st18" d="M203.3,111.3c-0.5-0.3-0.8-0.7-1.1-1.2c-0.3-0.5-0.4-1.2-0.4-1.9c0-0.7,0.1-1.4,0.4-1.9
			c0.3-0.5,0.6-0.9,1.1-1.2c0.5-0.3,1-0.4,1.6-0.4c0.6,0,1.1,0.1,1.6,0.4c0.5,0.3,0.8,0.7,1.1,1.2c0.3,0.5,0.4,1.2,0.4,1.9
			c0,0.7-0.1,1.4-0.4,1.9c-0.3,0.5-0.6,0.9-1.1,1.2c-0.5,0.3-1,0.4-1.6,0.4C204.2,111.7,203.7,111.6,203.3,111.3z M205.6,108.2
			c0-1.1-0.3-1.7-0.8-1.7c-0.5,0-0.8,0.6-0.8,1.7c0,1.1,0.3,1.7,0.8,1.7C205.3,109.9,205.6,109.4,205.6,108.2z"/>
		<path class="st18" d="M219.5,104.9v6.7h-2.3v-5h-1.1v-1.7H219.5z"/>
	</g>
	<g>
		<path class="st18" d="M176.7,190.7c-0.5-0.3-0.8-0.7-1.1-1.2c-0.3-0.5-0.4-1.2-0.4-1.9c0-0.7,0.1-1.4,0.4-1.9
			c0.3-0.5,0.6-0.9,1.1-1.2c0.5-0.3,1-0.4,1.6-0.4c0.6,0,1.1,0.1,1.6,0.4c0.5,0.3,0.8,0.7,1.1,1.2c0.3,0.5,0.4,1.2,0.4,1.9
			c0,0.7-0.1,1.4-0.4,1.9c-0.3,0.5-0.6,0.9-1.1,1.2c-0.5,0.3-1,0.4-1.6,0.4C177.6,191.1,177.1,191,176.7,190.7z M179,187.6
			c0-1.1-0.3-1.7-0.8-1.7c-0.5,0-0.8,0.6-0.8,1.7c0,1.1,0.3,1.7,0.8,1.7C178.7,189.3,179,188.8,179,187.6z"/>
		<path class="st18" d="M192.9,184.3v6.7h-2.3v-5h-1.1v-1.7H192.9z"/>
		<path class="st18" d="M203.3,190.7c-0.5-0.3-0.8-0.7-1.1-1.2c-0.3-0.5-0.4-1.2-0.4-1.9c0-0.7,0.1-1.4,0.4-1.9
			c0.3-0.5,0.6-0.9,1.1-1.2c0.5-0.3,1-0.4,1.6-0.4c0.6,0,1.1,0.1,1.6,0.4c0.5,0.3,0.8,0.7,1.1,1.2c0.3,0.5,0.4,1.2,0.4,1.9
			c0,0.7-0.1,1.4-0.4,1.9c-0.3,0.5-0.6,0.9-1.1,1.2c-0.5,0.3-1,0.4-1.6,0.4C204.2,191.1,203.7,191,203.3,190.7z M205.6,187.6
			c0-1.1-0.3-1.7-0.8-1.7c-0.5,0-0.8,0.6-0.8,1.7c0,1.1,0.3,1.7,0.8,1.7C205.3,189.3,205.6,188.8,205.6,187.6z"/>
	</g>
</g>
<g>
	<path class="st48" d="M314.9,96.9c0,0,16.5-2.3,21.6,17.2c0,0,10.7-0.3,11.4-6.5c0.6-6.2-5.3-19.5-17.3-19.5
		C318.6,88.1,316,93.6,314.9,96.9z"/>
	<path class="st48" d="M314.9,96.9c0,0-3.1-2.5-7-1.7c0,0-5.2,8.9-9.2,10.1c-4,1.2,4.4-6.4,1.1-11.9c-1.9-3.1-1.6-7.3,3.2-7.7
		c1.5-0.1,3.3,1.2,5.5,1.8c3.4,1,7.5,1.8,10.6,3.4L314.9,96.9z"/>
	<path class="st48" d="M314.1,127.2c0,0,9.5-0.1,15.4,12.4c6,12.6-14.4,14.3-5.8,16c8.5,1.7,18.5,2.5,22.1-2.3
		C349.5,148.5,352.9,123,314.1,127.2z"/>
	<path class="st48" d="M214.6,130.2c0,0,4.2-1.6,5,3.2c0.8,4.8-2.6,7.1-0.9,9.7c1.7,2.6,0.8,10-2.2,10.2c-3,0.2-4.9-2.5-4.9-2.5
		s6.7-2.9,2.8-7.7c0,0,2.1-3.2,0.2-5.5C214.6,137.6,217.6,133.3,214.6,130.2z"/>
	<path class="st48" d="M328.8,159.6l2.7-1l8.6,5.9c0,0,16.1,14.3,16.4,22.1c0.3,7.8,2.1,17.6-0.4,18.6s-5.7,3.2-12.3-2.4
		c-6.5-5.5-18.1-4.1-18.1-4.1s-9.8,3.6-9.9,2.8c0-0.7-6.6-4.3-3.8-11.8c2.8-7.5-0.7-11.5-0.7-11.5s6.2-6.2,0.4-6.6
		C311.7,171.7,322.6,168.5,328.8,159.6z"/>
	<path class="st48" d="M275.2,196.6c-2.9,0.2-2.4,8.5,1.3,17.2l0.7,2.6l5.8,0.4l-1-20.5L275.2,196.6z"/>
	<path class="st48" d="M208.1,243.4c0,0,10.4-2,22.7-13.7c12.3-11.7,15.4-7.9,15.4-7.9l0.4,20.5L208.1,243.4z"/>
	<path class="st48" d="M296.8,152.8c0,0,5,2.5,0,5l13.4,0.9C310.2,158.7,318.8,151.3,296.8,152.8z"/>
	<path class="st48" d="M356.6,207.1l1.7,1.9l16.6-7.7l20,26.1l4.3,20.2h-9.5c0,0-2.5-1.2-4.2-4.1c-1.7-2.9-4.1-7.2-6.9-7.4
		c-2.8-0.2-8.8-2.2-8.8-2.2l-10.1,4.6c0,0-7-7.2-0.6-14.1l-7.2-13.7C351.8,210.7,351.5,205.8,356.6,207.1z"/>
</g>
<path class="st2" d="M308.8,281.7H277v-9.9h21.9C304.4,271.8,308.8,276.2,308.8,281.7L308.8,281.7z"/>
<path class="st2" d="M274.2,283.1c0,0,8.4-0.7,19.1-1.4c0,0,8.5,1.4,23.3,0.7s-18.3-5.7-18.3-5.7l-24.7,4.2L274.2,283.1z"/>
<line class="st46" x1="279.8" y1="272.2" x2="304" y2="272.5"/>
<g>
	<path class="st2" d="M252.6,249.5l-9.5-0.2v-10.3c0,0,3.1,1.2,3.6,0.9c1.6-0.7,2.3-4.3,5.1-1.1
		C255.7,242.9,252.6,249.5,252.6,249.5z"/>
	<g>
		<path class="st12" d="M247.4,241.4c-0.7,0-0.9-0.7-1.2-1.3c-1.2-2.5-1.3-5.2,0-5.6c3.8-1.1,8.7,7,7.5,12.6"/>
		<path class="st12" d="M244.2,244.8c-0.3-0.2-0.5-0.3-0.8-0.5c-2.2-1.7-3.4-3.9-2.6-5c0.8-1.1,3.3-0.6,5.5,1c0.5,0.4,1,0.8,1.4,1.3
			"/>
		<path class="st12" d="M243.1,247.3c-0.2,0-0.4-0.1-0.6-0.1c-1.6-0.4-2.7-1.3-2.6-2.1s1.6-1.1,3.2-0.7c0.4,0.1,0.7,0.2,1.1,0.4"/>
	</g>
</g>
<g>
	<g>
		<path class="st9" d="M430,248.3c0,0,3-22.1-9.7-38.7c-3.1-4.1-7-7.5-10.9-10.3"/>
		<ellipse transform="matrix(0.3041 -0.9526 0.9526 0.3041 79.4744 558.819)" class="st12" cx="422.2" cy="225" rx="1.8" ry="6.4"/>
		
			<ellipse transform="matrix(0.2199 -0.9755 0.9755 0.2199 119.7894 591.3823)" class="st12" cx="429.7" cy="220.8" rx="5.6" ry="1.2"/>
		<circle class="st62" cx="400.6" cy="190" r="3.3"/>
		<circle class="st62" cx="405.7" cy="191.4" r="4.3"/>
		<circle class="st62" cx="399.4" cy="204.6" r="4.3"/>
		<circle class="st62" cx="394.6" cy="201.1" r="3.3"/>
		<circle class="st62" cx="393.3" cy="196.7" r="3.3"/>
		<circle class="st62" cx="399.2" cy="197.3" r="4.9"/>
		<circle class="st62" cx="405.7" cy="197.6" r="4.9"/>
		<circle class="st62" cx="413.2" cy="202.3" r="4.3"/>
		<circle class="st62" cx="410.7" cy="196" r="4.3"/>
		<circle class="st62" cx="406.8" cy="204.4" r="4.3"/>
		<polyline class="st9" points="400.9,204.6 402.1,205.4 401.2,206.5 		"/>
		<polyline class="st9" points="415.8,194.4 414.6,193.7 415.3,192.5 		"/>
		<polyline class="st9" points="397.3,192.3 396.2,193.2 395.3,192.1 		"/>
		<polyline class="st9" points="397.9,186.4 397.9,187.9 396.5,187.8 		"/>
		<polyline class="st9" points="390.3,199.1 391.4,200 390.5,201 		"/>
		<polyline class="st9" points="400.4,194.1 401.1,195.3 400,196 		"/>
	</g>
	<g class="st27">
		<path class="st63" d="M434.8,219.7c0,0-5.1,7.4-4.9,14.5c0.1,4.3,0.1,14.1,0.1,14.1"/>
		<g class="st29">
			
				<ellipse transform="matrix(0.8266 -0.5628 0.5628 0.8266 -54.6398 283.7872)" class="st12" cx="433.2" cy="230.6" rx="3.8" ry="0.8"/>
			<circle class="st62" cx="433.8" cy="210.7" r="2.2"/>
			<circle class="st62" cx="433" cy="214.2" r="2.9"/>
			<circle class="st62" cx="442.1" cy="216.1" r="2.9"/>
			<circle class="st62" cx="443.2" cy="212.2" r="2.2"/>
			<circle class="st62" cx="438.6" cy="210.9" r="3.3"/>
			<circle class="st62" cx="436.2" cy="214.5" r="3.3"/>
			<circle class="st62" cx="434" cy="218.6" r="2.9"/>
			<circle class="st62" cx="438.9" cy="218.9" r="2.9"/>
			<polyline class="st9" points="440.5,215.6 440.6,216.5 441.5,216.4 			"/>
			<polyline class="st9" points="438.5,207 439.1,207.7 439.8,207.1 			"/>
			<polyline class="st9" points="432.7,208 433.6,208.5 434,207.7 			"/>
			<polyline class="st9" points="444.6,209.7 444.8,210.7 445.7,210.5 			"/>
			<polyline class="st9" points="438,210.5 438,211.5 439,211.4 			"/>
		</g>
	</g>
</g>
<g>
	<path class="st2" d="M431.2,247c0,0.9-0.6,1.6-0.6,1.6l0,0c-2.5,1.5-11.2,1.4-13-0.1l0,0c0,0-0.2-0.3-0.2-1.1
		c0-2.3,3.7-4.1,6.5-4.1C426.6,243.4,431.2,244.6,431.2,247z"/>
	<path class="st12" d="M417.7,248.3c-0.3-0.4-1.4-1.1-2.5-3.1c-1-2-1.1-4,0-4.3c2.1-0.5,4.1,1.7,5.2,4.4"/>
	<path class="st12" d="M420.3,245c-0.2-0.5-0.3-1.1-0.3-1.7c-0.1-2.6,0.9-4.9,2.4-4.8c2.6,0.3,3.6,3.5,3.3,6.9"/>
	<path class="st12" d="M430.6,248.3c1.5-1.9,1.8-3.2,2.1-3.9c1.1-2.9,0.8-5.8-0.9-6c-3-0.4-5.1,3.2-6,7.2"/>
</g>
<ellipse class="st3" cx="85.2" cy="261.2" rx="20.1" ry="3.9"/>
<g>
	<polygon class="st8" points="94.1,236.8 104.4,243.9 108.9,255.4 108.6,266 76.2,263.7 82.8,246.6 	"/>
	<polygon class="st5" points="108.6,266 119,260.1 113.6,244.7 96.3,237.4 104.6,244.3 108.9,255.4 	"/>
	<polygon class="st9" points="94.3,236.6 113.6,244.7 119,260.1 108.6,266 76.2,263.7 82.8,246.6 	"/>
	<polyline class="st9" points="108.6,266 108.9,255.4 104.4,243.9 94.3,236.6 	"/>
</g>
<g>
	<path class="st2" d="M284.6,274l-9.4,1.3V265c0,0,3.1,1.2,3.6,0.9c1.6-0.7,2.3-4.3,5.1-1.1c2.6,2.9,0.7,6.4,0.2,6.7
		C282.8,272.2,284.6,274,284.6,274z"/>
	<g>
		<path class="st12" d="M280,266.4c0.4-0.5,0.7-1,1-1.6c1.2-2.5,1.3-5.2,0-5.6c-3.8-1.1-7.5,7.2-6.3,12.8"/>
		<path class="st12" d="M283.7,269.5c0.3-0.2,0.5-0.3,0.8-0.5c2.2-1.7,3.4-3.9,2.6-5s-3.3-0.6-5.5,1c-0.5,0.4-1,0.8-1.4,1.3"/>
		<path class="st12" d="M284.9,272c0.2,0,0.4-0.1,0.6-0.1c1.6-0.4,2.7-1.3,2.6-2.1c-0.2-0.8-1.6-1.1-3.2-0.7
			c-0.4,0.1-0.7,0.2-1.1,0.4"/>
	</g>
</g>
</svg>
