<?xml version="1.0" encoding="utf-8"?>
<!-- Generator: Adobe Illustrator 23.0.2, SVG Export Plug-In . SVG Version: 6.00 Build 0)  -->
<svg version="1.1" id="Layer_1" xmlns="http://www.w3.org/2000/svg" xmlns:xlink="http://www.w3.org/1999/xlink" x="0px" y="0px"
	 viewBox="0 0 460 345" style="enable-background:new 0 0 460 345;" xml:space="preserve">
<style type="text/css">
	.st0{fill:none;stroke:#1B0C59;stroke-width:33.4774;stroke-linecap:round;stroke-linejoin:round;stroke-miterlimit:10;}
	.st1{fill:#2AC6EA;}
	.st2{fill:none;stroke:#1B0C59;stroke-width:2.0373;stroke-linecap:round;stroke-linejoin:round;stroke-miterlimit:10;}
	.st3{fill:#2AC6EA;stroke:#1B0C59;stroke-width:2.2122;stroke-linecap:round;stroke-linejoin:round;stroke-miterlimit:10;}
	.st4{fill:#1B0C59;}
	.st5{fill:none;stroke:#1B0C59;stroke-width:2.2122;stroke-linecap:round;stroke-linejoin:round;stroke-miterlimit:10;}
	.st6{fill:none;stroke:#1B0C59;stroke-width:2.5554;stroke-linecap:round;stroke-linejoin:round;stroke-miterlimit:10;}
	.st7{fill:none;stroke:#1B0C59;stroke-width:2.7435;stroke-linecap:round;stroke-linejoin:round;stroke-miterlimit:10;}
	.st8{opacity:0.25;fill:#1B0C59;}
	.st9{fill:none;stroke:#1B0C59;stroke-width:2.7294;stroke-linecap:round;stroke-linejoin:round;stroke-miterlimit:10;}
	.st10{fill:none;stroke:#1B0C59;stroke-width:2.1837;stroke-linecap:round;stroke-linejoin:round;stroke-miterlimit:10;}
	.st11{fill:none;stroke:#2AC6EA;stroke-width:28.6949;stroke-linecap:round;stroke-linejoin:round;stroke-miterlimit:10;}
	.st12{fill:none;stroke:#191059;stroke-width:2.2229;stroke-linecap:round;stroke-linejoin:round;stroke-miterlimit:10;}
	.st13{fill:#EB586F;}
	.st14{fill:none;stroke:#1B0C59;stroke-width:2.2022;stroke-linecap:round;stroke-linejoin:round;stroke-miterlimit:10;}
	.st15{fill:none;stroke:#1B0C59;stroke-width:8.1557;stroke-linecap:round;stroke-linejoin:round;stroke-miterlimit:10;}
	.st16{fill:#D8E9F0;}
	.st17{fill:none;stroke:#1B0C59;stroke-width:2.1429;stroke-miterlimit:10;}
	.st18{fill:none;stroke:#1B0C59;stroke-width:2.1429;stroke-linecap:round;stroke-miterlimit:10;}
	.st19{fill:#D8E9F0;stroke:#1B0C59;stroke-width:2.1429;stroke-miterlimit:10;}
	.st20{fill:#EB586F;stroke:#1B0C59;stroke-width:2.1429;stroke-miterlimit:10;}
	.st21{fill:none;stroke:#FFFFFF;stroke-width:0.9246;stroke-linecap:round;stroke-linejoin:round;stroke-miterlimit:10;}
	.st22{fill:#2AC6EA;stroke:#1B0C59;stroke-width:2.1392;stroke-linecap:round;stroke-linejoin:round;stroke-miterlimit:10;}
	.st23{fill:#2AC6EA;stroke:#1B0C59;stroke-width:1.7245;stroke-linecap:round;stroke-linejoin:round;stroke-miterlimit:10;}
	.st24{fill:#24C7EA;}
	.st25{fill:none;stroke:#191059;stroke-width:1.6018;stroke-linecap:round;stroke-linejoin:round;stroke-miterlimit:10;}
	.st26{fill:none;stroke:#191059;stroke-width:2.7138;stroke-linecap:round;stroke-linejoin:round;stroke-miterlimit:10;}
	.st27{opacity:0.25;}
</style>
<polyline class="st0" points="224,133.7 255.4,147.9 214.5,181.9 "/>
<path class="st1" d="M176.1,187.7l25-14.8l8.7,14.8l2.9-1.7l6.6,10.4l-7.1,4.2v0c-3,5.4-3.7,11.7-1.9,17.6l2.3,7.8
	c0,2.1-1.3,4.2-3.3,5.4l-5.5,3.3L176.1,187.7z"/>
<path class="st2" d="M176.1,187.7l25-14.8l8.7,14.8l2.9-1.7l6.6,10.4l-7.1,4.2v0c-3,5.4-3.7,11.7-1.9,17.6l2.3,7.8
	c0,2.1-1.3,4.2-3.3,5.4l-5.5,3.3L176.1,187.7z"/>
<path class="st3" d="M207.9,169.2l6.6,11.3c2.2,3.7,0.9,8.4-2.7,10.6l0,0l-10.6-17.9c-1.1-1.8-0.5-4.2,1.4-5.3v0
	C204.4,166.7,206.8,167.4,207.9,169.2z"/>
<g>
	<path class="st4" d="M198.8,236.1l-26.3-44.7c-1-1.7-0.2-4,1.8-5.2c2-1.2,4.4-0.8,5.4,0.9l26.3,44.7c1,1.7,0.2,4-1.8,5.2
		C202.2,238.3,199.8,237.8,198.8,236.1z"/>
</g>
<polyline class="st5" points="209.4,214.1 203.6,204.2 207.4,193.6 211.8,191.1 "/>
<line class="st5" x1="211.6" y1="200.7" x2="207.4" y2="193.6"/>
<line class="st0" x1="175.5" y1="153.8" x2="192.5" y2="232.8"/>
<g>
	<path class="st1" d="M160.5,169.6c0,0-1.8-10.7-3-19.9c-0.7-5.5-1.3-9.9-1.6-13.2c-0.2-2.1-0.4-3.8-0.4-5.1c-0.1-1.1-0.1-2,0-2.8
		c0.3-7.9,5.6-14.4,13.1-16.1c9-2.1,18,3.6,20.1,12.6c0.4,1.7,0.5,3.5,0.4,5.2c0.3,4.4,1.3,2.3,4.3,19.3c0.5,3,2.2,7,2.7,11.3
		L160.5,169.6z"/>
</g>
<g>
	<path class="st1" d="M230.1,148.9c-0.8,2.2-3.1,3.4-5.3,2.6c-7.7-2.6-24.5-8.3-27.9-9.2c-2.7-0.3-5.5-1.3-8-3.1
		c-5.5-3.9-8.2-11-6.5-17.6c2.2-8.8,10.5-13.9,19.3-12.6c0.8,0.1,1.7,0.3,2.8,0.6c1.2,0.3,2.8,0.8,4.9,1.4c3.1,1,7.3,2.3,12.6,4.1
		c8.8,3,17.9,6.1,17.9,6.1L230.1,148.9z M206.2,140.5c3.1-1.5,5.9-4.1,7.7-8.1C212.3,136.1,209.5,138.9,206.2,140.5z"/>
</g>
<path class="st1" d="M208.9,133.1c1.6,6.4-2.3,12.4-8.7,14l-11,3.3l0,0c-6.4,1.6-12.9-2.3-14.5-8.7l-1.2-4.6
	c-1.6-6.4,2.3-12.9,8.7-14.5l10.9-2.8c6.4-1.6,12.9,2.3,14.5,8.7L208.9,133.1z"/>
<g>
	<path class="st6" d="M192.3,148.8l3.7,12.1l-34.8,7.3c0,0-1.9-10.4-3.3-19.6c-0.8-5.5-1.5-9.8-1.9-13c-0.3-2.1-0.5-3.8-0.6-5
		c-0.1-1.1-0.1-2-0.1-2.8c0-2.7,0.5-5.1,1.5-7.3"/>
</g>
<g>
	<path class="st7" d="M193.6,110.7c2.4-0.8,5-1,7.7-0.7c0.8,0.1,1.7,0.3,2.8,0.5c1.2,0.3,2.8,0.7,4.9,1.3c3.1,0.9,7.4,2.2,12.7,3.8
		c8.9,2.8,18,5.7,18,5.7l-9.1,28.2c0,0-0.6,3.9-7.3,1.8l-6.7-2"/>
</g>
<line class="st7" x1="192.4" y1="148.2" x2="204.7" y2="147.4"/>
<path class="st7" d="M192.5,129.9c0,0,8,9.8,3,17.5"/>
<g>
	<path class="st4" d="M168.2,166.7l-6.8,1.6l-1.2-5.4l4.7-1.1c1.1-0.3,2.3,0.4,2.5,1.6L168.2,166.7z"/>
	<path class="st4" d="M181.6,163.6l-6.8,1.6l-0.8-3.4c-0.3-1.1,0.4-2.3,1.6-2.5l2.7-0.6c1.1-0.3,2.3,0.4,2.5,1.6L181.6,163.6z"/>
	<path class="st4" d="M194.9,160.5l-6.8,1.6l-0.8-3.4c-0.3-1.1,0.4-2.3,1.6-2.5l4.7-1.1L194.9,160.5z"/>
</g>
<g>
	<path class="st1" d="M142,164l-4.9-16.6c-1.4-4.9-0.2-11.4,3.3-18l12.1-22.4c3.8-7.1,12.3-10.2,14.3-5.3l6.8,17
		c1.7,4.3,0.6,10.6-3.1,16.8l-14.3,24.1C151.9,166.7,143.5,169.2,142,164z"/>
	<path class="st7" d="M142,164l-4.9-16.6c-1.4-4.9-0.2-11.4,3.3-18l12.1-22.4c3.8-7.1,12.3-10.2,14.3-5.3l6.8,17
		c1.7,4.3,0.6,10.6-3.1,16.8l-14.3,24.1C151.9,166.7,143.5,169.2,142,164z"/>
</g>
<g>
	<path class="st1" d="M267.1,122l-14-9.2c-4.1-2.7-10.5-3.5-17.6-2l-24.1,4.8c-7.7,1.5-13,8.5-8.9,11.7l13.8,11.1
		c3.5,2.8,9.7,3.5,16.4,1.9l26.4-6.4C266.8,131.9,271.5,124.9,267.1,122z"/>
	<path class="st8" d="M267.1,122l-14-9.2c-4.1-2.7-10.5-3.5-17.6-2l-24.1,4.8c-7.7,1.5-13,8.5-8.9,11.7l13.8,11.1
		c3.5,2.8,9.7,3.5,16.4,1.9l26.4-6.4C266.8,131.9,271.5,124.9,267.1,122z"/>
	<path class="st7" d="M267.1,122l-14-9.2c-4.1-2.7-10.5-3.5-17.6-2l-24.1,4.8c-7.7,1.5-13,8.5-8.9,11.7l13.8,11.1
		c3.5,2.8,9.7,3.5,16.4,1.9l26.4-6.4C266.8,131.9,271.5,124.9,267.1,122z"/>
</g>
<g>
	<path class="st1" d="M193.4,137.7c-2.8,0.5-5.8,0.7-9,0.7c-22.6-0.5-31.2-21.6-31.5-22.5c-1.1-2.7,0.3-5.8,3-6.8
		c2.7-1.1,5.7,0.3,6.8,2.9c0.3,0.7,6.5,15.6,22,15.9c18.7,0.4,25.5-12.8,27.2-16.9c1.1-2.7,4.1-4,6.8-2.9c2.7,1.1,4,4.2,2.9,6.8
		C217.6,124.7,208.3,135,193.4,137.7z"/>
	<path class="st7" d="M192.5,138c-2.8,0.4-5.8,0.4-9,0.2c-22.5-1.7-30-23.3-30.3-24.2c-0.9-2.8,0.6-5.7,3.3-6.7
		c2.7-0.9,5.7,0.6,6.7,3.3c0.2,0.7,5.7,15.9,21.1,17.1c18.7,1.4,26.2-11.5,28-15.4c1.2-2.6,4.4-3.8,7-2.5c2.6,1.2,3.8,4.4,2.5,7
		C217.4,126.3,207.6,136,192.5,138z"/>
</g>
<g>
	<path class="st1" d="M234.9,113.2L234.9,113.2c10.1-6.7,13.4-19.7,7.2-29l-21.8-33.3c-6.2-9.4-19.4-11.6-29.5-5l0,0
		c-2.7,1.8-14.6,9.6-18.4,12c-7.5,4.9-13.2,11.6-16.6,19c-1.4,3-2.5,6.1-3.1,9.3c-2.2,10.1-0.6,20.8,5.3,29.8
		c5.9,9,15,14.7,25.2,16.7c3.2,0.6,6.5,0.9,9.8,0.8c8.2-0.2,16.5-2.7,24.1-7.7C221.1,123.3,232.6,114.7,234.9,113.2z"/>
	<path class="st9" d="M235.1,111.9L235.1,111.9c10.1-6.7,13.4-19.7,7.2-29l-21.8-33.3c-6.2-9.4-19.4-11.6-29.5-5l0,0
		c-2.7,1.8-14.6,9.6-18.4,12c-7.5,4.9-13.2,11.6-16.6,19c-1.4,3-2.5,6.1-3.1,9.3c-2.2,10.1-0.6,20.8,5.3,29.8
		c5.9,9,15,14.7,25.2,16.7c3.2,0.6,6.5,0.9,9.8,0.8c8.2-0.2,16.5-2.7,24.1-7.7C221.4,122,232.8,113.4,235.1,111.9z"/>
</g>
<path class="st10" d="M231.4,76.6c0,0-4.2,46.7-55.1,52"/>
<line class="st0" x1="237.2" y1="84.3" x2="231.4" y2="148.5"/>
<line class="st11" x1="228.3" y1="164.2" x2="230.3" y2="147.9"/>
<g>
	<path class="st1" d="M255.7,83.6c3.3-10.3-2.5-22-13.1-25.4c-10.6-3.4-22.1,2.8-25.4,13.1S252.4,93.9,255.7,83.6z"/>
	<path class="st8" d="M255.7,83.6c3.3-10.3-2.5-22-13.1-25.4c-10.6-3.4-22.1,2.8-25.4,13.1S252.4,93.9,255.7,83.6z"/>
	<path class="st12" d="M255.7,83.6c3.3-10.3-2.5-22-13.1-25.4c-10.6-3.4-22.1,2.8-25.4,13.1S252.4,93.9,255.7,83.6z"/>
</g>
<path class="st1" d="M230.4,77.2l-37.7-4c-4.3-0.5-7.4-4.3-7-8.6l5-47.2L244,23l-5,47.2C238.6,74.5,234.7,77.7,230.4,77.2z"/>
<rect x="211.1" y="7.9" transform="matrix(7.039917e-02 -0.9975 0.9975 7.039917e-02 165.6599 247.0882)" class="st13" width="8.6" height="53.6"/>
<path class="st7" d="M231.4,76.6L193.6,74c-4.3-0.3-7.6-4.1-7.3-8.4l3.3-47.3l53.4,3.8l-3.3,47.3C239.5,73.7,235.7,77,231.4,76.6z"
	/>
<rect x="211.1" y="47.3" transform="matrix(0.9965 8.324342e-02 -8.324342e-02 0.9965 5.8153 -17.8337)" class="st4" width="11.3" height="27"/>
<line class="st14" x1="186.5" y1="36.1" x2="243.8" y2="40.2"/>
<line class="st14" x1="187.1" y1="27.3" x2="244.4" y2="31.4"/>
<path class="st15" d="M202.4,49.4c0,0,8.9,1.5,15.9,2.1s12.8,0.2,12.8,0.2"/>
<g>
	<g>
		
			<rect x="236.5" y="168.1" transform="matrix(0.8188 -0.574 0.574 0.8188 -61.3524 171.4827)" class="st16" width="9" height="29.8"/>
		
			<rect x="236.5" y="168.1" transform="matrix(0.8188 -0.574 0.574 0.8188 -61.3524 171.4827)" class="st17" width="9" height="29.8"/>
		<line class="st18" x1="230.6" y1="175.9" x2="244.5" y2="178.5"/>
		<line class="st18" x1="229.6" y1="172.1" x2="244.8" y2="174.7"/>
		<line class="st18" x1="233.7" y1="180.4" x2="248.2" y2="182.8"/>
		<line class="st18" x1="242.2" y1="192.5" x2="251" y2="194.1"/>
		<line class="st18" x1="239.3" y1="188.4" x2="254" y2="191"/>
	</g>
	<g>
		<g>
			<g>
				<path class="st16" d="M346.4,335c-11.5-3.1-21.5-10.2-28.4-20l-22.2-32.3l-32.3-46l0,0l-19.7-28.1l19.3-13.5l43.7,62.3
					l27.9,40.5l2.6,3.8c0.1,0.1,0.2,0.2,0.2,0.3c2.3,3.4,4.2,7.1,5.7,10.9C345.9,319.9,347,327.5,346.4,335z"/>
				<path class="st4" d="M262.9,196.5l43.1,61.4l27.9,40.6l2.5,3.6l0.1,0.2c0.1,0.1,0.1,0.2,0.2,0.3l0,0l0,0
					c2.3,3.3,4.1,6.9,5.5,10.6c2.4,6.5,3.5,13.4,3.1,20.3c-10.7-3.2-20.1-10-26.5-19.2L296.7,282l-8.6-12.3l-2.9-4.2l-20.5-29.3
					l-0.3-0.5l-18.9-27L262.9,196.5 M263.4,193.5l-21.1,14.8l0.1,0.2l1,1.4l19.4,27.7l0,0l20.5,29.3l2.9,4.2l8.6,12.3l22.2,32.4
					c7.2,10.3,18,17.7,30.2,20.7c0.9-8.1-0.2-16.3-3-23.8c-1.5-3.9-3.4-7.6-5.8-11.1c-0.1-0.2-0.2-0.4-0.4-0.5l-2.5-3.6l-27.9-40.6
					l-44.2-63L263.4,193.5L263.4,193.5z"/>
			</g>
		</g>
		<path class="st4" d="M347.3,336.3l-22.6-32.2l-16-23.6l-2.9-4.2l-20.5-29.3L254,202.5l-10.5,7.4l0,0l19.4,27.7l0,0l20.5,29.3
			l2.9,4.2l8.6,12.3l22.2,32.4C324.3,326,335.1,333.3,347.3,336.3z"/>
	</g>
	<g>
		<g>
			<path class="st16" d="M239.4,211.2c-1.1,0-2.2-0.5-2.8-1.5c-0.5-0.8-0.7-1.7-0.6-2.6c0.2-0.9,0.7-1.7,1.4-2.2l26-18.2
				c0.6-0.4,1.3-0.6,2-0.6c1.1,0,2.2,0.5,2.8,1.5c1.1,1.6,0.7,3.7-0.8,4.8l-26,18.2C240.8,211,240.1,211.2,239.4,211.2z"/>
			<path class="st4" d="M265.4,187.2c0.7,0,1.5,0.4,1.9,1c0.8,1.1,0.5,2.5-0.6,3.3l-26,18.2c-0.4,0.3-0.9,0.4-1.4,0.4
				c-0.7,0-1.5-0.4-1.9-1c-0.8-1.1-0.5-2.5,0.6-3.3l26-18.2C264.5,187.3,265,187.2,265.4,187.2 M265.4,185L265.4,185
				c-0.9,0-1.8,0.3-2.6,0.8l-26,18.2c-2,1.4-2.5,4.2-1.1,6.3c0.8,1.2,2.2,1.9,3.7,1.9c0.9,0,1.8-0.3,2.6-0.8l26-18.2
				c1-0.7,1.6-1.7,1.9-2.9c0.2-1.2-0.1-2.4-0.7-3.4C268.3,185.7,266.9,185,265.4,185L265.4,185z"/>
		</g>
	</g>
	<g>
		<circle class="st19" cx="227.2" cy="163.3" r="9.1"/>
		<line class="st20" x1="222" y1="155.8" x2="232.5" y2="170.8"/>
		<line class="st20" x1="219.7" y1="168.5" x2="234.7" y2="158"/>
		<g>
			<path class="st13" d="M227.2,168.1c-1.6,0-3.1-0.8-4-2.1c-1.5-2.2-1-5.2,1.2-6.7c0.8-0.6,1.8-0.9,2.8-0.9c1.6,0,3.1,0.8,4,2.1
				c1.5,2.2,1,5.2-1.2,6.7C229.2,167.8,228.2,168.1,227.2,168.1z"/>
			<path class="st4" d="M227.2,159.5L227.2,159.5c1.2,0,2.4,0.6,3.1,1.6c1.2,1.7,0.8,4.1-0.9,5.3c-0.6,0.4-1.4,0.7-2.2,0.7
				c-1.2,0-2.4-0.6-3.1-1.6c-1.2-1.7-0.8-4.1,0.9-5.3C225.7,159.7,226.4,159.5,227.2,159.5 M227.2,157.4c-1.2,0-2.4,0.3-3.4,1.1
				c-2.7,1.9-3.3,5.6-1.4,8.2c1.2,1.6,3,2.5,4.8,2.5c1.2,0,2.4-0.3,3.4-1.1c2.7-1.9,3.3-5.6,1.4-8.2
				C230.9,158.2,229.1,157.4,227.2,157.4L227.2,157.4z"/>
		</g>
		<path class="st21" d="M228.8,165.3c-1.2,0.8-2.7,0.5-3.6-0.6c-0.2-0.3-0.4-0.6-0.4-1"/>
	</g>
</g>
<line class="st0" x1="179" y1="81.8" x2="234.4" y2="184.3"/>
<line class="st11" x1="219.4" y1="158.6" x2="234.2" y2="184.3"/>
<g>
	<path class="st1" d="M161,88.1c-4.2-10,0.5-22.1,10.8-26.5s22.3,0.8,26.5,10.8C202.4,82.3,165.2,98,161,88.1z"/>
	<path class="st12" d="M161,88.1c-4.2-10,0.5-22.1,10.8-26.5s22.3,0.8,26.5,10.8C202.4,82.3,165.2,98,161,88.1z"/>
</g>
<path class="st1" d="M149.9,118.3"/>
<g>
	<ellipse transform="matrix(0.974 -0.2265 0.2265 0.974 -54.6987 52.179)" class="st4" cx="200.1" cy="264.5" rx="11.9" ry="10.3"/>
	<path class="st1" d="M201.1,235.6L201.1,235.6l-14.8,3.4v0c-1-4.5-5.6-7.3-10.1-6.3l0,0l1.9,8.2l8.7,18.8l0.9,3.7
		c1.5,6.3,7.8,10.3,14.1,8.8l0,0c6.3-1.5,10.3-7.8,8.8-14.1l-0.9-3.7l-0.5-20.7l-1.9-8.2C202.9,226.6,200.1,231.1,201.1,235.6z"/>
	<path class="st22" d="M201.1,235.6L201.1,235.6l-14.8,3.4v0c-1-4.5-5.6-7.3-10.1-6.3l0,0l1.9,8.2l8.7,18.8l0.9,3.7
		c1.5,6.3,7.8,10.3,14.1,8.8l0,0c6.3-1.5,10.3-7.8,8.8-14.1l-0.9-3.7l-0.5-20.7l-1.9-8.2C202.9,226.6,200.1,231.1,201.1,235.6z"/>
	<path class="st23" d="M186.4,239l0.5-2.1c1.4-6.1,9.1-7.9,13.1-3.1l1.4,1.7"/>
	
		<rect x="187.9" y="237.1" transform="matrix(0.974 -0.2265 0.2265 0.974 -50.3433 50.643)" class="st22" width="15.3" height="15.3"/>
	<path class="st5" d="M191.8,262.2c0,0,5.5-7.2,15.9-3.7"/>
	<line class="st5" x1="202.1" y1="239" x2="209.3" y2="233.7"/>
	<line class="st5" x1="178.2" y1="240.9" x2="187.2" y2="243"/>
	<path class="st5" d="M188.9,247c0,0,2.7,0.1,6.9-0.9c4.2-1,7.3-2.6,7.3-2.6"/>
</g>
<circle class="st1" cx="237.8" cy="186.8" r="10.3"/>
<g>
	<path class="st24" d="M233.1,190.4c-0.9-1.2-2.1-1.9-3.4-1.9c-2.6,0.2-4.4,3.4-4.2,7.3c0.2,3.9,2.5,6.9,5,6.8
		c1.3-0.1,2.4-0.9,3.1-2.2"/>
	<path class="st24" d="M240.7,200c-0.6,1.4-1.7,2.3-2.9,2.5c-1.3,0.2-2.5-0.4-3.5-1.6c-1-1.1-1.8-2.8-2.1-4.7
		c-0.3-1.9,0-3.8,0.6-5.1c0.6-1.4,1.7-2.3,2.9-2.5c1.3-0.2,2.5,0.4,3.5,1.6"/>
	<g>
		<path class="st24" d="M244.7,200.3c-2.5,0.6-5.1-1-6.1-5.8c-0.9-3.8,0.4-7.3,2.9-7.9c2.2-0.5,3.6,0.2,4.7,3.3
			c0.1,0.2,1.2,3.6,1.1,6C247.3,198.5,246,200,244.7,200.3z"/>
		<path class="st25" d="M225.5,195.9"/>
		<path class="st26" d="M247.6,192.5c0.1,0.4,0.2,0.9,0.3,1.3c0.4,3.3-0.9,6.2-3.1,6.7c-1.1,0.3-2.2-0.1-3.2-0.9
			c0,0-0.7-0.5-0.8,0.3c-0.6,1.4-1.7,2.3-2.9,2.5c-1.3,0.2-2.5-0.4-3.5-1.6c-0.2-0.2-0.4-0.5-0.5-0.7l0,0.2
			c-0.8,1.3-1.9,2.2-3.1,2.2c-2.5,0.1-5.5-3.5-5-8.4"/>
	</g>
</g>
<ellipse transform="matrix(0.9988 -4.810988e-02 4.810988e-02 0.9988 -8.5903 12.0405)" class="st24" cx="245.8" cy="184.5" rx="7.4" ry="3.6"/>
<path class="st26" d="M249.1,180.3c2.2,0.7,3.5,2.2,3.6,4c0.1,1.7-1.2,3.2-3.1,4.1"/>
<g>
	<g class="st27">
		<path class="st4" d="M160.5,169.6c0,0-0.9-5-2.2-14.3c-0.5-3.4,12-19.8,12-19.8s9.8,2.7,13.2,2.6c7.9-0.2,9.8-5.2,12.3,8.2
			c0.1,0.5-3.5-0.3-3.5,2.4c0,3.6,3.5,11,3.6,12.1L160.5,169.6z M176,145.1c4.2-1,7.3-3.3,9.4-6C183.1,142,179.8,144.2,176,145.1z"
			/>
	</g>
	<path class="st8" d="M242.8,133c0,0,1,13.3-8.5,17.7l8.5,17.2C242.8,167.9,249.2,146.3,242.8,133z"/>
	<path class="st8" d="M213.9,142.1c0,0,37,29.4,27.5,57.5c0,0,6.2,5,6.4-6s9.6-5.3-1.2-16.5l-19.5-36.3L213.9,142.1z"/>
	<path class="st8" d="M153.8,112.1c0,0,9.1,22.5,35.6,23.4l1.9,2.8c0,0-10.1,1-17.4-2.3c-7.3-3.2-17.3-11.2-19.1-17.7
		C153,111.8,153.8,112.1,153.8,112.1z"/>
	<path class="st8" d="M164.1,120.5c0,0,33-31.2,33.6-46.7l21.7,2.9l4.7,9.9l-4.7,36.1c0,0-16,15.2-39.5,7.6
		C168.2,126.6,165.8,123.3,164.1,120.5z"/>
	<path class="st8" d="M159.4,126.3c0,0-3.6,19.9-20.4,27.9c0,0,2.8,13.2,6.3,12.6c3.5-0.6,8.9-4.1,18.7-20.8
		c6.2-10.5,7.2-11.2,7.2-11.2S161.7,130.3,159.4,126.3z"/>
	<path class="st8" d="M187.6,61.8c0,0,9.2,18-8.2,27.2c0,0,17.5-6.1,19-14C200,67,187.6,61.8,187.6,61.8z"/>
	<path class="st8" d="M236.3,20.4c0,0-3.9,47.1-30.6,54.2l25.7,2c0,0,7.7,0,8.3-7.3s3.7-47.4,3.7-47.4L236.3,20.4z"/>
	<path class="st8" d="M195.6,177.2l5.7-4.2c0,0-0.7-6.9,6.1-5.1c6.9,1.8,12,29.7,12,29.7l-8.1,5.1c0,0-3.3,11-0.1,18.6
		c3.2,7.5,0.1,9.8-1.9,10.3c-1.9,0.5-5.8-17.8-5.5-18.1C204.2,213.1,195.6,177.2,195.6,177.2z"/>
	<path class="st8" d="M198.7,222.2c0,0,8.1,27.3-1.6,37.7c-9.6,10.4-5.8,9.6-3.5,12.6c2.3,3.1,15,3.2,16.5-8
		c1.5-11.2-0.8-22.6-0.8-22.6S209.6,218.8,198.7,222.2z"/>
</g>
</svg>
