<?xml version="1.0" encoding="utf-8"?>
<!-- Generator: Adobe Illustrator 23.0.2, SVG Export Plug-In . SVG Version: 6.00 Build 0)  -->
<svg version="1.1" id="Layer_2" xmlns="http://www.w3.org/2000/svg" xmlns:xlink="http://www.w3.org/1999/xlink" x="0px" y="0px"
	 viewBox="0 0 460 345" style="enable-background:new 0 0 460 345;" xml:space="preserve">
<style type="text/css">
	.st0{fill:#A9B2B5;stroke:#1B0C59;stroke-width:1.1804;stroke-linecap:round;stroke-linejoin:round;stroke-miterlimit:10;}
	.st1{fill:none;stroke:#1B0C59;stroke-width:1.1804;stroke-linecap:round;stroke-linejoin:round;stroke-miterlimit:10;}
	.st2{fill:#2AC6EA;stroke:#1B0C59;stroke-width:0.9245;stroke-linecap:round;stroke-linejoin:round;stroke-miterlimit:10;}
	.st3{fill:none;stroke:#1B0C59;stroke-width:0.9245;stroke-linecap:round;stroke-linejoin:round;stroke-miterlimit:10;}
	.st4{fill:#1B0C59;}
	.st5{opacity:0.25;fill:#1B0C59;}
	.st6{fill:#FFFFFF;stroke:#1B0C59;stroke-width:0.9245;stroke-linecap:round;stroke-linejoin:round;stroke-miterlimit:10;}
	.st7{display:none;}
	.st8{display:inline;}
	
		.st9{display:inline;fill:none;stroke:#1B0C59;stroke-width:0.5932;stroke-linecap:round;stroke-linejoin:round;stroke-miterlimit:10;}
	
		.st10{display:inline;fill:none;stroke:#1B0C59;stroke-width:0.5774;stroke-linecap:round;stroke-linejoin:round;stroke-miterlimit:10;}
	.st11{display:inline;fill:#1B0C59;}
	.st12{fill:#1B8059;}
	.st13{fill:#1B8059;stroke:#191059;stroke-width:1.3838;stroke-linecap:round;stroke-linejoin:round;stroke-miterlimit:10;}
	.st14{fill:none;stroke:#191059;stroke-width:1.3571;stroke-linecap:round;stroke-linejoin:round;stroke-miterlimit:10;}
	.st15{fill:#1B8059;stroke:#191059;stroke-width:1.1882;stroke-linecap:round;stroke-linejoin:round;stroke-miterlimit:10;}
	.st16{fill:#1BE059;stroke:#191059;stroke-width:1.3571;stroke-linecap:round;stroke-linejoin:round;stroke-miterlimit:10;}
	.st17{fill:#1BE059;}
	.st18{fill:#191059;}
	.st19{opacity:0.25;fill:#191059;}
	.st20{fill:#A9B2B5;}
	.st21{fill:#707677;}
	.st22{fill:none;stroke:#191059;stroke-width:1.1645;stroke-linecap:round;stroke-linejoin:round;stroke-miterlimit:10;}
	.st23{fill:none;stroke:#191059;stroke-width:1.076;stroke-linecap:round;stroke-linejoin:round;stroke-miterlimit:10;}
	.st24{fill:#1BE059;stroke:#191059;stroke-width:1.0353;stroke-linecap:round;stroke-linejoin:round;stroke-miterlimit:10;}
	.st25{fill:none;stroke:#191059;stroke-width:0.9823;stroke-linecap:round;stroke-linejoin:round;stroke-miterlimit:10;}
	.st26{fill:#1BE059;stroke:#191059;stroke-width:0.6597;stroke-linecap:round;stroke-linejoin:round;stroke-miterlimit:10;}
	.st27{fill:#EB586F;stroke:#191059;stroke-width:0.6597;stroke-linecap:round;stroke-linejoin:round;stroke-miterlimit:10;}
	.st28{fill:#EB586F;stroke:#191059;stroke-width:0.7535;stroke-linecap:round;stroke-linejoin:round;stroke-miterlimit:10;}
	.st29{fill:none;stroke:#191059;stroke-width:0.6597;stroke-linecap:round;stroke-linejoin:round;stroke-miterlimit:10;}
	.st30{fill:#D8E9F0;stroke:#1B0C59;stroke-width:1.1645;stroke-linecap:round;stroke-linejoin:round;stroke-miterlimit:10;}
	.st31{fill:#2AC6EA;}
	.st32{fill:#1B0C59;stroke:#1B0C59;stroke-width:1.1645;stroke-linecap:round;stroke-linejoin:round;stroke-miterlimit:10;}
	
		.st33{display:none;fill:none;stroke:#1B0C59;stroke-width:1.1645;stroke-linecap:round;stroke-linejoin:round;stroke-miterlimit:10;}
	.st34{fill:#D8E9F0;}
	.st35{fill:none;stroke:#1B0C59;stroke-width:1.1645;stroke-linecap:round;stroke-linejoin:round;stroke-miterlimit:10;}
	.st36{fill:#2AC6EA;stroke:#1B0C59;stroke-width:1.1645;stroke-linecap:round;stroke-linejoin:round;stroke-miterlimit:10;}
	
		.st37{display:none;fill:none;stroke:#2AC6EA;stroke-width:10.4209;stroke-linecap:round;stroke-linejoin:round;stroke-miterlimit:10;}
	
		.st38{display:none;fill:none;stroke:#1B0C59;stroke-width:12.1577;stroke-linecap:round;stroke-linejoin:round;stroke-miterlimit:10;}
	.st39{fill:none;stroke:#1B0C59;stroke-width:1.0031;stroke-linecap:round;stroke-linejoin:round;stroke-miterlimit:10;}
	.st40{fill:none;stroke:#1B0C59;stroke-width:12.2401;stroke-linecap:round;stroke-linejoin:round;stroke-miterlimit:10;}
	.st41{fill:none;stroke:#2AC6EA;stroke-width:10.2699;stroke-linecap:round;stroke-linejoin:round;stroke-miterlimit:10;}
	.st42{display:none;fill:#FFFFFF;}
	.st43{fill:none;stroke:#1B0C59;stroke-width:0.7376;stroke-linecap:round;stroke-linejoin:round;stroke-miterlimit:10;}
	.st44{fill:#2AC6EA;stroke:#1B0C59;stroke-width:0.801;stroke-linecap:round;stroke-linejoin:round;stroke-miterlimit:10;}
	
		.st45{display:none;fill:none;stroke:#1B0C59;stroke-width:0.801;stroke-linecap:round;stroke-linejoin:round;stroke-miterlimit:10;}
	.st46{fill:none;stroke:#1B0C59;stroke-width:2.9819;stroke-linecap:round;stroke-linejoin:round;stroke-miterlimit:10;}
	.st47{fill:none;stroke:#1B0C59;stroke-width:0.8743;stroke-linecap:round;stroke-linejoin:round;stroke-miterlimit:10;}
	.st48{fill:#9E896A;}
	.st49{fill:#755832;}
	.st50{fill:#A9B2B5;stroke:#1B0C59;stroke-width:1.1645;stroke-linecap:round;stroke-linejoin:round;stroke-miterlimit:10;}
	.st51{fill:#9E896A;stroke:#1B0C59;stroke-width:1.1645;stroke-linecap:round;stroke-linejoin:round;stroke-miterlimit:10;}
	.st52{fill:none;stroke:#1B0C59;stroke-width:0.803;stroke-linecap:round;stroke-linejoin:round;stroke-miterlimit:10;}
	.st53{fill:#2AC6EA;stroke:#1B0C59;stroke-width:0.872;stroke-linecap:round;stroke-linejoin:round;stroke-miterlimit:10;}
	.st54{fill:none;stroke:#1B0C59;stroke-width:2.7509;stroke-linecap:round;stroke-linejoin:round;stroke-miterlimit:10;}
	.st55{fill:#24C7EA;}
	.st56{fill:none;stroke:#1B0C59;stroke-width:17.0845;stroke-linecap:round;stroke-linejoin:round;stroke-miterlimit:10;}
	.st57{fill:none;stroke:#1B0C59;stroke-width:1.3041;stroke-linecap:round;stroke-linejoin:round;stroke-miterlimit:10;}
	.st58{fill:none;stroke:#1B0C59;stroke-width:1.4001;stroke-linecap:round;stroke-linejoin:round;stroke-miterlimit:10;}
	.st59{fill:none;stroke:#1B0C59;stroke-width:1.4556;stroke-linecap:round;stroke-linejoin:round;stroke-miterlimit:10;}
	.st60{fill:#A9B2B5;stroke:#1B0C59;stroke-width:1.4556;stroke-linecap:round;stroke-linejoin:round;stroke-miterlimit:10;}
	.st61{fill:#9E896A;stroke:#1B0C59;stroke-width:1.4556;stroke-linecap:round;stroke-linejoin:round;stroke-miterlimit:10;}
	.st62{fill:none;stroke:#2AC6EA;stroke-width:14.6438;stroke-linecap:round;stroke-linejoin:round;stroke-miterlimit:10;}
	.st63{fill:none;stroke:#1B0C59;stroke-width:1.1238;stroke-linecap:round;stroke-linejoin:round;stroke-miterlimit:10;}
	.st64{fill:none;stroke:#1B0C59;stroke-width:4.1621;stroke-linecap:round;stroke-linejoin:round;stroke-miterlimit:10;}
	.st65{fill:none;stroke:#1B0C59;stroke-width:1.2203;stroke-linecap:round;stroke-linejoin:round;stroke-miterlimit:10;}
	.st66{fill:none;stroke:#1B0C59;stroke-width:1.1762;stroke-linecap:round;stroke-linejoin:round;stroke-miterlimit:10;}
	.st67{fill:none;stroke:#1B0C59;stroke-width:1.0329;stroke-linecap:round;stroke-linejoin:round;stroke-miterlimit:10;}
	.st68{fill:#2AC6EA;stroke:#1B0C59;stroke-width:1.1216;stroke-linecap:round;stroke-linejoin:round;stroke-miterlimit:10;}
	.st69{fill:none;stroke:#191059;stroke-width:1.0679;stroke-linecap:round;stroke-linejoin:round;stroke-miterlimit:10;}
	.st70{fill:none;stroke:#191059;stroke-width:1.1143;stroke-linecap:round;stroke-linejoin:round;stroke-miterlimit:10;}
	.st71{display:none;fill:#2AC6EA;}
	.st72{fill:none;stroke:#1B0C59;stroke-width:1.0445;stroke-linecap:round;stroke-linejoin:round;stroke-miterlimit:10;}
	.st73{fill:#2AC6EA;stroke:#1B0C59;stroke-width:1.1342;stroke-linecap:round;stroke-linejoin:round;stroke-miterlimit:10;}
	.st74{fill:#474747;stroke:#1B0C59;stroke-width:0.9923;stroke-miterlimit:10;}
	
		.st75{display:none;fill:none;stroke:#1B0C59;stroke-width:1.0445;stroke-linecap:round;stroke-linejoin:round;stroke-miterlimit:10;}
	.st76{fill:#1BE059;stroke:#191059;stroke-width:1.1645;stroke-linecap:round;stroke-linejoin:round;stroke-miterlimit:10;}
	.st77{fill:#1BE059;stroke:#191059;stroke-width:0.6163;stroke-linecap:round;stroke-linejoin:round;stroke-miterlimit:10;}
	.st78{fill:#1BE059;stroke:#191059;stroke-width:0.7779;stroke-linecap:round;stroke-linejoin:round;stroke-miterlimit:10;}
	.st79{fill:none;stroke:#1B0C59;stroke-width:0.7773;stroke-miterlimit:10;}
	.st80{fill:none;stroke:#1B0C59;stroke-width:0.7773;stroke-linecap:round;stroke-miterlimit:10;}
	.st81{fill:#D8E9F0;stroke:#1B0C59;stroke-width:0.7773;stroke-miterlimit:10;}
	.st82{fill:#EB586F;stroke:#1B0C59;stroke-width:0.7773;stroke-miterlimit:10;}
	.st83{fill:#EB586F;}
	.st84{fill:none;stroke:#FFFFFF;stroke-width:0.3354;stroke-linecap:round;stroke-linejoin:round;stroke-miterlimit:10;}
	.st85{fill:none;stroke:#1B0C59;stroke-width:12.1437;stroke-linecap:round;stroke-linejoin:round;stroke-miterlimit:10;}
	.st86{fill:none;stroke:#1B0C59;stroke-width:0.9952;stroke-linecap:round;stroke-linejoin:round;stroke-miterlimit:10;}
	.st87{fill:none;stroke:#2AC6EA;stroke-width:9.8251;stroke-linecap:round;stroke-linejoin:round;stroke-miterlimit:10;}
	.st88{fill:none;stroke:#1B0C59;stroke-width:2.9584;stroke-linecap:round;stroke-linejoin:round;stroke-miterlimit:10;}
	.st89{fill:none;stroke:#1B0C59;stroke-width:0.8674;stroke-linecap:round;stroke-linejoin:round;stroke-miterlimit:10;}
	.st90{fill:#84725A;stroke:#191059;stroke-width:1.1645;stroke-miterlimit:10;}
	.st91{fill:#84725A;stroke:#191059;stroke-width:1.1645;stroke-linecap:round;stroke-linejoin:round;stroke-miterlimit:10;}
	.st92{fill:#2AC6EA;stroke:#1B0C59;stroke-width:0.7904;stroke-linecap:round;stroke-linejoin:round;stroke-miterlimit:10;}
	.st93{opacity:0.25;}
</style>
<g>
	<polygon class="st0" points="203.1,90.6 206.5,93.2 209.2,89.7 204.4,76.2 	"/>
	<line class="st0" x1="204.4" y1="76.2" x2="206.5" y2="93.2"/>
	<line class="st1" x1="205.9" y1="88.2" x2="220.2" y2="201.2"/>
	<path class="st2" d="M235.5,122.1c0,0-4.5-2.4-7.9-2.1c-2.5,0.2-4.8,1.3-6,1.9c-1.2,0.6-2.8,0-3.1-1.3c0-0.1,0-0.1,0-0.2l-1.8-14.4
		l8.5,0.1c0,0,8.3,0,9.6,9.9L235.5,122.1z"/>
	<path class="st2" d="M210.1,120.6l-2.5-19.5c0,0,1-2.6,7.7-3.6c0.1,0,0.1,0,0.2,0c4.6-0.6,8.8,2.6,9.4,7.2l1.1,8.6
		c0.5,3.9-6.6,1.5-10.4,2.8C211.4,117.6,210.1,120.6,210.1,120.6z"/>
	<path class="st3" d="M225.9,112.6c0,0,1.3,5.5-3.1,6s-3.5,3.1-3.5,3.1"/>
	<g>
		<g>
			<path class="st4" d="M219.8,112.9l-5.1,0.6c-1.3,0.2-2.5-0.8-2.7-2.1l-0.5-4c0-0.2,0.1-0.4,0.3-0.4l9.2-1.1
				c0.2,0,0.4,0.1,0.4,0.3l0.5,4C222.1,111.5,221.2,112.7,219.8,112.9z M212.3,107.7l0.4,3.6c0.1,0.9,1,1.6,1.9,1.5l5.1-0.6
				c0.9-0.1,1.6-1,1.5-1.9l-0.4-3.6L212.3,107.7z"/>
		</g>
		<g>
			<path class="st4" d="M218.3,111.2l-2.4,0.3c-0.2,0-0.4-0.1-0.4-0.3l-0.1-1.2c-0.1-0.9,0.5-1.6,1.4-1.7s1.6,0.5,1.7,1.4l0.1,1.2
				C218.6,111,218.5,111.2,218.3,111.2z M216.1,110.8l1.7-0.2l-0.1-0.9c-0.1-0.5-0.5-0.8-1-0.8c-0.5,0.1-0.8,0.5-0.8,1L216.1,110.8z
				"/>
		</g>
		<g>
			<path class="st4" d="M221,105.3C221,105.3,221,105.3,221,105.3l-1.8,0.2c-0.2,0-0.4-0.1-0.4-0.3c0-0.2,0.1-0.4,0.3-0.4
				c0,0,0,0,0,0l1.5-0.2l-0.2-2l-1.2,0.1l0.1,0.6c0,0.1,0,0.2-0.1,0.3s-0.1,0.1-0.2,0.1l0,0l-1.8,0.2c-0.2,0-0.4-0.1-0.4-0.3
				l-0.1-0.6l-1.2,0.1l0.1,0.6c0,0.2-0.1,0.4-0.3,0.4l-1.8,0.2c-0.1,0-0.2,0-0.3-0.1s-0.1-0.1-0.1-0.2l-0.1-0.6l-1.2,0.1l0.2,2
				l1.5-0.2c0.2,0,0.4,0.1,0.4,0.3c0,0.2-0.1,0.4-0.3,0.4l-1.8,0.2c-0.2,0-0.4-0.1-0.4-0.3l-0.3-2.7c0-0.2,0.1-0.4,0.3-0.4l1.8-0.2
				c0.2,0,0.4,0.1,0.4,0.3l0.1,0.6l1.2-0.1l-0.1-0.6c0-0.2,0.1-0.4,0.3-0.4l1.8-0.2c0.2,0,0.4,0.1,0.4,0.3l0.1,0.6l1.2-0.1l-0.1-0.6
				c0-0.2,0.1-0.4,0.3-0.4l1.8-0.2c0.2,0,0.4,0.1,0.4,0.3l0.3,2.7c0,0.1,0,0.2-0.1,0.3C221.2,105.2,221.1,105.3,221,105.3z"/>
		</g>
	</g>
	<path class="st5" d="M217.9,115.7l0.7,5.7c0,0,0.6-2.3,2.4-2.4c3.1-0.2,5.3-2.2,5.1-4.3C225.9,112.6,227.6,116.5,217.9,115.7z"/>
	<path class="st5" d="M226.3,106.2l1,7.8c0.2,1.4-0.2,2.9-1.1,4.1c-0.4,0.5-0.9,0.9-1.5,1.1c-0.8,0.3-2.4,0.3-3.4,0.8
		c-0.6,0.3-0.9,1.6-0.2,1.8l0.6,0.2l-1.6,0.2c0,0-2,0.7-2.1-6.4l6.7,0l1.4-1.5l-0.8-8.2L226.3,106.2z"/>
	<path class="st5" d="M209.8,99.2c0,0-0.3,11.9,1.8,19.1l-1.5,2.3l-2.5-19.5L209.8,99.2z"/>
	<polygon class="st5" points="204.8,79.2 206.5,93.2 203.1,90.6 	"/>
</g>
<g>
	<polygon class="st0" points="328,103.1 330.8,106.3 334.1,103.3 331.7,89.2 	"/>
	<line class="st0" x1="331.7" y1="89.2" x2="330.8" y2="106.3"/>
	<line class="st1" x1="331.1" y1="101.2" x2="325.5" y2="215"/>
	<path class="st6" d="M354.4,139.8c0,0-4-3.1-7.4-3.4c-2.5-0.2-5,0.4-6.2,0.8c-1.3,0.4-2.8-0.5-2.8-1.8c0-0.1,0-0.2,0-0.2l0.7-14.5
		l8.3,1.5c0,0,8.2,1.5,7.7,11.4L354.4,139.8z"/>
	<path class="st6" d="M329.6,133.8l1-19.6c0,0,1.4-2.4,8.2-2.2c0.1,0,0.1,0,0.2,0c4.6,0.2,8.2,4.1,8,8.7l-0.4,8.7
		c-0.2,3.9-6.8,0.3-10.7,0.9C331.4,131.1,329.6,133.8,329.6,133.8z"/>
	<path class="st3" d="M346.6,128.7c0,0,0.4,5.6-4.1,5.4s-4,2.4-4,2.4"/>
	<g class="st7">
		<g class="st8">
			<path class="st4" d="M340.5,128l-5.1-0.3c-1.3-0.1-2.4-1.2-2.3-2.6l0.2-4c0-0.2,0.2-0.3,0.4-0.3l9.2,0.5c0.2,0,0.3,0.2,0.3,0.4
				l-0.2,4C343,127,341.9,128,340.5,128z M334.1,121.5l-0.2,3.7c-0.1,1,0.7,1.8,1.6,1.8l5.1,0.3c1,0.1,1.8-0.7,1.8-1.6l0.2-3.7
				L334.1,121.5z"/>
		</g>
		<g class="st8">
			<path class="st4" d="M339.3,126l-2.4-0.1c-0.2,0-0.3-0.2-0.3-0.4l0.1-1.2c0-0.9,0.8-1.5,1.6-1.5c0.9,0,1.5,0.8,1.5,1.6l-0.1,1.2
				C339.7,125.9,339.5,126.1,339.3,126z M337.3,125.2l1.7,0.1l0.1-0.9c0-0.5-0.3-0.9-0.8-0.9c-0.5,0-0.9,0.3-0.9,0.8L337.3,125.2z"
				/>
		</g>
		<g class="st8">
			<path class="st4" d="M343,120.7C343,120.7,343,120.7,343,120.7l-1.9-0.1c-0.2,0-0.3-0.2-0.3-0.4c0-0.2,0.2-0.3,0.4-0.3
				c0,0,0,0,0,0l1.5,0.1l0.1-2.1l-1.2-0.1l0,0.6c0,0.1,0,0.2-0.1,0.2c-0.1,0.1-0.2,0.1-0.2,0.1l0,0l-1.8-0.1c-0.2,0-0.3-0.2-0.3-0.4
				l0-0.6l-1.2-0.1l0,0.6c0,0.2-0.2,0.3-0.4,0.3l-1.8-0.1c-0.1,0-0.2,0-0.2-0.1c-0.1-0.1-0.1-0.2-0.1-0.2l0-0.6l-1.2-0.1l-0.1,2.1
				l1.5,0.1c0.2,0,0.3,0.2,0.3,0.4c0,0.2-0.2,0.3-0.4,0.3l-1.8-0.1c-0.2,0-0.3-0.2-0.3-0.4l0.2-2.8c0-0.2,0.2-0.3,0.4-0.3l1.8,0.1
				c0.2,0,0.3,0.2,0.3,0.4l0,0.6l1.2,0.1l0-0.6c0-0.2,0.2-0.3,0.4-0.3l1.8,0.1c0.2,0,0.3,0.2,0.3,0.4l0,0.6l1.2,0.1l0-0.6
				c0-0.2,0.2-0.3,0.4-0.3l1.8,0.1c0.2,0,0.3,0.2,0.3,0.4l-0.2,2.8c0,0.1,0,0.2-0.1,0.2C343.2,120.6,343.1,120.7,343,120.7z"/>
		</g>
	</g>
	<g id="g12_1_" transform="scale(0.1,0.1)" class="st7">
		<path id="path14_1_" class="st9" d="M3421.3,1260.2c-3.8-2-6-4.3-6.5-6.8c-0.5-2.4,0.6-5.1,3.3-8.1c6.4-7.3,9.9-16.7,9.9-26.4
			c0-22.2-18.1-40.3-40.3-40.3c0,0-0.2,0-0.2,0s-0.1,0-0.2,0c-22.2,0-40.3,18.1-40.3,40.3c0,9.7,3.5,19.1,9.9,26.4
			c2.7,3.1,3.7,5.7,3.3,8c-0.5,2.5-2.6,4.8-6.5,6.9c-5.9-4.9-11.1-11.4-14.3-18c-1.7-3.6-3.1-7.3-4-11.2c-0.9-4-1.4-8.1-1.4-12.2
			c0-7.2,1.4-14.2,4.2-20.7c2.7-6.3,6.5-12,11.4-16.9c4.9-4.9,10.6-8.7,16.9-11.4c6.6-2.8,13.5-4.2,20.7-4.2c0,0,0.2,0,0.2,0
			s0.1,0,0.2,0c7.2,0,14.2,1.4,20.7,4.2c6.3,2.7,12,6.5,16.9,11.4c4.9,4.9,8.7,10.6,11.4,16.9c2.8,6.6,4.2,13.5,4.2,20.7
			c0,4.1-0.5,8.2-1.4,12.2c-0.9,3.9-2.2,7.6-4,11.2C3432.4,1248.8,3427.2,1255.3,3421.3,1260.2"/>
		<path id="path16_1_" class="st9" d="M3401.6,1270.2c-0.6-0.4-2.7-2-4.8-4.8c-2-2.7-4.3-7.3-4.2-13.3c0.1-3.6,0.8-7.2,2.2-10.6
			c1.4-3.3,3.3-6.4,5.8-9.1l0,0c0.2-0.2,0.4-0.4,0.5-0.6c0.9-1.1,1.9-2.2,2.7-3.5c1-1.6,1.6-3.3,2.1-5.1c0.6-2.7,0.7-5.5,0.1-8.2
			c-0.5-2.5-1.6-4.9-3.1-7c-1.4-2-3.3-3.8-5.4-5.1c-2.2-1.4-4.7-2.3-7.2-2.6c-0.9-0.1-1.8-0.2-2.7-0.2c-0.1,0-0.1,0-0.2,0
			c-0.1,0-0.1,0-0.2,0c-0.9,0-1.8,0.1-2.6,0.2c-2.6,0.4-5.1,1.3-7.2,2.6c-2.1,1.3-4,3.1-5.4,5.1c-1.5,2.1-2.5,4.5-3.1,7
			c-0.6,2.7-0.5,5.6,0.1,8.2c0.4,1.7,1.1,3.4,2.1,5.1c0.8,1.3,1.7,2.4,2.7,3.5c0.2,0.2,0.4,0.4,0.6,0.6l0,0c2.5,2.7,4.4,5.7,5.8,9.1
			c1.4,3.4,2.1,6.9,2.2,10.6c0.1,6.1-2.2,10.6-4.2,13.3c-2.1,2.9-4.2,4.4-4.8,4.8c-1-0.3-2.1-0.6-3.1-0.9c-3.1-1-6-2.3-8.9-3.9
			c4.9-2.6,8-7.7,8-13.3c0-3.7-1.4-7.2-4.3-10.5c0-0.1-0.1-0.1-0.1-0.1c0,0,0,0,0,0c-0.3-0.3-0.6-0.6-0.8-0.9
			c-0.8-0.9-1.6-1.7-2.3-2.7c-2.6-3.4-4.4-7.4-5.4-11.6c-1.1-4.5-1.1-9.3-0.2-13.9c0.9-4.2,2.7-8.3,5.2-11.8
			c2.4-3.4,5.6-6.4,9.1-8.6c3.7-2.3,8-3.9,12.3-4.5c1.5-0.2,3-0.3,4.5-0.3c0.1,0,0.2,0,0.2,0c0.1,0,0.1,0,0.2,0c1.5,0,3,0.1,4.5,0.3
			c4.3,0.6,8.6,2.2,12.3,4.5c3.5,2.2,6.7,5.2,9.1,8.6c2.5,3.5,4.3,7.6,5.2,11.8c1,4.6,0.9,9.4-0.2,13.9c-1,4.2-2.9,8.2-5.4,11.6
			c-0.7,0.9-1.5,1.8-2.3,2.7c-0.3,0.3-0.5,0.6-0.8,0.9c0,0,0,0,0,0c0,0-0.1,0.1-0.1,0.1c-2.9,3.4-4.3,6.9-4.3,10.5
			c0,5.6,3.1,10.7,8,13.3c-2.8,1.6-5.8,2.9-8.9,3.9C3403.7,1269.6,3402.7,1269.9,3401.6,1270.2"/>
		<path id="path18_1_" class="st9" d="M3387.5,1229.9c-5.8,0-10.5-4.7-10.5-10.5c0-5.8,4.7-10.5,10.5-10.5c5.8,0,10.5,4.7,10.5,10.5
			C3398,1225.2,3393.3,1229.9,3387.5,1229.9"/>
	</g>
	<g class="st7">
		<circle class="st10" cx="338.4" cy="122.2" r="5.2"/>
		<path class="st10" d="M341.5,118c0,0-3.1,0.2-4.6,2.3c-1.4,2.1-1.6,4.7,0.3,6.9"/>
		<path class="st10" d="M342.3,119c0,2.1-1.7,3.8-3.8,3.8s-3.8-1.7-3.8-3.8"/>
		<path class="st10" d="M342.9,124.5c-0.7-1.2-2.1-1.9-3.5-1.6c-1.7,0.4-2.7,2.1-2.3,3.8"/>
		<circle class="st11" cx="337.9" cy="119.2" r="1.2"/>
		<circle class="st11" cx="341.7" cy="120.9" r="1.1"/>
		<circle class="st11" cx="335.8" cy="124.1" r="1.1"/>
		<polygon class="st11" points="339.2,121.4 339.7,120.1 339.7,121.5 340.8,120.5 340.2,121.8 341.6,121.4 340.5,122.3 341.9,122.5 
			340.5,122.9 341.8,123.6 340.4,123.5 341.2,124.6 340,123.9 340.3,125.3 339.4,124.1 339.2,125.5 338.9,124.1 338,125.3 
			338.3,123.9 337.1,124.6 338,123.5 336.5,123.6 337.8,122.9 336.4,122.5 337.8,122.3 336.8,121.4 338.1,121.8 337.5,120.5 
			338.6,121.5 338.6,120.1 		"/>
	</g>
	<path class="st5" d="M338.2,130.4l-0.3,5.8c0,0,1-2.2,2.8-2c3.1,0.3,5.6-1.3,5.7-3.4C346.6,128.7,347.6,132.9,338.2,130.4z"/>
	<path class="st5" d="M348,122.5l-0.4,7.8c-0.1,1.5-0.7,2.9-1.8,3.8c-0.5,0.4-1,0.7-1.7,0.8c-0.9,0.1-2.4-0.1-3.5,0.2
		c-0.7,0.2-1.2,1.5-0.5,1.7l0.5,0.3l-1.6-0.1c0,0-2.1,0.4-1-6.7l6.6,1.2l1.6-1.2l0.6-8.2L348,122.5z"/>
	<path class="st5" d="M333.1,112.7c0,0-2.4,11.7-1.6,19.1l-1.9,2l1-19.6L333.1,112.7z"/>
	<polygon class="st5" points="331.6,92.2 330.8,106.3 328,103.1 	"/>
</g>
<g>
	<polygon class="st0" points="240.9,104.6 243.5,108 247,105.3 245.8,91 	"/>
	<line class="st0" x1="245.8" y1="91" x2="243.5" y2="108"/>
	<line class="st1" x1="244.2" y1="103" x2="229.1" y2="215.9"/>
	<path class="st6" d="M264.1,143.4c0,0-3.8-3.4-7.1-4c-2.4-0.4-5,0-6.2,0.3c-1.3,0.3-2.7-0.7-2.7-2.1c0-0.1,0-0.2,0-0.2l1.9-14.3
		l8.2,2.2c0,0,8.1,2.1,6.7,12L264.1,143.4z"/>
	<path class="st6" d="M240,135.4l2.6-19.5c0,0,1.6-2.2,8.4-1.5c0.1,0,0.1,0,0.2,0c4.6,0.6,7.8,4.8,7.2,9.4l-1.2,8.6
		c-0.5,3.9-6.8-0.3-10.8,0C242,132.8,240,135.4,240,135.4z"/>
	<path class="st3" d="M257.3,131.7c0,0-0.1,5.6-4.6,5s-4.2,2.1-4.2,2.1"/>
	<g class="st7">
		<g class="st8">
			<path class="st4" d="M251.4,130.4l-5.1-0.7c-1.3-0.2-2.2-1.4-2.1-2.7l0.6-4c0-0.2,0.2-0.3,0.4-0.3l9.2,1.3c0.2,0,0.3,0.2,0.3,0.4
				l-0.6,4C253.9,129.7,252.7,130.6,251.4,130.4z M245.4,123.4l-0.5,3.6c-0.1,0.9,0.5,1.8,1.5,2l5.1,0.7c0.9,0.1,1.8-0.5,2-1.5
				l0.5-3.6L245.4,123.4z"/>
		</g>
		<g class="st8">
			<path class="st4" d="M250.3,128.4l-2.4-0.3c-0.2,0-0.3-0.2-0.3-0.4l0.2-1.2c0.1-0.8,0.9-1.4,1.8-1.3c0.8,0.1,1.4,0.9,1.3,1.8
				l-0.2,1.2C250.6,128.3,250.5,128.4,250.3,128.4z M248.3,127.4l1.7,0.2l0.1-0.9c0.1-0.5-0.3-0.9-0.7-1c-0.5-0.1-0.9,0.3-1,0.7
				L248.3,127.4z"/>
		</g>
		<g class="st8">
			<path class="st4" d="M254.5,123.4C254.5,123.4,254.5,123.4,254.5,123.4l-1.8-0.3c-0.2,0-0.3-0.2-0.3-0.4c0-0.2,0.2-0.3,0.4-0.3
				c0,0,0,0,0,0l1.5,0.2l0.3-2l-1.1-0.2l-0.1,0.6c0,0.1-0.1,0.2-0.1,0.2c-0.1,0.1-0.2,0.1-0.3,0.1l0,0l-1.8-0.3
				c-0.2,0-0.3-0.2-0.3-0.4l0.1-0.6l-1.1-0.2l-0.1,0.6c0,0.2-0.2,0.3-0.4,0.3l-1.8-0.3c-0.1,0-0.2-0.1-0.2-0.1
				c-0.1-0.1-0.1-0.2-0.1-0.3l0.1-0.6l-1.1-0.2l-0.3,2l1.5,0.2c0.2,0,0.3,0.2,0.3,0.4c0,0.2-0.2,0.3-0.4,0.3l-1.8-0.3
				c-0.2,0-0.3-0.2-0.3-0.4l0.4-2.7c0-0.2,0.2-0.3,0.4-0.3l1.8,0.3c0.2,0,0.3,0.2,0.3,0.4l-0.1,0.6l1.2,0.2l0.1-0.6
				c0-0.2,0.2-0.3,0.4-0.3l1.8,0.3c0.2,0,0.3,0.2,0.3,0.4l-0.1,0.6l1.1,0.2l0.1-0.6c0-0.2,0.2-0.3,0.4-0.3l1.8,0.3
				c0.2,0,0.3,0.2,0.3,0.4l-0.4,2.7c0,0.1-0.1,0.2-0.1,0.2C254.6,123.4,254.5,123.4,254.5,123.4z"/>
		</g>
	</g>
	<g id="g12_2_" transform="scale(0.1,0.1)" class="st7">
		<path id="path14_2_" class="st11" d="M2530.9,1286.3c-3.6-2.3-5.6-4.8-5.9-7.3c-0.3-2.4,1-5,3.9-7.8c7-6.7,11.2-15.8,12.1-25.5
			c1.9-22.1-14.6-41.7-36.8-43.5c0,0-0.2,0-0.2,0s-0.1,0-0.2,0c-22.1-1.9-41.7,14.6-43.5,36.8c-0.8,9.7,1.9,19.4,7.6,27.2
			c2.4,3.3,3.2,6,2.6,8.3c-0.7,2.4-3,4.5-7,6.3c-5.4-5.4-10.1-12.3-12.7-19.1c-1.4-3.7-2.5-7.6-3-11.5c-0.6-4-0.7-8.1-0.4-12.2
			c0.6-7.2,2.6-14,5.9-20.3c3.2-6.1,7.5-11.4,12.8-15.9c5.3-4.5,11.3-7.8,17.8-9.9c6.8-2.2,13.8-3,21-2.4c0,0,0.2,0,0.2,0
			s0.1,0,0.2,0c7.2,0.6,14,2.6,20.3,5.9c6.1,3.2,11.4,7.5,15.9,12.8c4.5,5.3,7.8,11.3,9.9,17.8c2.2,6.8,3,13.9,2.4,21
			c-0.3,4.1-1.2,8.1-2.4,12c-1.2,3.8-2.9,7.4-4.9,10.8C2542.9,1275.8,2537.2,1281.9,2530.9,1286.3"/>
		<path id="path16_2_" class="st11" d="M2510.5,1294.5c-0.6-0.4-2.6-2.2-4.4-5.2c-1.7-2.9-3.7-7.6-3-13.6c0.4-3.6,1.4-7.1,3.1-10.3
			c1.6-3.2,3.8-6.1,6.5-8.5l0,0c0.2-0.2,0.4-0.4,0.6-0.6c1-1,2.1-2,3-3.3c1.1-1.5,1.9-3.2,2.5-4.9c0.9-2.6,1.1-5.5,0.8-8.2
			c-0.3-2.5-1.2-5-2.5-7.2c-1.3-2.1-3-4-4.9-5.5c-2.1-1.5-4.5-2.7-7-3.2c-0.9-0.2-1.7-0.3-2.6-0.4c-0.1,0-0.1,0-0.2,0
			c-0.1,0-0.1,0-0.2,0c-0.9-0.1-1.8-0.1-2.7,0c-2.6,0.1-5.1,0.8-7.4,2c-2.2,1.1-4.2,2.7-5.8,4.6c-1.6,1.9-2.9,4.3-3.6,6.7
			c-0.8,2.6-1,5.5-0.6,8.2c0.3,1.8,0.8,3.5,1.6,5.2c0.7,1.4,1.5,2.6,2.4,3.7c0.2,0.2,0.3,0.5,0.5,0.7l0,0c2.3,2.9,3.9,6.1,5,9.5
			c1.1,3.5,1.5,7.1,1.3,10.7c-0.4,6-3.1,10.4-5.3,12.9c-2.3,2.7-4.5,4.1-5.2,4.4c-1-0.4-2-0.8-3-1.2c-3-1.3-5.8-2.8-8.5-4.6
			c5.1-2.2,8.6-7,9.1-12.6c0.3-3.7-0.8-7.3-3.4-10.8c0-0.1-0.1-0.1-0.1-0.1c0,0,0,0,0,0c-0.3-0.3-0.5-0.7-0.7-1
			c-0.7-1-1.4-1.9-2-2.8c-2.3-3.6-3.8-7.8-4.4-12c-0.7-4.6-0.3-9.4,1-13.9c1.2-4.1,3.4-8,6.1-11.3c2.7-3.2,6.1-5.9,9.8-7.8
			c3.9-2,8.2-3.2,12.6-3.4c1.5-0.1,3-0.1,4.5,0.1c0.1,0,0.2,0,0.2,0c0.1,0,0.1,0,0.2,0c1.5,0.1,3,0.4,4.4,0.7
			c4.3,1,8.4,2.9,11.9,5.5c3.3,2.5,6.2,5.7,8.3,9.3c2.2,3.7,3.6,7.9,4.2,12.2c0.6,4.6,0.1,9.4-1.3,13.8c-1.3,4.1-3.5,7.9-6.4,11.1
			c-0.8,0.9-1.6,1.6-2.5,2.5c-0.3,0.3-0.6,0.5-0.9,0.8c0,0,0,0,0,0c0,0-0.1,0.1-0.1,0.1c-3.1,3.2-4.8,6.5-5.1,10.1
			c-0.5,5.6,2.2,10.9,6.8,13.9c-3,1.3-6,2.4-9.2,3.2C2512.6,1294.1,2511.6,1294.4,2510.5,1294.5"/>
		<path id="path18_2_" class="st11" d="M2499.8,1253.2c-5.8-0.5-10.1-5.6-9.6-11.4c0.5-5.8,5.6-10.1,11.4-9.6
			c5.8,0.5,10.1,5.6,9.6,11.4C2510.7,1249.4,2505.6,1253.7,2499.8,1253.2"/>
	</g>
	<path class="st5" d="M248.8,132.7l-0.8,5.7c0,0,1.1-2.1,2.9-1.7c3.1,0.6,5.6-0.8,6-2.9C257.3,131.7,257.9,135.9,248.8,132.7z"/>
	<path class="st5" d="M259.3,125.6l-1,7.8c-0.2,1.4-0.9,2.8-2.1,3.6c-0.5,0.4-1.1,0.6-1.7,0.7c-0.9,0.1-2.4-0.3-3.5-0.1
		c-0.7,0.1-1.3,1.4-0.6,1.7l0.5,0.4l-1.6-0.2c0,0-2.1,0.2-0.4-6.8l6.5,1.7l1.7-1.1l1.3-8.1L259.3,125.6z"/>
	<path class="st5" d="M245.2,114.6c0,0-3.4,11.4-3.2,18.9l-2,1.8l2.6-19.5L245.2,114.6z"/>
	<polygon class="st5" points="245.4,94 243.5,108 240.9,104.6 	"/>
</g>
<g>
	<path class="st12" d="M31.1,241.8c1.9,5.4,18.9,9.5,29.6,5.6c10.7-3.9,12.7-3.1,9.4-12.3s-14.7-13.5-25.5-9.6
		S27.9,232.5,31.1,241.8z"/>
	<path class="st13" d="M58.2,227.9c0.3-0.9,0.6-1.8,0.8-2.8c0.7-4.1-0.6-7.9-2.8-7.7c-4,0.4-6.3,5.6-6.3,11.1"/>
	<path class="st13" d="M49.8,228.1c-0.1-1.1-0.3-2.2-0.6-3.3c-1.4-4.7-4.8-8.1-7.3-6.9c-4.4,2.1-4.2,8.5-1.4,14.4"/>
	<path class="st13" d="M30.4,237.9c-1-0.8-2-1.7-3-2.7c-3.8-4.4-5.1-9.8-2.2-11.3c5.1-2.6,11.5,1.7,15.6,8.3"/>
	<path class="st13" d="M65.6,230c0.3-0.4,0.7-0.8,1-1.2c2.7-3.6,3.4-7.3,1.6-8.3c-1.8-1-5.5,1.1-8.3,4.6c-0.7,0.9-1.2,1.7-1.6,2.6"
		/>
	<path class="st13" d="M68.7,232.8c0.3-0.1,0.6-0.3,0.8-0.5c2.4-1.5,3.7-3.4,3-4.4c-0.7-1-3.2-0.6-5.5,0.9c-0.6,0.4-1.1,0.7-1.5,1.1
		"/>
</g>
<g>
	<path class="st14" d="M46.3,238c0,0-16.1-30.5,15.8-53c4.4-3.1,7.9-6.3,10.5-9.4"/>
	<path class="st14" d="M42.3,218.7c0,0,7.6-6.5,17.3-9.9"/>
	<path class="st14" d="M42,216.2c0,0-1.8-3.6-4.1-6.3"/>
	<path class="st14" d="M48,199c0,0,3.6-16.3-8.5-28.1"/>
	<path class="st14" d="M47.5,185.3c0,0-5.3-3-9.4-1.6"/>
	<path class="st14" d="M59.2,187.2c0,0,6.5,3.9,13,1.5"/>
	<path class="st15" d="M63.5,198.8c4.2-2.4,9-1.8,10.9,1.5c1.9,3.2,0,7.8-4.2,10.2s-10.9-1.5-10.9-1.5S59.4,201.2,63.5,198.8z"/>
	<path class="st15" d="M42.4,199.7c2.7-4,7.4-5.5,10.5-3.4s3.3,7,0.6,11s-10.5,3.4-10.5,3.4S39.7,203.7,42.4,199.7z"/>
	<path class="st16" d="M76.1,178.6c4.2-2.4,9-1.8,10.9,1.5c1.9,3.2,0,7.8-4.2,10.2S72,188.8,72,188.8S72,181,76.1,178.6z"/>
	<path class="st16" d="M40,198.7c-2.2-4.3-6.6-6.4-9.9-4.7s-4.2,6.5-2,10.8c2.2,4.3,9.9,4.7,9.9,4.7S42.1,203,40,198.7z"/>
	<path class="st15" d="M27.2,181.1c-4.4,1.8-6.9,6.1-5.5,9.5s6.2,4.7,10.6,2.8c4.4-1.8,5.5-9.5,5.5-9.5S31.7,179.3,27.2,181.1z"/>
	<path class="st15" d="M31.3,163.2c-0.7-4.8,1.7-9.1,5.4-9.6c3.7-0.5,7.2,2.9,7.9,7.6c0.7,4.8-5.4,9.6-5.4,9.6S32,167.9,31.3,163.2z
		"/>
	<path class="st16" d="M73.9,164.7c3.4-3.4,8.3-4.1,10.9-1.4c2.6,2.6,2,7.5-1.4,10.9s-10.9,1.4-10.9,1.4S70.5,168.1,73.9,164.7z"/>
	<path class="st16" d="M52.1,181.6c2.4-4.2,6.9-6.1,10.1-4.3c3.2,1.8,3.9,6.7,1.6,10.9c-2.4,4.2-10.1,4.3-10.1,4.3
		S49.7,185.8,52.1,181.6z"/>
	<path class="st16" d="M44,168.2c2.4-4.2,6.9-6.1,10.1-4.3c3.2,1.8,3.9,6.7,1.6,10.9c-2.4,4.2-10.1,4.3-10.1,4.3
		S41.7,172.3,44,168.2z"/>
</g>
<g>
	
		<ellipse transform="matrix(0.8375 -0.5465 0.5465 0.8375 -61.4796 209.1831)" class="st12" cx="320.9" cy="208" rx="15.2" ry="17.7"/>
	<path class="st15" d="M323.1,194.3c0.2-0.8,0.5-1.6,0.9-2.3c1.7-3.2,4.5-5.1,5.9-3.8c2.5,2.4,1.4,7.1-1.4,10.9"/>
	<path class="st15" d="M328.8,198.8c0.6-0.7,1.3-1.4,2.1-2c3.4-2.5,7.5-3.1,8.6-1c1.9,3.7-1.5,8-6.5,10.6"/>
	<path class="st15" d="M337.1,215.5c1.1,0,2.3-0.1,3.4-0.4c4.9-1,8.5-4.1,7.3-6.6c-2.1-4.4-8.8-4.7-15-2.4"/>
	<path class="st15" d="M317,192c0-0.4-0.1-0.9-0.1-1.4c0-3.9,1.4-6.8,3.2-6.5c1.8,0.3,3.3,3.6,3.3,7.4c0,0.9-0.1,1.8-0.2,2.6"/>
	<path class="st15" d="M313.4,192.2c-0.1-0.2-0.2-0.5-0.3-0.8c-0.9-2.2-0.8-4.3,0.2-4.6c1-0.3,2.5,1.2,3.3,3.5
		c0.2,0.5,0.4,1.1,0.5,1.6"/>
</g>
<g>
	<ellipse class="st17" cx="215.8" cy="266.8" rx="87" ry="10.1"/>
	<ellipse class="st17" cx="196.5" cy="253.5" rx="87" ry="10.1"/>
	<ellipse class="st17" cx="121.2" cy="243.3" rx="91.8" ry="13.4"/>
	<ellipse class="st17" cx="264.9" cy="227" rx="132" ry="15.7"/>
	<ellipse class="st17" cx="310" cy="239.8" rx="132" ry="15.7"/>
	<ellipse class="st17" cx="304" cy="255.8" rx="102.6" ry="15.7"/>
	<ellipse class="st17" cx="95.9" cy="268.4" rx="23.9" ry="4.7"/>
	<ellipse class="st17" cx="426.7" cy="254.5" rx="11.9" ry="2.4"/>
</g>
<ellipse class="st18" cx="256.3" cy="229.7" rx="19.4" ry="4.6"/>
<ellipse class="st19" cx="161.9" cy="263.7" rx="12.3" ry="2.6"/>
<ellipse class="st19" cx="296.6" cy="235.8" rx="12.3" ry="2.6"/>
<ellipse class="st19" cx="107" cy="267.9" rx="8.3" ry="1.8"/>
<ellipse class="st18" cx="294" cy="222.7" rx="12.6" ry="4.6"/>
<ellipse class="st18" cx="347.8" cy="231.6" rx="18.3" ry="3.7"/>
<ellipse class="st18" cx="256.9" cy="262" rx="16.2" ry="2.6"/>
<ellipse class="st18" cx="336.2" cy="260.5" rx="11.4" ry="2"/>
<ellipse class="st18" cx="236.9" cy="225.9" rx="11.8" ry="1.5"/>
<ellipse class="st18" cx="407.4" cy="239.3" rx="21.5" ry="2.7"/>
<ellipse class="st18" cx="393" cy="236.6" rx="21.5" ry="2.7"/>
<ellipse class="st18" cx="213.7" cy="220.9" rx="9.8" ry="1.8"/>
<g>
	<polygon class="st20" points="336.7,254.1 346.7,254.5 348.2,256.4 349,258.9 345.1,261.2 332.8,260.3 330.3,256.1 	"/>
	<polygon class="st21" points="345.1,261.2 343.9,257.6 335.7,257.6 331.3,257.2 332.8,260.3 	"/>
	<polygon class="st22" points="336.7,254.1 346.7,254.5 348.2,256.4 349,258.9 345.1,261.2 332.8,260.3 330.3,256.1 	"/>
	<polyline class="st22" points="341.2,260.9 340.4,257.9 331.3,257.2 	"/>
	<line class="st22" x1="340.4" y1="257.9" x2="348.2" y2="256.4"/>
</g>
<g>
	<polygon class="st20" points="393.7,228.5 380.4,229 378.5,231.6 377.3,235 382.6,237.9 398.9,236.8 402.2,231.3 	"/>
	<polygon class="st21" points="382.6,237.9 377.3,235 378.5,231.6 380.4,229 381.5,229 384.3,231.2 388.7,233.6 387.7,237.6 	"/>
	<polygon class="st22" points="393.7,228.5 380.4,229 378.5,231.6 377.3,235 382.6,237.9 398.9,236.8 402.2,231.3 	"/>
	<polyline class="st22" points="387.7,237.6 388.7,233.6 400.9,232.7 	"/>
	<line class="st22" x1="388.7" y1="233.6" x2="380.4" y2="229"/>
</g>
<g>
	<path class="st16" d="M46.4,235.9c-0.3-0.5-0.7-1-1-1.6c-1.2-2.4-1.2-5,0-5.4c3.7-1.1,7.2,7,6.1,12.3"/>
	<path class="st16" d="M42.9,238.9c-0.3-0.2-0.5-0.3-0.8-0.5c-2.1-1.6-3.2-3.7-2.5-4.8c0.8-1,3.1-0.6,5.3,1c0.5,0.4,1,0.8,1.4,1.2"
		/>
	<path class="st16" d="M41.8,241.3c-0.2,0-0.4-0.1-0.5-0.1c-1.5-0.4-2.6-1.3-2.5-2s1.6-1.1,3.1-0.7c0.4,0.1,0.7,0.2,1,0.4"/>
</g>
<path class="st17" d="M332.8,228.5l9.1-0.2v-9.9c0,0-3,1.1-3.5,0.9c-1.5-0.7-2.2-4.1-4.9-1.1C329.8,222.2,332.8,228.5,332.8,228.5z"
	/>
<g>
	<polygon class="st21" points="262.3,241.3 269.5,246.5 272.5,254.7 272.1,262.3 249.2,260.1 254.2,248 	"/>
	<polygon class="st20" points="272.1,262.3 279.6,258.3 276.1,247.3 263.9,241.8 269.6,246.9 272.5,254.7 	"/>
	<polygon class="st23" points="262.5,241.2 276.1,247.3 279.6,258.3 272.1,262.3 249.2,260.1 254.2,248 	"/>
	<polyline class="st23" points="272.1,262.3 272.5,254.7 269.5,246.5 262.5,241.2 	"/>
</g>
<g>
	<path class="st24" d="M333.3,222.9c-0.4-0.2-0.8-0.4-1.2-0.7c-1.7-1.2-2.7-2.9-2-3.6c2.1-2.1,7.4,2,8.6,6"/>
	<path class="st24" d="M332.1,226.2c-0.2,0-0.5,0-0.7-0.1c-2-0.3-3.5-1.3-3.4-2.3c0.1-1,1.9-1.6,3.9-1.3c0.5,0.1,0.9,0.2,1.4,0.3"/>
	<path class="st24" d="M332.8,228.3c-0.1,0-0.3,0.1-0.4,0.1c-1.2,0.3-2.2,0.1-2.4-0.5c-0.2-0.6,0.7-1.3,1.8-1.6
		c0.3-0.1,0.6-0.1,0.8-0.1"/>
</g>
<g>
	<path class="st25" d="M165.1,247.1c0,0,4.6,4.2,5.6,9c0.6,2.9,2.2,9.6,2.2,9.6"/>
	<g>
		
			<ellipse transform="matrix(0.3643 -0.9313 0.9313 0.3643 -129.9976 317.9972)" class="st26" cx="167.9" cy="254.2" rx="0.6" ry="2.6"/>
		<circle class="st27" cx="164.4" cy="240.9" r="1.6"/>
		<circle class="st27" cx="165.5" cy="243.1" r="2"/>
		<circle class="st27" cx="159.7" cy="245.8" r="2"/>
		<circle class="st27" cx="158.3" cy="243.4" r="1.6"/>
		<circle class="st28" cx="161.2" cy="241.8" r="2.3"/>
		<circle class="st28" cx="163.4" cy="243.8" r="2.3"/>
		<circle class="st27" cx="165.5" cy="246.3" r="2"/>
		<circle class="st27" cx="162.3" cy="247.2" r="2"/>
		<polyline class="st29" points="160.6,245.2 160.7,245.9 160.1,245.9 		"/>
		<polyline class="st29" points="160.7,239.1 160.4,239.7 159.8,239.4 		"/>
		<polyline class="st29" points="164.7,238.8 164.2,239.3 163.8,238.8 		"/>
		<polyline class="st29" points="156.9,241.9 157,242.5 156.3,242.6 		"/>
		<polyline class="st29" points="161.5,241.4 161.7,242 161,242.2 		"/>
	</g>
</g>
<g>
	<path class="st17" d="M409.2,275.4c0,0.8-0.6,1.6-0.6,1.6l0,0c-2.4,1.5-10.7,1.4-12.5-0.1l0,0c0,0-0.2-0.3-0.2-1
		c0-2.3,3.6-3.9,6.2-3.9S409.2,273.1,409.2,275.4z"/>
	<path class="st16" d="M396.2,276.7c-0.3-0.4-1.4-1-2.4-3c-1-1.9-1.1-3.9,0-4.1c2-0.5,3.9,1.6,4.9,4.2"/>
	<path class="st16" d="M398.7,273.6c-0.2-0.5-0.3-1.1-0.3-1.7c-0.1-2.5,0.9-4.7,2.3-4.6c2.5,0.3,3.5,3.3,3.2,6.6"/>
	<path class="st16" d="M408.7,276.7c1.4-1.8,1.7-3,2-3.7c1.1-2.7,0.7-5.6-0.9-5.8c-2.9-0.4-4.9,3-5.8,6.9"/>
</g>
<g>
	<path class="st16" d="M244.6,254.7c0.3-0.5,0.7-1,1-1.6c1.2-2.4,1.2-5,0-5.4c-2-0.6-6.5,3.9-5.3,9.2"/>
	<path class="st16" d="M248.1,257.6c0.3-0.2,0.5-0.3,0.8-0.5c2.1-1.6,3.2-3.7,2.5-4.8s-3.1-0.6-5.3,1c-0.5,0.4-1,0.8-1.4,1.2"/>
	<path class="st16" d="M247.5,260.4c0.2,0,0.4,0,0.6,0c1.6,0,2.9-0.6,2.9-1.4s-1.3-1.4-2.9-1.4c-0.4,0-0.7,0-1.1,0.1"/>
</g>
<g>
	<g>
		<path class="st30" d="M157.5,219.1l64.9-6.1l25-50.4l-59.7-9.2c0,0-4.1,16.1-11.1,31.4S157.5,219.1,157.5,219.1z"/>
		<path class="st31" d="M169.1,199.9c0,0,1.8-1.5,4.1-1.9s4.1-0.9,4.1-0.9s-3.6,13.8-5.4,15.1c-1.8,1.3-8.6,5.7-14.5,6.8l16-1.9
			c0,0,11.5-12.3,15.5-46.2l-2.1-7L169.1,199.9z"/>
		<polygon class="st32" points="157.5,219.1 215,224.4 264.4,213.5 226.7,210.2 		"/>
		<line class="st33" x1="187.1" y1="162.2" x2="187.8" y2="221.2"/>
		<path class="st34" d="M273.8,214.1L215,224.4c0,0-10.9-19.7-15.8-33.2c-4.8-13.5-11.4-37.8-11.4-37.8l59.7,9.2l0,0
			C253.2,190.9,273.8,214.1,273.8,214.1z"/>
		<path class="st31" d="M197.2,154.9l11.2,1.7c0,0,7.9,40.8,29.6,63.2l-9.5,2.1C228.4,221.9,206.4,198.8,197.2,154.9z"/>
		<path class="st31" d="M218,158.1l10.5,1.5c0,0,7.3,35.2,29.5,57.2l-10.6,2C247.4,218.8,228.5,199.9,218,158.1z"/>
		<path class="st31" d="M239.6,161.4l7.8,1.3c0,0,6.6,28.8,26.5,51.4l-6.1,1.3C267.7,215.4,250.1,195.4,239.6,161.4z"/>
		<path class="st35" d="M273.8,214.1L215,224.4c0,0-10.9-19.7-15.8-33.2c-4.8-13.5-11.4-37.8-11.4-37.8l59.7,9.2l0,0
			C253.2,190.9,273.8,214.1,273.8,214.1z"/>
		<path class="st36" d="M205.8,219.3l9.2,5.1c0,0,6.7-7.5-1.4-12.8S205.8,219.3,205.8,219.3z"/>
		<path class="st35" d="M188.9,170.9c0,0-3.9,33.1-15.5,46.6"/>
		<path class="st30" d="M186.4,158.6c0,0,10.7,54.9,17.8,59.9c7,5,6.9-12.9,15.8-6.7c0,0-24.5-29.2-32.1-58.3L186.4,158.6z"/>
		<path class="st31" d="M214,204.7c0,0-8-1.7-12.5,10.1c0,0,4.1,8.4,7.9,2.8c3.8-5.6,5.6-9.6,10.7-5.8L214,204.7z"/>
		<path class="st31" d="M195,195.7c0,0-0.3,10-6.9,19.4l8.8-1.1c0,0,2.5-2.4,2.3-4.8L195,195.7z"/>
		<path class="st35" d="M186.4,158.6c0,0,10.7,54.9,17.8,59.9c7,5,6.9-12.9,15.8-6.7c0,0-24.5-29.2-32.1-58.3L186.4,158.6z"/>
		<path class="st35" d="M186.4,158.6c0,0,10.7,54.9,17.8,59.9c7,5,6.9-12.9,15.8-6.7c0,0-24.5-29.2-32.1-58.3L186.4,158.6z"/>
		<path class="st30" d="M187,162c0,0-11.7,45.4-15.2,49.9c-3.5,4.5-14.3,7.3-14.3,7.3s8.4-12.6,15.7-27.7
			c4.5-9.2,11.5-27.8,11.5-27.8L187,162z"/>
		<path class="st31" d="M184.8,163.6c0,0-14.1,33.7-15.7,36.3c0,0,1.9-1.9,4.1-1.9c2.3,0,4.5-1.7,4.5-1.7l9.4-34.3L184.8,163.6z"/>
		<path class="st35" d="M186.9,162.5c0,0-11.5,44.9-15,49.4c-3.5,4.5-14.3,7.3-14.3,7.3s8.4-12.6,15.7-27.7
			c4.5-9.2,11.5-27.8,11.5-27.8L186.9,162.5z"/>
		<path class="st35" d="M197.1,154.8c0,0,7,38.6,31.3,67.1"/>
		<path class="st35" d="M208.4,156.6c0,0,5.2,34.7,29.5,63.2"/>
		<path class="st35" d="M218,158.1c0,0,4.9,32.2,29.2,60.7"/>
		<path class="st35" d="M228.5,159.6c0,0,4.7,28.5,29,57"/>
		<path class="st35" d="M239.6,161.4c0,0,5.9,25.7,27.7,53.5"/>
		<path class="st35" d="M168.5,200.7c0,0,1.5-2.8,4.7-2.6c3.1,0.2,4.7-2.6,4.7-2.6"/>
		<path class="st35" d="M201.4,214.8c0,0,3.4-11.4,13-10.1"/>
		<path class="st35" d="M194.9,195.4c0,0,0.8,8.7-6.8,20.1"/>
		<path class="st35" d="M198.9,208.5c0,0,0.3,3.5-2.3,5.8"/>
	</g>
	<path class="st5" d="M187,163.9c0,0-12.9,45.4-15,48.3c-2.1,2.9-14.5,6.8-14.5,6.8l44.1-5.3l-6.8-19.1L187,163.9z"/>
	<path class="st5" d="M213.8,211.7c0,0,2.7-2.9,7.2,0.6c4.5,3.5,11.1,8,34.3,5.1l-40.1,7.1C215.1,224.5,221.8,216.6,213.8,211.7z"/>
	<path class="st5" d="M186.3,160.1c0,0-5.7,23.4-13.3,40.2c-6.7,14.8-10.6,17.7-14.7,18.5c0,0,11.6-2.6,13.7-7
		c2.1-4.4,15.2-49.5,15.2-49.5L186.3,160.1z"/>
</g>
<g>
	<line class="st37" x1="379.7" y1="159.4" x2="369.8" y2="159.4"/>
	<line class="st38" x1="389.9" y1="165" x2="386.1" y2="163.9"/>
	<line class="st37" x1="389.9" y1="165" x2="386.1" y2="163.9"/>
	<g>
		<path class="st31" d="M365.2,192.7l2.2-5.7c0.7-1.7,2.4-3.2,4.8-4.3l8.2-3.6c2.6-1.2,5.7-0.2,5.1,1.6l-1.8,6.2
			c-0.5,1.6-2.2,3.1-4.5,4l-9.3,3.6C367.3,195.6,364.5,194.5,365.2,192.7z"/>
		<path class="st39" d="M365.2,192.7l2.2-5.7c0.7-1.7,2.4-3.2,4.8-4.3l8.2-3.6c2.6-1.2,5.7-0.2,5.1,1.6l-1.8,6.2
			c-0.5,1.6-2.2,3.1-4.5,4l-9.3,3.6C367.3,195.6,364.5,194.5,365.2,192.7z"/>
	</g>
	<line class="st40" x1="394.4" y1="189.1" x2="408.2" y2="216.5"/>
	<polyline class="st40" points="376.8,191.3 368.3,200.9 368.3,213.6 	"/>
	<g>
		<path class="st31" d="M393.5,199.3c-1.2-2.3-3.8-9.3-4.6-10.6c-0.4-0.5-0.7-1-1-1.6c-1.3-3.1,0.1-6.7,3.2-8
			c2.6-1.1,5.5-0.4,7.3,1.9c0.2,0.2,0.4,0.5,0.6,0.8c0.3,0.4,0.6,0.9,1,1.6c0.6,1,1.4,2.4,2.4,4.2c1.6,3,2.7,7.4,2.7,7.4
			L393.5,199.3z M391.9,190.6c1.2,0.3,2.6,0.4,4.1-0.3C394.6,190.9,393.2,191,391.9,190.6z"/>
	</g>
	<g>
		<path class="st31" d="M370.3,190c0,0,2.2-2.7,4.3-5.4c1.3-1.6,2.3-2.8,3.1-3.7c0.5-0.6,0.9-1,1.2-1.4c0.3-0.3,0.5-0.5,0.7-0.7
			c2.5-2.1,6-2.1,8.4,0.2c1.8,1.7,2.4,4.4,1.4,6.7c-0.4,1-1.1,1.9-1.9,2.5c-0.9,1-5,6-6.8,8.3c-0.5,0.7-1.5,0.8-2.2,0.2L370.3,190z
			 M380.4,188.5c1.3,0.9,2.7,1.1,4,1C383.1,189.6,381.7,189.3,380.4,188.5z"/>
	</g>
	<path class="st31" d="M383.4,189.1c0.2,2.4,2.2,4,4.6,3.9l4.2-0.1l0,0c2.4-0.2,4.2-2.3,4.1-4.7l-0.1-1.7c-0.2-2.4-2.3-4.2-4.7-4.1
		l-4.1,0.3c-2.4,0.2-4.2,2.3-4.1,4.7L383.4,189.1z"/>
	<g>
		<path class="st35" d="M397.2,179.4c0.7,0.5,1.3,1.2,1.9,2c0.2,0.3,0.3,0.5,0.5,0.9c0.2,0.4,0.5,1,0.8,1.7c0.5,1.1,1.1,2.6,1.9,4.4
			c1.3,3.1,2.8,6.7,2.8,6.7l-10.5,3.8c-0.8,0.3-1.7-0.1-2-1l-2.1-4.7"/>
	</g>
	<g>
		<path class="st35" d="M384.4,191.6l-3.1,3.8c-1.6,2-2.6,0.9-2.6,0.9l-8.5-6.7c0,0,2.1-2.8,4.3-5.4c1.3-1.6,2.3-2.9,3.1-3.8
			c0.5-0.6,0.9-1.1,1.2-1.4c0.3-0.3,0.5-0.5,0.7-0.7c0.7-0.7,1.6-1.1,2.5-1.4"/>
	</g>
	<path class="st35" d="M384.5,191.6c0,0,0.8,1,3.5,1.4c2.7,0.3,4.5-0.2,4.5-0.2"/>
	<path class="st39" d="M388.7,186.1c0,0-1.8,4.9,1.3,6.9"/>
	<line class="st40" x1="368.3" y1="164.9" x2="343.2" y2="177.4"/>
	<line class="st41" x1="352.7" y1="172.7" x2="343.2" y2="177.4"/>
	<line class="st37" x1="370.9" y1="144.9" x2="360.7" y2="143.9"/>
	<g>
		<polygon class="st42" points="365.7,217.4 363.1,220.5 359.3,220.4 362.6,217.1 		"/>
		<path class="st31" d="M373.3,226v-10.5H367v-1.2l-4.4-0.2v3l0,0c-1.1,1.9-3,3.3-5.1,3.8l-2.9,0.7c-0.7,0.4-1.1,1.2-1.1,2v2.3
			H373.3z"/>
		<path class="st43" d="M373.3,226v-10.5H367v-1.2l-4.4-0.2v3l0,0c-1.1,1.9-3,3.3-5.1,3.8l-2.9,0.7c-0.7,0.4-1.1,1.2-1.1,2v2.3
			H373.3z"/>
		<path class="st44" d="M373.2,212.7h-4.7c-1.5,0-2.8,1.3-2.8,2.8l0,0h7.5c0.8,0,1.4-0.6,1.4-1.4l0,0
			C374.6,213.3,374,212.7,373.2,212.7z"/>
		<g>
			<path class="st4" d="M354,227.8h18.8c0.7,0,1.3-0.7,1.3-1.5s-0.6-1.5-1.3-1.5H354c-0.7,0-1.3,0.7-1.3,1.5S353.3,227.8,354,227.8z
				"/>
		</g>
		<polyline class="st35" points="358.9,220.5 363.1,220.5 365.7,217.4 365.7,215.5 		"/>
		<line class="st35" x1="365.7" y1="217.4" x2="362.7" y2="217.4"/>
		<line class="st45" x1="364.3" y1="219" x2="361.2" y2="219"/>
	</g>
	<g>
		<path class="st31" d="M362.7,159.1c2.6-3,7.3-3.5,10.4-0.8c3.1,2.6,3.4,7.4,0.8,10.4C371.4,171.7,360.1,162.1,362.7,159.1z"/>
		<path class="st22" d="M362.7,159.1c2.6-3,7.3-3.5,10.4-0.8c3.1,2.6,3.4,7.4,0.8,10.4C371.4,171.7,360.1,162.1,362.7,159.1z"/>
	</g>
	<g>
		<path class="st4" d="M402.4,196l2.2-0.8l-0.6-1.8l-1.5,0.6c-0.4,0.1-0.6,0.5-0.4,0.9L402.4,196z"/>
		<path class="st4" d="M398,197.6l2.2-0.8l-0.4-1.1c-0.1-0.4-0.5-0.6-0.9-0.4l-0.9,0.3c-0.4,0.1-0.6,0.5-0.4,0.9L398,197.6z"/>
		<path class="st4" d="M393.7,199.2l2.2-0.8l-0.4-1.1c-0.1-0.4-0.5-0.6-0.9-0.4l-1.5,0.6L393.7,199.2z"/>
	</g>
	<g>
		<path class="st4" d="M372.3,191.3l-1.8-1.4l1.1-1.5l1.3,1c0.3,0.2,0.4,0.7,0.1,1L372.3,191.3z"/>
		<path class="st4" d="M376.2,194.3l-1.8-1.4l0.7-1c0.2-0.3,0.7-0.4,1-0.1l0.7,0.5c0.3,0.2,0.4,0.7,0.1,1L376.2,194.3z"/>
		<path class="st4" d="M379.7,196.8l-1.8-1.4l0.7-1c0.2-0.3,0.7-0.4,1-0.1l1.3,1L379.7,196.8z"/>
	</g>
	<g>
		<path class="st31" d="M412.8,193.3l-0.9-6.3c-0.3-1.8-1.7-3.8-3.9-5.5l-7.4-5.6c-2.4-1.8-5.6-1.5-5.5,0.5l0.4,6.7
			c0.1,1.7,1.4,3.6,3.6,5.1l8.5,5.8C410,195.7,413.1,195.3,412.8,193.3z"/>
		<path class="st35" d="M412.8,193.3l-0.9-6.3c-0.3-1.8-1.7-3.8-3.9-5.5l-7.4-5.6c-2.4-1.8-5.6-1.5-5.5,0.5l0.4,6.7
			c0.1,1.7,1.4,3.6,3.6,5.1l8.5,5.8C410,195.7,413.1,195.3,412.8,193.3z"/>
	</g>
	<g>
		<path class="st31" d="M388.2,189.5c1-0.1,2.1-0.3,3.2-0.6c7.9-2.3,9-10.6,9-11c0.1-1.1-0.6-2-1.7-2.1c-1-0.1-2,0.6-2.1,1.7
			c0,0.3-0.8,6.1-6.3,7.7c-6.6,1.9-10.2-2.1-11.2-3.4c-0.6-0.8-1.8-1-2.7-0.4c-0.8,0.6-1,1.8-0.4,2.7
			C378.4,187.2,382.7,189.9,388.2,189.5z"/>
		<path class="st35" d="M388.5,189.5c1-0.1,2.1-0.4,3.2-0.8c7.8-2.7,8.4-11.1,8.4-11.4c0.1-1.1-0.7-2-1.8-2c-1.1-0.1-2,0.7-2,1.8
			c0,0.3-0.5,6.1-5.8,8c-6.5,2.3-10.3-1.6-11.4-2.8c-0.7-0.8-1.9-0.9-2.7-0.2c-0.8,0.7-0.9,1.9-0.2,2.7
			C378.6,187.7,383,190.2,388.5,189.5z"/>
	</g>
	<path class="st31" d="M367.8,168.5L367.8,168.5c-1.5-4.2,0.5-8.8,4.4-10.1l13.7-4.8c3.9-1.3,8.2,1,9.7,5.2v0
		c0.4,1.1,2.1,6.1,2.7,7.7c1.1,3.1,1.2,6.4,0.6,9.3c-0.3,1.2-0.6,2.3-1.2,3.4c-1.6,3.4-4.4,6.2-8.2,7.5c-3.7,1.3-7.6,0.9-11-0.8
		c-1.1-0.5-2.1-1.2-3-2c-2.3-1.9-4.2-4.5-5.3-7.7C369.5,174.5,368.1,169.4,367.8,168.5z"/>
	<path class="st39" d="M368,168L368,168c-1.5-4.2,0.5-8.8,4.4-10.1l13.7-4.8c3.9-1.3,8.2,1,9.7,5.2v0c0.4,1.1,2.1,6.1,2.7,7.7
		c1.1,3.1,1.2,6.4,0.6,9.3c-0.3,1.2-0.6,2.3-1.2,3.4c-1.6,3.4-4.4,6.2-8.2,7.5c-3.7,1.3-7.6,0.9-11-0.8c-1.1-0.5-2.1-1.2-3-2
		c-2.3-1.9-4.2-4.5-5.3-7.7C369.7,174.1,368.3,169,368,168z"/>
	<path class="st31" d="M371.7,154.7l13.2-4.1c1.5-0.5,2.4-2.1,1.9-3.6l-5.1-16.6l-18.7,5.7l5.1,16.6
		C368.6,154.3,370.2,155.1,371.7,154.7z"/>
	
		<rect x="364.7" y="136.7" transform="matrix(0.9658 -0.2594 0.2594 0.9658 -23.0516 101.8809)" class="st4" width="19.6" height="3.1"/>
	<path class="st35" d="M371.3,154.5l13.4-3.6c1.5-0.4,2.4-2,2-3.5l-4.5-16.8l-18.9,5.1l4.5,16.8C368.2,154,369.8,154.9,371.3,154.5z
		"/>
	
		<rect x="373.6" y="145.4" transform="matrix(-0.9623 0.2719 -0.2719 -0.9623 777.7748 190.7101)" class="st4" width="4.1" height="7.6"/>
	<line class="st35" x1="384.9" y1="137.1" x2="364.6" y2="142.5"/>
	<line class="st35" x1="383.8" y1="134.1" x2="363.6" y2="139.6"/>
	<line class="st46" x1="379.5" y1="143.6" x2="369.4" y2="146.4"/>
	<g>
		<path class="st31" d="M371.9,158.5L371.9,158.5c5,5.1,13.7,2.9,15.6-4v0l-0.4-1.5c-0.2-0.9-1.2-1.5-2.1-1.3l-12.2,3.2
			c-0.9,0.2-1.5,1.2-1.3,2.1L371.9,158.5z"/>
		<path class="st35" d="M371.6,158.6L371.6,158.6c5,5.1,13.7,2.9,15.6-4v0l-0.4-1.5c-0.2-0.9-1.2-1.5-2.1-1.3l-12.2,3.2
			c-0.9,0.2-1.5,1.2-1.3,2.1L371.6,158.6z"/>
		<path class="st47" d="M373.8,156.7c3.7,1.2,9.2-0.1,10.9-3.6"/>
	</g>
	<path class="st4" d="M374.5,156.9L374.5,156.9c3.9,0.9,7.8-0.6,10.2-3.6l0,0l-0.7-2.7l-10.7,3L374.5,156.9z"/>
	<path class="st31" d="M425.7,160.2"/>
	<path class="st35" d="M388.6,186.6c0,0-6.8,2.1-10.4-9.7l0,0l-2.9-9.7l-0.8-2.9c-0.3-1.3,0.3-2.7,1.5-3.1v0"/>
	<polyline class="st40" points="390.3,158.6 390,174.5 375.4,183.9 	"/>
	<g>
		<path class="st48" d="M337.5,174.5c0,0,2.7,3.3,14.8,3.3s16.4-3.3,16.4-3.3s21.3,27.4-2.4,55.8c0,0-12.5,5-26.8,0.4
			C339.4,230.7,315.4,207.6,337.5,174.5z"/>
		<path class="st49" d="M337.4,174.8c0,0-22.4,27.7,1.8,55.8c0,0-12.4-16.8-1-54.5C338.4,175.4,337.3,175.4,337.4,174.8z"/>
		<path class="st49" d="M341.9,176.7l10.4,1.1l-0.3,54.5l-8.6-0.6C343.5,231.7,337.9,197.7,341.9,176.7z"/>
		<path class="st49" d="M362.4,176.7l5.2-0.8c0,0,10.8,21.8,0.9,51.4l-3.1,3.2l-5,1.4C360.5,231.9,365.8,221.1,362.4,176.7z"/>
		<g>
			<path class="st35" d="M367.8,173.5L367.8,173.5l-9.4-0.1l-20.2-0.1c-5.7,7.4-10.3,19-10.2,28.3c0.2,11.2,4.5,20.2,11.4,29.1
				c0,0,3.9,1.5,12.8,1.5c8.9,0,13.3-1.7,13.3-1.7C380.1,217.9,380.4,189.7,367.8,173.5z"/>
			<path class="st35" d="M342.7,173.5c0,0-2,10.7-2,27.5s3,30.6,3,30.6"/>
			<line class="st35" x1="352.1" y1="173.5" x2="352.2" y2="232.1"/>
			<path class="st35" d="M361.6,173.5c0,0,2.2,12,2.2,27.7s-3.1,30.2-3.1,30.2"/>
			<path class="st35" d="M367.6,175.9c0,0,12.2,30.5-0.8,53.5"/>
			<path class="st35" d="M338.3,175.9c0,0-11.7,31.7,1.3,54.7"/>
			<path class="st50" d="M375.3,189.8c0,0-8.6,4.1-23.1,4.1c-14.5,0-22.3-3.9-22.3-3.9l2.5-6.5c0,0,5.3,3.7,19.8,3.7
				c14.6,0,21.2-3.8,21.2-3.8l0.9,3.2L375.3,189.8z"/>
			<path class="st50" d="M374.1,217.5c0,0-8.1,3.3-22,3.3c-13.8,0-20.9-3.6-20.9-3.6l-1.6-5c0,0,8.7,3.1,22.5,3.1s23.6-3,23.6-3
				L374.1,217.5z"/>
			<ellipse class="st51" cx="352.9" cy="174.4" rx="15.6" ry="3.4"/>
			<path class="st49" d="M337.5,173.9c0,0,3.5-3.3,14.1-2.9c10.7,0.3,16.7,1,16.8,3.4c0.2,2.4-3.5,0.5-7.5,0c-4-0.5-3.2-1.3-7.1-1
				c-4,0.3-13,0.6-14.1,2.2S337.4,174.9,337.5,173.9z"/>
			<ellipse class="st35" cx="352.9" cy="174.4" rx="15.6" ry="3.4"/>
			<path class="st35" d="M366.8,175.6c0,0-4-2.2-14.3-2.2c-10.6,0-13.3,2.2-13.3,2.2"/>
		</g>
		<g>
			<circle class="st4" cx="331.7" cy="187.4" r="1.1"/>
			<circle class="st4" cx="331.3" cy="215.2" r="1.1"/>
			<circle class="st4" cx="337.6" cy="216.6" r="1.1"/>
			<circle class="st4" cx="346.7" cy="217.7" r="1.1"/>
			<circle class="st4" cx="358.1" cy="217.7" r="1.1"/>
			<circle class="st4" cx="368" cy="216.3" r="1.1"/>
			<path class="st4" d="M375.4,215.2c0,0.6-0.4,1-1,1s-1.1-0.5-1.1-1.1s0.5-1.1,1.1-1.1S375.4,214.6,375.4,215.2z"/>
			<circle class="st4" cx="337.9" cy="189" r="1.1"/>
			<circle class="st4" cx="346.9" cy="190.1" r="1.1"/>
			<circle class="st4" cx="358.4" cy="189.9" r="1.1"/>
			<circle class="st4" cx="367.3" cy="188.7" r="1.1"/>
			<circle class="st4" cx="373.7" cy="186.3" r="1.1"/>
		</g>
	</g>
	<line class="st40" x1="390" y1="174.5" x2="375.4" y2="183.9"/>
	<line class="st41" x1="384.3" y1="178.2" x2="375.4" y2="183.9"/>
	<g>
		<path class="st31" d="M397.4,159.8c0.2-3.9-3-7.5-7-7.7c-4.1-0.2-7.5,3.1-7.7,7S397.2,163.7,397.4,159.8z"/>
		<path class="st22" d="M397.4,159.8c0.2-3.9-3-7.5-7-7.7c-4.1-0.2-7.5,3.1-7.7,7S397.2,163.7,397.4,159.8z"/>
	</g>
	<g>
		<g>
			<path class="st31" d="M416.4,221.5l-3.2-6.3l-4.8,3c-3.8-5.8-8.1-1.3-8.1-1.3l2.4,4.4l-0.5,3.2c-0.2,1.5-1.2,2.8-2.5,3.6
				l-1.5,0.8c-0.6,0.6-0.9,1.5-0.7,2.4l0.6,2.5l7.8-0.8L416.4,221.5z"/>
			<path class="st52" d="M416.4,221.5l-3.2-6.3l-4.8,3c-3.8-5.8-8.1-1.3-8.1-1.3l2.4,4.4l-0.5,3.2c-0.2,1.5-1.2,2.8-2.5,3.6
				l-1.5,0.8c-0.6,0.6-0.9,1.5-0.7,2.4l0.6,2.5l7.8-0.8L416.4,221.5z"/>
			<path class="st53" d="M411.8,212.8l-4.4,2.7c-1.4,0.9-1.9,2.8-1,4.2l0,0l7-4.3c0.7-0.4,0.9-1.4,0.5-2.1l0,0
				C413.4,212.6,412.5,212.3,411.8,212.8z"/>
			<polyline class="st52" points="406.6,219.9 407.3,221.3 406.5,224.3 402.3,225.3 			"/>
			<path class="st52" d="M399,228.4c0,0,1.2-0.7,3.1-0.9c1.9-0.1,3.2,0.9,3.2,0.9"/>
			<line class="st52" x1="406.6" y1="220.2" x2="402.6" y2="221.1"/>
		</g>
		<polyline class="st54" points="398.3,233.7 406.9,232.9 412.6,226.1 416.4,221.5 		"/>
	</g>
	<g>
		<g>
			<circle class="st31" cx="373.5" cy="185.4" r="4.2"/>
			<g>
				<path class="st55" d="M373,191.4c-1.6,0.5-3.1,0-3.3,0c-0.9-0.3-1.3-1.2-1-2.1c0.3-0.9,1.2-1.3,2.1-1c0.2,0.1,0.8,0.2,1.2,0
					c0.5-0.2,0.9-0.6,1-0.7c0.5-0.7,1.6-0.9,2.3-0.4c0.7,0.5,0.9,1.6,0.4,2.3C375.6,189.6,374.6,190.8,373,191.4z"/>
			</g>
			<g>
				<path class="st55" d="M370.5,190.2c-1.7,0.1-3-0.8-3.2-0.9c-0.8-0.5-0.9-1.5-0.4-2.3c0.5-0.7,1.5-0.9,2.3-0.4
					c0.2,0.1,0.7,0.4,1.2,0.3c0.5,0,1-0.3,1.2-0.4c0.7-0.6,1.7-0.5,2.3,0.2c0.6,0.7,0.5,1.7-0.2,2.3
					C373.5,189.2,372.2,190.1,370.5,190.2z"/>
			</g>
			<g>
				<path class="st55" d="M369.7,187.3c-1.6,0.5-3.1,0.1-3.3,0c-0.9-0.3-1.3-1.2-1-2.1c0.3-0.9,1.2-1.3,2.1-1c0.2,0.1,0.8,0.2,1.2,0
					c0.5-0.2,0.9-0.6,1-0.7c0.5-0.7,1.5-0.9,2.3-0.4c0.7,0.5,0.9,1.6,0.4,2.3C372.2,185.5,371.3,186.8,369.7,187.3z"/>
			</g>
			<g>
				<path class="st55" d="M375.2,184.1c-0.9,0.3-1.8-0.1-2.2-1c0,0-0.6-1.3-1.7-2c-0.9-0.5-1.1-1.6-0.6-2.5c0.5-0.9,1.6-1.1,2.5-0.6
					c2.1,1.3,3.1,3.4,3.2,3.6c0.4,0.9,0,2-0.9,2.4C375.3,184,375.3,184,375.2,184.1z"/>
			</g>
		</g>
		<g>
			<path class="st22" d="M369.9,183.2c0.6-0.9,1-1.4,2-1.7"/>
			<g>
				<path class="st22" d="M375.9,189c-0.1,0.1-0.1,0.3-0.2,0.4c-0.1,0.1-1.1,1.4-2.7,1.9s-3.1,0-3.3,0c-0.6-0.2-1-0.8-1.1-1.4"/>
			</g>
			<g>
				<path class="st22" d="M373.6,189c-0.1,0.1-1.4,1.1-3.1,1.2s-3-0.8-3.2-0.9c-0.6-0.4-0.9-1.2-0.6-1.9"/>
			</g>
			<g>
				<path class="st22" d="M371.4,186.4c-0.4,0.4-1,0.7-1.7,0.9c-1.6,0.5-3.1,0.1-3.3,0c-0.9-0.3-1.3-1.2-1-2.1
					c0.3-0.9,1.2-1.3,2.1-1c0.2,0.1,0.8,0.2,1.2,0c0.5-0.2,0.9-0.6,1-0.7c0.1-0.1,0.1-0.2,0.2-0.3"/>
			</g>
			<g>
				<path class="st22" d="M371.8,181.5c-0.2-0.1-0.3-0.3-0.5-0.4c-0.9-0.5-1.1-1.6-0.6-2.5c0.5-0.9,1.6-1.1,2.5-0.6
					c0.3,0.1,0.5,0.3,0.7,0.5"/>
			</g>
		</g>
	</g>
</g>
<path class="st5" d="M366.2,135c0,0,0.6,12.8,8.5,18.5l-4.3,1c0,0-2.1,0.9-3.6-4.8c-1.5-5.7-3.6-14-3.6-14L366.2,135z"/>
<path class="st5" d="M363.3,158.6c0,0-0.8,2.7,4,7.2v1.8C367.3,167.6,360.1,162.3,363.3,158.6z"/>
<path class="st5" d="M349.8,168.2c0,0,1.4,3.3,5.4,3s-12,0.1-12,0.1L349.8,168.2z"/>
<path class="st5" d="M383.3,158.2c0,0,6.2,5.8,14.1,1.6l-0.6,1.6l-5.2,1.3C391.6,162.7,381.8,163.2,383.3,158.2z"/>
<path class="st5" d="M371.1,158.8c0,0-4.2,3.2-3.8,5.8c0.4,2.6,4.1,13.1,4.1,13.1l2.4,0.7l3-1.5c0,0-8.8-5.8-7.5-13.3
	C369.8,161,371.1,158.8,371.1,158.8z"/>
<path class="st5" d="M373.8,154.9l0.8,2c0,0-1,3.1,1.1,3.5h-1.8c0,0-3.2-1.1-2.7-3.4S372.7,154.2,373.8,154.9z"/>
<path class="st5" d="M382.2,186.3l1.4-0.8l4.8,1.1c0,0,1.9,2.1,6.3,0.5c0.5-0.2,1.2-0.7,1.7-0.8c0.8-0.2,6.4,4.6,6.4,4.6l2.2,4.2
	l-11.4,4.2l-3.2-6c0,0-5.2,0.1-5.8-1.5c-0.6-1.6-4.7,4.7-4.7,4.7l-3.6-1.9l-0.6-4.7L382.2,186.3z"/>
<path class="st5" d="M367,187.8c0,0,3.3,1.7,8.3-0.7c5-2.4,5-1,9-2.4s-0.7,0.8-0.7,0.8l-5.8,3.5l-2.5,0.8c0,0-4,2.6-6.2,0.9
	S365.5,189.5,367,187.8z"/>
<path class="st5" d="M398.1,183.4c0,0,6.9,9.9,14.1,10.5l-0.1,0.8h-3.8l-9.2-6.3l-2.6-2.5L398.1,183.4z"/>
<path class="st5" d="M332.8,181c0,0-1.4,38,35.8,45l-3.2,4.5l-10.5,2.6l-15.7-1.2c0,0-8.8-11.7-10.8-25.4
	C326.4,192.9,330.8,191.2,332.8,181z"/>
<path class="st5" d="M351.6,171l-1.2,2.6c0,0-11.8,1.7-3.9,3.3C354.3,178.5,318.1,174.3,351.6,171z"/>
<path class="st4" d="M265.6,168.6"/>
<g>
	<polygon class="st22" points="230.4,226.1 231.6,221.7 236.5,218 256.6,220.2 261.3,226.1 	"/>
	<polygon class="st20" points="230.4,226.1 231.6,221.7 236.5,218 256.6,220.2 261.3,226.1 	"/>
	<polygon class="st21" points="230.4,226.1 231.6,221.7 236.5,218 247.3,219.5 249,223.1 249.8,226.1 	"/>
	<polygon class="st22" points="230.4,226.1 231.6,221.7 236.5,218 256.6,220.2 261.3,226.1 	"/>
	<polyline class="st22" points="231.6,221.7 249.8,223.1 256.6,220.2 	"/>
	<line class="st14" x1="249.8" y1="226.1" x2="249.8" y2="223.1"/>
</g>
<g>
	<path class="st48" d="M282.4,174.1c0,0,2.4,3,13.2,3s14.6-3,14.6-3s18.4,23.4-1.6,49.9c0,0-11.8,4.4-24.5,0.3
		C284.1,224.3,262.7,203.8,282.4,174.1z"/>
	<path class="st49" d="M282.3,174.4c0,0-20,24.7,1.6,49.8c0,0-11.1-15-0.9-48.7C283.2,175,282.2,175,282.3,174.4z"/>
	<path class="st49" d="M286.3,176.2l9.3,1l-0.3,48.6l-7.7-0.6C287.7,225.2,282.8,194.9,286.3,176.2z"/>
	<path class="st49" d="M304.6,176.2l4.7-0.7c0,0,9.6,19.5,0.8,45.9l-2.8,2.8l-4.4,1.2C302.9,225.4,307.6,215.7,304.6,176.2z"/>
	<g>
		<path class="st35" d="M309.4,173.3L309.4,173.3l-8.4-0.1l-18.1-0.1c-5.1,6.6-9.2,17-9.1,25.2c0.2,10,4,18.1,10.1,26
			c0,0,3.5,1.3,11.4,1.3c7.9,0,11.8-1.5,11.8-1.5C320.4,213,320.7,187.8,309.4,173.3z"/>
		<path class="st35" d="M287,173.3c0,0-1.8,9.6-1.8,24.6s2.7,27.3,2.7,27.3"/>
		<line class="st35" x1="295.4" y1="173.3" x2="295.5" y2="225.6"/>
		<path class="st35" d="M303.9,173.3c0,0,2,10.7,2,24.7s-2.8,27-2.8,27"/>
		<path class="st35" d="M309.2,175.4c0,0,10.9,27.2-0.7,47.8"/>
		<path class="st35" d="M283.1,175.4c0,0-10.4,28.3,1.2,48.8"/>
		<path class="st50" d="M316.1,187.8c0,0-7.7,3.7-20.6,3.7c-13,0-19.9-3.5-19.9-3.5l2.2-5.8c0,0,4.7,3.3,17.7,3.3s18.9-3.4,18.9-3.4
			l0.8,2.8L316.1,187.8z"/>
		<path class="st50" d="M315.1,212.6c0,0-7.2,2.9-19.6,2.9s-18.7-3.2-18.7-3.2l-1.4-4.5c0,0,7.7,2.7,20.1,2.7s21-2.7,21-2.7
			L315.1,212.6z"/>
		<ellipse class="st51" cx="296.1" cy="174.1" rx="13.9" ry="3"/>
		<path class="st49" d="M282.3,173.7c0,0,3.1-2.9,12.6-2.6c9.5,0.3,14.9,0.9,15,3c0.1,2.1-3.1,0.4-6.7,0s-2.8-1.1-6.4-0.9
			s-11.6,0.6-12.6,2S282.3,174.6,282.3,173.7z"/>
		<ellipse class="st35" cx="296.1" cy="174.1" rx="13.9" ry="3"/>
		<path class="st35" d="M308.6,175.2c0,0-3.5-2-12.8-2c-9.5,0-11.9,2-11.9,2"/>
	</g>
	<g>
		<circle class="st4" cx="277.2" cy="185.6" r="1"/>
		<circle class="st4" cx="276.8" cy="210.5" r="1"/>
		<circle class="st4" cx="282.5" cy="211.8" r="1"/>
		<circle class="st4" cx="290.6" cy="212.7" r="1"/>
		<circle class="st4" cx="300.8" cy="212.7" r="1"/>
		<circle class="st4" cx="309.6" cy="211.5" r="1"/>
		<path class="st4" d="M316.2,210.5c0,0.5-0.3,0.9-0.9,0.9c-0.5,0-1-0.4-1-1c0-0.5,0.4-1,1-1C315.9,209.5,316.2,210,316.2,210.5z"/>
		<circle class="st4" cx="282.7" cy="187.2" r="1"/>
		<circle class="st4" cx="290.8" cy="188.1" r="1"/>
		<circle class="st4" cx="301" cy="187.9" r="1"/>
		<circle class="st4" cx="309" cy="186.9" r="1"/>
		<circle class="st4" cx="314.7" cy="184.7" r="1"/>
	</g>
</g>
<g>
	<path class="st48" d="M247,172.2c0,0,2.7,3.3,14.7,3.3s16.3-3.3,16.3-3.3s21.1,28-2.7,56c0,0-12.2,4.7-26.5,0.1
		C248.9,228.4,224.9,205.4,247,172.2z"/>
	<path class="st49" d="M246.9,172.6c0,0-22.3,27.7,1.8,55.7c0,0-12.4-16.8-1-54.5C247.9,173.2,246.8,173.2,246.9,172.6z"/>
	<path class="st49" d="M251.4,174.5l10.4,1.1l-0.3,54.4l-8.6-0.6C252.9,229.4,247.4,195.5,251.4,174.5z"/>
	<path class="st49" d="M271.8,174.5l5.2-0.8c0,0,10.8,21.8,0.9,51.4l-3.1,3.2l-4.9,1.4C269.9,229.6,275.2,218.8,271.8,174.5z"/>
	<g>
		<path class="st35" d="M277.2,171.3L277.2,171.3l-9.4-0.1l-20.2-0.1c-5.7,7.4-10.3,19-10.1,28.2c0.2,11.2,4.4,20.2,11.3,29.1
			c0,0,3.9,1.5,12.8,1.5c8.9,0,13.2-1.7,13.2-1.7C289.5,215.7,289.8,187.5,277.2,171.3z"/>
		<path class="st35" d="M252.1,171.3c0,0-2,10.7-2,27.5s3,30.6,3,30.6"/>
		<line class="st35" x1="261.6" y1="171.3" x2="261.7" y2="229.8"/>
		<path class="st35" d="M271,171.3c0,0,2.2,12,2.2,27.7s-3.1,30.2-3.1,30.2"/>
		<path class="st35" d="M277,173.6c0,0,12.2,30.4-0.8,53.4"/>
		<path class="st35" d="M247.8,173.6c0,0-11.7,31.6,1.3,54.6"/>
		<path class="st50" d="M284.7,187.5c0,0-8.6,4.1-23.1,4.1c-14.5,0-22.3-3.9-22.3-3.9l2.5-6.5c0,0,5.2,3.7,19.8,3.7
			c14.6,0,21.2-3.8,21.2-3.8l0.9,3.2L284.7,187.5z"/>
		<path class="st50" d="M283.5,215.2c0,0-8.1,3.3-21.9,3.3c-13.8,0-20.9-3.6-20.9-3.6l-1.6-5c0,0,8.6,3.1,22.5,3.1
			c13.9,0,23.6-3,23.6-3L283.5,215.2z"/>
		<ellipse class="st51" cx="262.3" cy="172.1" rx="15.5" ry="3.4"/>
		<path class="st49" d="M246.9,171.7c0,0,3.5-3.3,14.1-2.9c10.6,0.3,16.7,1,16.8,3.4c0.2,2.4-3.5,0.5-7.5,0c-4-0.5-3.2-1.3-7.1-1
			c-4,0.3-13,0.6-14.1,2.2C248.1,175,246.9,172.7,246.9,171.7z"/>
		<ellipse class="st35" cx="262.3" cy="172.1" rx="15.5" ry="3.4"/>
		<path class="st35" d="M276.3,173.4c0,0-4-2.2-14.3-2.2c-10.6,0-13.3,2.2-13.3,2.2"/>
	</g>
	<g>
		<circle class="st4" cx="241.2" cy="185.1" r="1.1"/>
		<circle class="st4" cx="240.7" cy="213" r="1.1"/>
		<circle class="st4" cx="247.1" cy="214.3" r="1.1"/>
		<circle class="st4" cx="256.1" cy="215.4" r="1.1"/>
		<circle class="st4" cx="267.6" cy="215.4" r="1.1"/>
		<circle class="st4" cx="277.4" cy="214" r="1.1"/>
		<path class="st4" d="M284.8,213c0,0.6-0.4,1-1,1c-0.6,0-1.1-0.5-1.1-1.1s0.5-1.1,1.1-1.1C284.4,211.8,284.8,212.4,284.8,213z"/>
		<circle class="st4" cx="247.4" cy="186.8" r="1.1"/>
		<circle class="st4" cx="256.4" cy="187.9" r="1.1"/>
		<circle class="st4" cx="267.8" cy="187.7" r="1.1"/>
		<circle class="st4" cx="276.8" cy="186.5" r="1.1"/>
		<circle class="st4" cx="283.1" cy="184.1" r="1.1"/>
	</g>
</g>
<path class="st49" d="M252.9,225.4"/>
<path class="st5" d="M264.9,168.6l-0.2,2.7c0,0-7,3.2,0.9,4.4c3.1,0.5-5.6,0.4-11.8-0.7C244.5,173.3,241.2,169.7,264.9,168.6z"/>
<path class="st5" d="M257,175.1c0,0-5,38.1,25,44.3c0,0-6,7.2-7.1,8.9c-1.1,1.7-17.7,2.8-24,0.6c-6.3-2.2-14.6-23-13.4-31.8
	c1.2-8.8,9.4-25.3,9.4-25.3S244,175.2,257,175.1z"/>
<path class="st5" d="M284.1,172.6l-3.8,3.8l-0.4,47.4l22.3,1.2l6.2-11.7C308.3,213.2,286.9,204.3,284.1,172.6"/>
<g>
	<polyline class="st56" points="174.3,203.2 176.4,225 181,245.6 	"/>
	<polyline class="st56" points="151.5,201.5 138.7,215.4 126,236.2 	"/>
	<g>
		<path class="st31" d="M164.7,205.8c-2.6-14.6-0.8-13.4-1.4-16c-0.3-0.8-0.6-1.7-0.6-2.6c-0.4-4.7,3-8.9,7.7-9.3
			c3.9-0.4,7.5,2,8.9,5.7c0.1,0.4,0.3,0.8,0.4,1.4c0.2,0.6,0.4,1.5,0.6,2.5c0.3,1.6,0.8,3.9,1.3,6.6c0.9,4.7,1.7,10.1,1.7,10.1
			L164.7,205.8z M166.4,193.6c1.5,1,3.3,1.6,5.5,1.4C169.9,195.2,168,194.7,166.4,193.6z"/>
	</g>
	<g>
		<path class="st31" d="M142,203.2c0,0,0.7-4.8,1.5-9.5c0.4-2.8,0.8-5,1.1-6.7c0.2-1.1,0.4-1.9,0.5-2.5c0.1-0.5,0.3-1,0.4-1.4
			c1.5-4.3,5.7-6.8,10.3-5.7c3.3,0.8,6,3.7,6.4,7.1c0.2,1.6,0,3-0.5,4.3c-0.3,1.4,0.3,6.6-0.4,11c-0.2,1.3-1.9,2.9-2,3.8
			c-0.2,1.2-1.3,2-2.4,1.8L142,203.2z M153.1,194.2c2.2,0.1,4.1-0.5,5.5-1.6C157.1,193.8,155.1,194.3,153.1,194.2z"/>
	</g>
	<path class="st31" d="M154,194.4c0.2,3.4,3.1,5.7,6.4,5.4l5.8-0.1l0,0c3.4-0.2,5.9-3.1,5.7-6.5l-0.2-2.4c-0.2-3.4-3.1-5.9-6.5-5.7
		l-5.7,0.4c-3.4,0.2-5.9,3.1-5.7,6.5L154,194.4z"/>
	<g>
		<path class="st57" d="M177.4,180c0.8,0.9,1.4,2,1.9,3.3c0.1,0.4,0.2,0.8,0.4,1.4c0.1,0.6,0.3,1.4,0.5,2.5c0.3,1.6,0.7,3.8,1.1,6.6
			c0.8,4.7,1.5,10,1.5,10l-18.1,2l-0.1-6.4"/>
	</g>
	<g>
		<path class="st58" d="M161.9,199.4l-2.5,3.6c-0.6,3.5-2.5,2.9-2.5,2.9l-14.9-2.5c0,0,0.8-4.8,1.7-9.5c0.5-2.8,0.9-5,1.3-6.6
			c0.2-1.1,0.4-1.9,0.6-2.5c0.1-0.5,0.3-1,0.4-1.4c0.5-1.3,1.2-2.4,2.1-3.3"/>
	</g>
	<line class="st58" x1="166.8" y1="199.5" x2="160.4" y2="199.4"/>
	<path class="st35" d="M162.1,190.3c0,0-2,6.2,1.6,9.1"/>
	<polyline class="st56" points="148.8,153.3 127,156.1 124.5,133.1 	"/>
	<g>
		<path class="st48" d="M172.7,92.8c0,0-4.2,4.5-1.7,21.7s8.1,22.6,8.1,22.6s-38.2,35.1-80.4,7.5c0,0-9.2-16.2-5.6-37.5
			C93.1,107.1,120.9,68.2,172.7,92.8z"/>
		<path class="st49" d="M172.3,92.8c0,0-44-26.1-79.1,14c0,0,21.4-21.1,77.4-12.7C171.6,94.3,171.3,92.7,172.3,92.8z"/>
		<path class="st49" d="M170.4,99.5l0.6,15.1l-77.7,10.8l-0.9-12.4C92.5,113.1,139.7,98.2,170.4,99.5z"/>
		<path class="st49" d="M174.6,128.7l2.2,7.3c0,0-28.9,19.9-73,11.9l-5.2-3.8l-3-6.8C95.6,137.3,112.2,142.7,174.6,128.7z"/>
		<g>
			<path class="st59" d="M180.4,135.7L180.4,135.7l-1.8-13.4l-4.1-28.8c-11.7-6.6-29.2-10.7-42.3-8.6c-15.9,2.6-27.9,10.5-39.1,22.2
				c0,0-1.3,5.9,0.5,18.5s5.1,18.5,5.1,18.5C119.6,162.4,159.8,157,180.4,135.7z"/>
			<path class="st59" d="M175.2,100c0,0-15.7-0.7-39.6,2.8s-43,10.6-43,10.6"/>
			<line class="st59" x1="177.1" y1="113.4" x2="93.7" y2="125.7"/>
			<path class="st59" d="M179.1,126.9c0,0-16.6,5.6-39,8.9c-22.4,3.2-43.7,1.8-43.7,1.8"/>
			<path class="st59" d="M176.9,135.9c0,0-40.9,23.7-76.3,9.9"/>
			<path class="st59" d="M170.9,94.2c0,0-47.5-10.1-77.6,13.2"/>
			<path class="st60" d="M158.7,149.7c0,0-7.6-11.4-10.7-32.1c-3-20.7,1-32.5,1-32.5l9.7,2.2c0,0-4.2,8.2-1.2,29s9.8,29.4,9.8,29.4
				l-4.3,2L158.7,149.7z"/>
			<path class="st60" d="M119,153.8c0,0-6.4-10.9-9.2-30.6s0.9-30.5,0.9-30.5l6.8-3.3c0,0-2.6,13,0.3,32.7s9.1,33,9.1,33L119,153.8z
				"/>
			
				<ellipse transform="matrix(0.9896 -0.1435 0.1435 0.9896 -14.6349 26.4498)" class="st61" cx="176" cy="114.7" rx="4.9" ry="22.4"/>
			<path class="st49" d="M173.5,92.6c0,0,5.4,4.3,7.1,19.5s2.1,24-1.3,24.7c-3.4,0.7-1.4-4.9-1.5-10.6s1.2-4.8-0.1-10.4
				c-1.3-5.6-3.6-18.4-6.1-19.7S172,92.8,173.5,92.6z"/>
			
				<ellipse transform="matrix(0.9896 -0.1435 0.1435 0.9896 -14.6349 26.4498)" class="st59" cx="176" cy="114.7" rx="4.9" ry="22.4"/>
			<path class="st59" d="M177.1,134.8c0,0,2.3-6.1,0.2-20.8c-2.2-15.1-5.9-18.5-5.9-18.5"/>
		</g>
		<g>
			<circle class="st4" cx="153.2" cy="87.2" r="1.6"/>
			<circle class="st4" cx="113.4" cy="92.3" r="1.6"/>
			<circle class="st4" cx="112.7" cy="101.7" r="1.6"/>
			<circle class="st4" cx="113" cy="114.8" r="1.6"/>
			<circle class="st4" cx="115.4" cy="131.1" r="1.6"/>
			<circle class="st4" cx="119.5" cy="144.8" r="1.6"/>
			<path class="st4" d="M122.5,155.1c-0.9,0.1-1.6-0.3-1.7-1.2s0.5-1.7,1.4-1.8c0.9-0.1,1.7,0.5,1.8,1.4
				C124.1,154.4,123.3,155,122.5,155.1z"/>
			<circle class="st4" cx="152" cy="96.3" r="1.6"/>
			<circle class="st4" cx="152.3" cy="109.5" r="1.6"/>
			<circle class="st4" cx="155.1" cy="125.7" r="1.6"/>
			<circle class="st4" cx="158.6" cy="138.2" r="1.6"/>
			<circle class="st4" cx="163.3" cy="146.7" r="1.6"/>
		</g>
	</g>
	<path class="st19" d="M108.7,93.3c0,0,10.4,39.6,72.5,22.5c0,0,2.2,17.4-2,21.3c-2.8,2.5-18.7,15.2-37.1,16.9
		c-18.4,1.6-32.8-0.5-43.7-9.7c0,0-8.2-21-5.1-37.5C93.2,106.8,101.2,98.6,108.7,93.3z"/>
	<path class="st4" d="M181.7,204.3l3.3-0.2l-0.2-2.6l-2.3,0.2c-0.5,0-1,0.5-0.9,1.1L181.7,204.3z"/>
	<path class="st4" d="M175.2,204.8l3.3-0.2l-0.1-1.6c0-0.5-0.5-1-1.1-0.9l-1.3,0.1c-0.5,0-1,0.5-0.9,1.1L175.2,204.8z"/>
	<path class="st4" d="M168.7,205.3l3.3-0.2l-0.1-1.6c0-0.5-0.5-1-1.1-0.9l-2.3,0.2L168.7,205.3z"/>
	<path class="st4" d="M145.8,203.4l-3.1-0.6l0.5-2.6l2.2,0.4c0.5,0.1,0.9,0.6,0.8,1.1L145.8,203.4z"/>
	<path class="st4" d="M152.5,204.7l-3.1-0.6l0.3-1.6c0.1-0.5,0.6-0.9,1.1-0.8l1.2,0.2c0.5,0.1,0.9,0.6,0.8,1.1L152.5,204.7z"/>
	<path class="st4" d="M158.5,205.6l-3.1-0.6l0.3-1.6c0.1-0.5,0.6-0.9,1.1-0.8l2.2,0.4L158.5,205.6z"/>
	<g>
		<path class="st31" d="M194.2,207.9l0.6-8.8c0.2-2.6-1.1-5.7-3.6-8.6l-8.5-9.8c-2.7-3.1-7.2-3.7-7.7-1l-1.5,9.2
			c-0.4,2.4,0.9,5.4,3.4,8l9.8,10.4C189.6,210.4,194,210.7,194.2,207.9z"/>
		<path class="st58" d="M194.2,207.9l0.6-8.8c0.2-2.6-1.1-5.7-3.6-8.6l-8.5-9.8c-2.7-3.1-7.2-3.7-7.7-1l-1.5,9.2
			c-0.4,2.4,0.9,5.4,3.4,8l9.8,10.4C189.6,210.4,194,210.7,194.2,207.9z"/>
	</g>
	<g>
		<path class="st31" d="M137.7,205.5l-0.7-8.5c-0.2-2.5,1.1-5.5,3.4-8.4l8.1-9.6c2.6-3,7-3.7,7.4-1.1l1.5,8.9
			c0.4,2.3-0.8,5.2-3.2,7.8l-9.4,10.2C142.2,207.9,137.9,208.2,137.7,205.5z"/>
		<path class="st58" d="M137.7,205.5l-0.7-8.5c-0.2-2.5,1.1-5.5,3.4-8.4l8.1-9.6c2.6-3,7-3.7,7.4-1.1l1.5,8.9
			c0.4,2.3-0.8,5.2-3.2,7.8l-9.4,10.2C142.2,207.9,137.9,208.2,137.7,205.5z"/>
	</g>
	<path class="st31" d="M163.9,191c1.4,0.3,3,0.4,4.6,0.3c11.5-0.3,15.9-11,16.1-11.5c0.5-1.4-0.1-2.9-1.5-3.5
		c-1.4-0.5-2.9,0.1-3.5,1.5c-0.1,0.3-3.3,7.9-11.2,8.1c-9.6,0.2-13-6.5-13.9-8.6c-0.6-1.4-2.1-2-3.5-1.5c-1.4,0.6-2,2.1-1.5,3.5
		C151.5,184.3,156.3,189.6,163.9,191z"/>
	<path class="st58" d="M164.3,191.1c1.4,0.2,3,0.2,4.6,0.1c11.5-0.9,15.3-11.9,15.5-12.3c0.5-1.4-0.3-2.9-1.7-3.4
		c-1.4-0.5-2.9,0.3-3.4,1.7c-0.1,0.3-2.9,8.1-10.8,8.7c-9.5,0.7-13.4-5.8-14.3-7.9c-0.6-1.3-2.2-1.9-3.6-1.3
		c-1.3,0.6-1.9,2.2-1.3,3.6C151.6,185.1,156.7,190.1,164.3,191.1z"/>
	<path class="st31" d="M145,153.7L145,153.7c-0.1-6.3,4.5-11.4,10.2-11.5l20.3-0.3c5.7-0.1,10.4,4.9,10.5,11.2v0
		c0,1.7,0.1,9,0.1,11.3c0.1,4.6-1.2,9-3.3,12.6c-0.9,1.5-1.9,2.8-3,4c-3.7,3.8-8.6,6.2-14.1,6.3c-5.5,0.1-10.5-2.2-14.3-5.9
		c-1.2-1.2-2.2-2.5-3.1-3.9c-2.2-3.6-3.6-7.9-3.6-12.5C144.7,162.5,145,155.1,145,153.7z"/>
	<path class="st58" d="M145.5,153.3L145.5,153.3c-0.1-6.3,4.5-11.4,10.2-11.5l20.3-0.3c5.7-0.1,10.4,4.9,10.5,11.2v0
		c0,1.7,0.1,9,0.1,11.3c0.1,4.6-1.2,9-3.3,12.6c-0.9,1.5-1.9,2.8-3,4c-3.7,3.8-8.6,6.2-14.1,6.3c-5.5,0.1-10.5-2.2-14.3-5.9
		c-1.2-1.2-2.2-2.5-3.1-3.9c-2.2-3.6-3.6-7.9-3.6-12.5C145.1,162,145.5,154.7,145.5,153.3z"/>
	<polyline class="st56" points="186.9,150.1 198.2,174.5 199.8,193.9 	"/>
	<line class="st62" x1="198.7" y1="178.6" x2="199.8" y2="193.6"/>
	<g>
		<path class="st31" d="M197.7,151.9c0.3-5.5-4.1-10.5-9.8-10.8c-5.7-0.3-10.5,4.3-10.8,9.8C176.8,156.4,197.4,157.4,197.7,151.9z"
			/>
		<path class="st22" d="M197.7,151.9c0.3-5.5-4.1-10.5-9.8-10.8c-5.7-0.3-10.5,4.3-10.8,9.8C176.8,156.4,197.4,157.4,197.7,151.9z"
			/>
	</g>
	<path class="st31" d="M155.7,137.3L175,137c2.2,0,4-1.9,3.9-4.1l-0.4-24.2l-27.3,0.5l0.4,24.2C151.6,135.6,153.5,137.4,155.7,137.3
		z"/>
	
		<rect x="163" y="102.7" transform="matrix(1.680822e-02 -0.9999 0.9999 1.680822e-02 46.0812 279.5836)" class="st4" width="4.4" height="27.3"/>
	<path class="st58" d="M155.2,137l19.3,0.3c2.2,0,4-1.7,4.1-3.9l0.4-24.2l-27.3-0.5l-0.4,24.2C151.2,135.1,153,137,155.2,137z"/>
	
		<rect x="159" y="123.2" transform="matrix(-1 -3.926594e-03 3.926594e-03 -1 323.3422 260.8161)" class="st4" width="5.8" height="13.8"/>
	<line class="st63" x1="179.8" y1="118.8" x2="150.5" y2="118.3"/>
	<line class="st63" x1="179.9" y1="114.4" x2="150.6" y2="113.9"/>
	<line class="st64" x1="170" y1="123.3" x2="155.3" y2="123.2"/>
	<g>
		<path class="st31" d="M154.5,143.3L154.5,143.3c4.9,8.7,17.4,8.8,22.5,0.2l0,0l0-2.2c0-1.3-1.1-2.5-2.4-2.5l-17.6-0.2
			c-1.3,0-2.5,1.1-2.5,2.4L154.5,143.3z"/>
		<path class="st35" d="M153.9,143.3L153.9,143.3c4.9,8.7,17.4,8.8,22.5,0.2l0,0l0-2.2c0-1.3-1.1-2.5-2.4-2.5l-17.6-0.2
			c-1.3,0-2.5,1.1-2.5,2.4L153.9,143.3z"/>
		<path class="st65" d="M157.7,141.6c4.6,2.9,12.5,3.1,16.1-0.9"/>
	</g>
	<path class="st4" d="M158.4,142l0.1,0.1c4.8,2.5,10.6,2,14.9-1.3l0,0l0.1-3.8l-15.5,0.1L158.4,142z"/>
	<path class="st31" d="M193.7,171.4"/>
	<path class="st66" d="M165.8,187c0,0-9.2,1.1-8.3-16.9v0l0.4-13.5l0.3-4c0.1-1.8,1.6-3.3,3.3-3.3l0,0"/>
	<g>
		<path class="st31" d="M191.1,259.6l-2.2-13.2l-7,1.8c-2.3-8.6-9.4-4.8-9.4-4.8l1.2,6.3l-1.9,3.8c-0.9,1.8-2.6,3-4.5,3.4l-2.2,0.4
			c-1,0.4-1.6,1.5-1.7,2.7l-0.3,3.2l10,1.3L191.1,259.6z"/>
		<path class="st67" d="M191.1,259.6l-2.2-13.2l-7,1.8c-2.3-8.6-9.4-4.8-9.4-4.8l1.2,6.3l-1.9,3.8c-0.9,1.8-2.6,3-4.5,3.4l-2.2,0.4
			c-1,0.4-1.6,1.5-1.7,2.7l-0.3,3.2l10,1.3L191.1,259.6z"/>
		<g>
			<path class="st4" d="M163.5,265.8l7.7,0.7c1.5,0.1,3-0.1,4.3-0.6c4.5-1.7,14.9-5.7,15.1-5.7c1.1-0.5,1.7-0.9,1.8-2l0,0
				c0.1-1.4-1.3-2.4-2.6-1.9l-13.9,5.4c-1.4,0.5-2.9,0.8-4.4,0.6l-7.7-0.7c-1-0.1-1.9,0.8-2,2C161.8,264.7,162.5,265.7,163.5,265.8z
				"/>
		</g>
		<path class="st68" d="M188.1,242.8l-6.4,1.6c-2.1,0.5-3.4,2.7-2.8,4.8v0l10.2-2.6c1.1-0.3,1.7-1.3,1.4-2.4l0,0
			C190.2,243.2,189.1,242.6,188.1,242.8z"/>
		<polyline class="st67" points="179,249.6 179.3,251.6 177.2,255 171.6,254.5 		"/>
		<path class="st67" d="M166.3,257c0,0,4.2-1,7.2,0.6l0,0"/>
		<line class="st67" x1="178.8" y1="249.9" x2="173.6" y2="249.4"/>
	</g>
	<g>
		<circle class="st31" cx="199" cy="194.6" r="6.8"/>
		<g>
			<path class="st55" d="M201.8,195.5c0.6-0.8,1.4-1.3,2.3-1.3c1.7,0.1,3,2.3,2.8,4.9c-0.1,2.6-1.6,4.6-3.3,4.5
				c-0.9,0-1.6-0.6-2.1-1.5"/>
			<path class="st55" d="M196.8,201.9c0.4,0.9,1.1,1.5,2,1.7c0.8,0.1,1.7-0.3,2.4-1.1c0.7-0.8,1.2-1.9,1.4-3.2
				c0.2-1.3,0-2.5-0.4-3.4c-0.4-0.9-1.1-1.5-2-1.7s-1.7,0.3-2.4,1.1"/>
			<g>
				<path class="st55" d="M194.1,202.1c1.7,0.4,3.4-0.7,4.1-3.9c0.6-2.5-0.3-4.9-1.9-5.3c-1.5-0.3-2.4,0.1-3.2,2.2
					c0,0.1-0.8,2.4-0.7,4C192.4,200.9,193.3,201.9,194.1,202.1z"/>
				<path class="st69" d="M206.9,199.1"/>
				<path class="st69" d="M192.2,196.9c-0.1,0.3-0.1,0.6-0.2,0.9c-0.2,2.2,0.6,4.1,2.1,4.5c0.7,0.2,1.5-0.1,2.2-0.6
					c0,0,0.5-0.3,0.5,0.2c0.4,0.9,1.1,1.5,2,1.7c0.8,0.1,1.7-0.3,2.4-1.1c0.1-0.1,0.2-0.3,0.4-0.5l0,0.1c0.5,0.9,1.3,1.4,2.1,1.5
					c1.7,0.1,4.4-2,3.1-6.7"/>
			</g>
		</g>
		
			<ellipse transform="matrix(6.405977e-02 -0.9979 0.9979 6.405977e-02 -11.8839 375.7906)" class="st55" cx="194.4" cy="194.2" rx="2.4" ry="4.9"/>
		<path class="st70" d="M191.8,191.8c-1.4,0.7-2,1.3-1.8,2.7c0.2,1.1,1.1,2,2.5,2.4"/>
	</g>
	<g>
		<path class="st71" d="M124.5,252.9l6.8-11.4c0,0,0,0-0.1,0l-9.2-5.4c0.7-1.2,1.9-1.8,3.1-1.9c0.4-1.8-0.7-3.3-2.4-4.3l-1.6-0.9
			l-4.1,6.9c0,0-2.4,2.4-4.4,1.7c-2-0.7-5.6-8.2-12.2-4.1c0,0,6.2,0.4,9.5,7.7C113.3,248.5,124.4,252.8,124.5,252.9z"/>
		<path class="st42" d="M117.2,235.8l3.5,1.7l-2.9,1.4l-2.6,0.7l-2.4-2.1C112.8,237.5,115.1,238.1,117.2,235.8z"/>
		<path class="st31" d="M124.5,252.9l6.8-11.4c0,0,0,0-0.1,0l-9.2-5.4l-3.6-2.5l-1.3,2.2c0,0-2.4,2.4-4.4,1.7
			c-2-0.7-5.6-8.2-12.2-4.1c0,0,6.2,0.4,9.5,7.7C113.3,248.5,124.4,252.8,124.5,252.9z"/>
		<path class="st72" d="M124.5,252.9l6.8-11.4c0,0,0,0-0.1,0l-9.2-5.4l-3.6-2.5l-1.3,2.2c0,0-2.4,2.4-4.4,1.7
			c-2-0.7-5.6-8.2-12.2-4.1c0,0,6.2,0.4,9.5,7.7C113.3,248.5,124.4,252.8,124.5,252.9z"/>
		<path class="st73" d="M122.1,236.1l9.2,5.4c0,0,0,0,0.1,0c0.9,0.5,2.1,0.2,2.7-0.7c0.3-0.5,0.3-1,0.2-1.5
			c-0.1-0.5-0.4-0.9-0.9-1.2l-5.8-3.4c-0.7-0.4-1.5-0.6-2.3-0.5C123.9,234.2,122.8,234.9,122.1,236.1z"/>
		<path class="st74" d="M99,234.6L99,234.6c-3.3,2-0.4,8.3,6.6,13.7c3,2.3,7.5,5.6,10.9,7c3.6,1.5,6,1,6.7,0.1h0l-9.7-6.7l-11.5-14
			L99,234.6z"/>
		<g>
			<path class="st4" d="M123.6,255.5c0.5-0.1,0.9-0.5,1.1-1c0.3-0.8-0.1-1.7-0.9-2.1c-0.1,0-9.6-3.6-12.8-10.1
				c-2.9-5.9-5.9-9.3-10.7-9.2c-0.9,0-1.6,1.6-1.6,1.6s4.5-0.9,9.4,9c3.8,7.5,14,11.5,14.5,11.7
				C122.9,255.6,123.3,255.6,123.6,255.5z"/>
		</g>
		<path class="st72" d="M112.8,237.5c2,2.6,3.1,2.1,3.1,2.1l4.9-1.8l1.4-1.8"/>
		<line class="st72" x1="117.2" y1="235.8" x2="120.7" y2="237.8"/>
		<line class="st75" x1="115.4" y1="237.3" x2="117.6" y2="238.6"/>
	</g>
</g>
<g>
	<path class="st76" d="M155.2,217.9c0.4-0.4,0.7-0.9,1.1-1.5c1.3-2.3,1.6-4.9,0.3-5.4c-3.6-1.3-7.7,6.4-6.9,11.9"/>
	<path class="st76" d="M158.5,221.1c0.3-0.1,0.5-0.3,0.8-0.5c2.2-1.4,3.5-3.5,2.8-4.6c-0.7-1.1-3.1-0.8-5.3,0.6
		c-0.5,0.4-1,0.7-1.4,1.1"/>
	<path class="st76" d="M159.5,223.6c0.2,0,0.4,0,0.5-0.1c1.6-0.3,2.7-1.1,2.6-1.9s-1.5-1.2-3.1-0.9c-0.4,0.1-0.7,0.2-1.1,0.3"/>
</g>
<path class="st5" d="M153.8,142.8c0,0-1.8,12.1,10.6,12.2c8.8,0.1,22.6,8.7,21.4,13.9c-1.5,6.8-4.9,23.8-23.8,21.4
	c-6.4-0.8-13-9.1-14.7-16.1C143.9,160.2,145.3,140.5,153.8,142.8z"/>
<path class="st5" d="M158.8,139.3l11.5,4.4c0,0,1.4,3.9,4.4,1.8c0,0-1.4,3-5,4s-8.7,0.7-11.3-1.4c-2.5-2.1-4.5-4.7-4.5-4.7
	S152.7,137.6,158.8,139.3z"/>
<path class="st5" d="M155.8,108.9c0,0,4.4,1.9,7.8,12c3.4,10.1,13.4,16.1,13.4,16.1l-4.2,0.3c0,0-11.2,0-11.6-0.1s-7.6,0.4-8.9-1.6
	c-1.3-2-0.6-24.9-0.6-24.9l0-2L155.8,108.9z"/>
<path class="st5" d="M184.5,141.5c0,0,1.9,8.5,12.6,10.2c0,0,1.3,2.6-1.8,4.1c-3.1,1.5-16.8,0.5-18.3-4.9
	C175.6,145.5,184.5,141.5,184.5,141.5z"/>
<path class="st5" d="M194.8,172.5c0,0-1.4,11.2,4.1,15.6c8.5,6.8,4.9,15.1,4.9,15.1l-2.4-1.1c0,0-0.8,1.5-2,1.4
	c-1.2-0.1-3.2-1.9-3.2-1.9s-1.9,1.5-3.5-0.7c-1.5-2.2-0.6-4.1-0.6-4.1s-4.6-2.4-0.4-5.1C191.8,191.8,188.5,172,194.8,172.5z"/>
<path class="st5" d="M145.8,203.4l8.9-9l2.8-4.9c0,0,8.1,2.9,12.1,1.8c3.9-1,3.9-1,3.9-1s1.5,5.6,4.2,7.5s5,5.4,5,5.4l-1,2.8
	l-15.8,1.5l-1-1.5l-0.3-6.4l-2.8,0.1l-3.8,6.3L145.8,203.4z"/>
<path class="st5" d="M148.8,179.4c0,0-11.6,10.1-11.6,15.2c0,5-1.1,11.5,1.5,12.4c2.6,0.9,4.8,0.5,8.6-4.2s10.2-11.4,10.1-13.5
	C157.4,187.4,151.1,186.5,148.8,179.4z"/>
<path class="st5" d="M179.5,186.9c0,0-0.8,6.1,12.9,12.5l0.4,1.6l1.6,2.2c0,0-0.2,7.5-2.3,6.9c-2-0.6-9.4-7.1-9.4-7.1
	s-9.7-9.1-9.2-12.8C173.5,190.2,178.8,188.1,179.5,186.9z"/>
<path class="st5" d="M172.3,243.8c0,0,3.7-1.4,5.4-0.5c1.6,0.9,2.7,1.9,2.7,1.9s-2.1,2.8-1.2,3.7c0.4,0.4,3,0.1,4.4,4
	c1.4,3.9,4.7,4.2,4.7,4.2l-0.8,3l-22,3.4l-1.9-0.8l0.7-5.1l4.9-1.7l3-3.6l1.2-2.7L172.3,243.8z"/>
<path class="st5" d="M100.5,233.8c0,0,2.8-2.7,5.7-1.2c2.9,1.5,5.4,6,8.2,4.9c2.8-1.2,3.7-3.6,3.7-3.6l4.3,3c0,0,0.3-4,5.1-1.9
	c4.8,2.1,6.4,4,6.4,4s0.8,2.9-2.7,2.9l-7.1,11.2c0,0-10.2-4.2-12.8-8.7S104.3,233.8,100.5,233.8z"/>
<path class="st4" d="M240.2,151.3"/>
<g>
	<path class="st17" d="M184.4,265c0,0.8-0.6,1.6-0.6,1.6l0,0c-2.4,1.5-10.7,1.4-12.5-0.1l0,0c0,0-0.2-0.3-0.2-1
		c0-2.3,3.6-3.9,6.2-3.9S184.4,262.7,184.4,265z"/>
	<path class="st16" d="M171.4,266.3c-0.3-0.4-1.4-1-2.4-3c-1-1.9-1.1-3.9,0-4.1c2-0.5,3.9,1.6,4.9,4.2"/>
	<path class="st16" d="M173.9,263.1c-0.2-0.5-0.3-1.1-0.3-1.7c-0.1-2.5,0.9-4.7,2.3-4.6c2.5,0.3,3.5,3.3,3.2,6.6"/>
	<path class="st16" d="M183.8,266.3c1.4-1.8,1.7-3,2-3.7c1.1-2.7,0.7-5.6-0.9-5.8c-2.9-0.4-4.9,3-5.8,6.9"/>
</g>
<g>
	<polygon class="st20" points="417.2,206.2 403.8,215 393,239.1 415.5,239.8 428,239.3 428.9,222.6 	"/>
	<polygon class="st21" points="417.2,206.2 403.8,215 393,239.1 399.9,240.4 412,240 428,239.3 419.8,234.6 	"/>
	<polygon class="st22" points="417.2,206.2 403.8,215 393,239.1 399.9,240.4 428,239.3 428.9,222.6 	"/>
	<polyline class="st22" points="417.2,206.2 419.8,235.1 412,240 	"/>
	<line class="st22" x1="428" y1="239.3" x2="419.8" y2="235.1"/>
</g>
<g>
	<path class="st17" d="M371.3,232.1h-2.8c-0.9,0-1.6-0.7-1.6-1.6v-0.5c0,0,1.8-1.8,3.4,0C372.6,232.6,371.3,232.1,371.3,232.1z"/>
	<g>
		<path class="st77" d="M369.9,229c0.2-0.2,0.3-0.4,0.5-0.7c0.6-1,0.7-2.2,0.2-2.4c-1.3-0.5-2.8,1.2-3.2,3.3"/>
		<path class="st77" d="M371.4,230.5c0.1-0.1,0.2-0.1,0.4-0.2c1-0.6,1.6-1.6,1.3-2.1s-1.4-0.4-2.4,0.3c-0.2,0.2-0.5,0.3-0.7,0.5"/>
		<path class="st77" d="M371.8,231.6c0.1,0,0.2,0,0.2,0c0.7-0.1,1.2-0.5,1.2-0.8c-0.1-0.3-0.7-0.5-1.4-0.4c-0.2,0-0.3,0.1-0.5,0.1"
			/>
	</g>
</g>
<g>
	<path class="st17" d="M286,225.8c0,0.5-0.3,0.9-0.3,0.9l0,0c-1.4,0.8-6.1,0.8-7.2,0l0,0c0,0-0.1-0.1-0.1-0.6c0-1.3,2.1-2.2,3.6-2.2
		S286,224.5,286,225.8z"/>
	<path class="st78" d="M278.6,226.5c-0.2-0.2-0.8-0.6-1.4-1.7c-0.6-1.1-0.6-2.2,0-2.4c1.1-0.3,2.3,0.9,2.8,2.4"/>
	<path class="st78" d="M280,224.7c-0.1-0.3-0.1-0.6-0.2-1c-0.1-1.4,0.5-2.7,1.3-2.6c1.4,0.1,2,1.9,1.8,3.8"/>
	<path class="st78" d="M285.7,226.5c0.8-1,1-1.7,1.1-2.1c0.6-1.6,0.4-3.2-0.5-3.3c-1.7-0.2-2.8,1.7-3.3,3.9"/>
</g>
<g>
	<g>
		<g>
			
				<rect x="280.6" y="133.4" transform="matrix(-0.8355 0.5495 -0.5495 -0.8355 594.207 99.6733)" class="st34" width="3.3" height="10.8"/>
			
				<rect x="280.6" y="133.4" transform="matrix(-0.8355 0.5495 -0.5495 -0.8355 594.207 99.6733)" class="st79" width="3.3" height="10.8"/>
			<line class="st80" x1="281.2" y1="134.3" x2="280.2" y2="139.4"/>
			<line class="st80" x1="280.1" y1="133.5" x2="278.9" y2="138.9"/>
			<line class="st80" x1="282.3" y1="136" x2="281.2" y2="141.2"/>
			<line class="st80" x1="285.2" y1="140.5" x2="284.6" y2="143.6"/>
			<line class="st80" x1="284.3" y1="139" x2="283.2" y2="144.2"/>
		</g>
		<g>
			<g>
				<g>
					<path class="st34" d="M316.5,190.6c-2.6-0.8-5-2.2-7-4c-1.1-1-2.1-2.1-2.9-3.4l-0.1-0.2l-23.2-35.2l7.1-4.7l23.2,35.2
						C316,182,317,186.3,316.5,190.6z"/>
					<path class="st4" d="M290.3,143.7l6.6,10l0,0l0.1,0.2l7.1,10.8l1,1.5l3,4.6l5.1,7.8c2.2,3.4,3.3,7.5,2.9,11.5
						c-2.4-0.8-4.6-2.1-6.4-3.8c-1.1-1-2-2.1-2.9-3.3c0,0-0.1-0.1-0.1-0.1l0-0.1l-0.9-1.3l-7.1-10.8l-15-22.7L290.3,143.7
						 M290.5,142.6l-7.8,5.1l0,0.1l15.3,23.3l7.1,10.8l0.9,1.3c0,0.1,0.1,0.1,0.1,0.2c0.9,1.3,1.8,2.4,3,3.4c2.2,2,4.8,3.4,7.6,4.2
						c0.6-4.5-0.4-9.1-2.9-13l-5.1-7.8l-3-4.6l-1-1.5l-7.1-10.8l0,0l-6.7-10.2L290.5,142.6L290.5,142.6L290.5,142.6z"/>
				</g>
			</g>
			<path class="st4" d="M316.9,191.1l-7.8-11.9l-3-4.6l-1-1.5l-7.1-10.8L287,145.8l3.9-2.6l0,0l6.7,10.2l0,0l7.1,10.8l1,1.5l3,4.6
				l5.1,7.8C316.4,182,317.5,186.6,316.9,191.1z"/>
		</g>
		<g>
			<g>
				<path class="st34" d="M281.1,149.1c-0.4,0-0.8-0.2-1-0.6c-0.2-0.3-0.2-0.6-0.2-0.9c0.1-0.3,0.3-0.6,0.5-0.8l9.6-6.3
					c0.2-0.1,0.4-0.2,0.7-0.2c0.4,0,0.8,0.2,1,0.6c0.2,0.3,0.2,0.6,0.2,0.9c-0.1,0.3-0.3,0.6-0.5,0.8l-9.6,6.3
					C281.6,149.1,281.4,149.1,281.1,149.1L281.1,149.1z"/>
				<path class="st4" d="M290.8,140.7c0.3,0,0.6,0.1,0.7,0.4c0.3,0.4,0.2,0.9-0.2,1.2l-9.6,6.3c-0.1,0.1-0.3,0.1-0.5,0.1
					c-0.3,0-0.6-0.1-0.7-0.4c-0.3-0.4-0.2-0.9,0.2-1.2l9.6-6.3C290.4,140.7,290.6,140.7,290.8,140.7 M290.8,139.9
					c-0.3,0-0.6,0.1-0.9,0.3l-9.6,6.3c-0.4,0.2-0.6,0.6-0.7,1c-0.1,0.4,0,0.9,0.2,1.2c0.3,0.5,0.8,0.7,1.4,0.7
					c0.3,0,0.6-0.1,0.9-0.3l9.6-6.3c0.4-0.2,0.6-0.6,0.7-1c0.1-0.4,0-0.9-0.2-1.2C291.8,140.2,291.3,139.9,290.8,139.9L290.8,139.9z
					"/>
			</g>
		</g>
		<g>
			<circle class="st81" cx="277.4" cy="131.5" r="3.3"/>
			<line class="st82" x1="275.6" y1="128.7" x2="279.2" y2="134.3"/>
			<line class="st82" x1="280.2" y1="129.7" x2="274.6" y2="133.3"/>
			<g>
				<path class="st83" d="M277.4,133.3c-0.6,0-1.1-0.3-1.5-0.8c-0.5-0.8-0.3-1.9,0.5-2.4c0.3-0.2,0.6-0.3,1-0.3
					c0.6,0,1.1,0.3,1.5,0.8c0.3,0.4,0.3,0.9,0.3,1.3c-0.1,0.5-0.4,0.9-0.8,1.1C278.1,133.2,277.7,133.3,277.4,133.3L277.4,133.3z"/>
				<path class="st4" d="M277.4,130.1c0.5,0,0.9,0.2,1.1,0.6c0.2,0.3,0.3,0.7,0.2,1c-0.1,0.4-0.3,0.7-0.6,0.9
					c-0.2,0.1-0.5,0.2-0.7,0.2c-0.5,0-0.9-0.2-1.1-0.6c-0.2-0.3-0.3-0.7-0.2-1s0.3-0.7,0.6-0.9C276.9,130.2,277.1,130.1,277.4,130.1
					 M277.4,129.4c-0.4,0-0.8,0.1-1.2,0.4c-1,0.7-1.3,2-0.6,3c0.4,0.6,1.1,1,1.8,1c0.4,0,0.8-0.1,1.2-0.4c1-0.7,1.3-2,0.6-3
					C278.8,129.7,278.1,129.4,277.4,129.4L277.4,129.4z"/>
			</g>
			<path class="st84" d="M277.9,132.3c0.4-0.3,0.5-0.9,0.3-1.3c-0.1-0.1-0.2-0.2-0.3-0.3"/>
		</g>
	</g>
	<polyline class="st85" points="307.4,191.5 308.7,207.1 310.2,223.3 	"/>
	<line class="st85" x1="292" y1="192.2" x2="291.9" y2="222.7"/>
	<g>
		<path class="st31" d="M301,194c-1.9-10.4-0.6-9.5-1-11.4c-0.2-0.6-0.4-1.2-0.5-1.8c-0.3-3.3,2.2-6.3,5.5-6.6
			c2.8-0.3,5.3,1.4,6.3,4.1c0.1,0.3,0.2,0.6,0.3,1c0.1,0.4,0.3,1,0.4,1.8c0.2,1.2,0.6,2.7,0.9,4.7c0.6,3.3,1.2,7.2,1.2,7.2L301,194z
			 M302.1,185.3c1,0.7,2.4,1.2,3.9,1C304.6,186.4,303.3,186,302.1,185.3z"/>
	</g>
	<g>
		<path class="st31" d="M286.9,194.2c0,0,0-3.5,0.1-6.8c0-2,0.1-3.6,0.1-4.8c0-0.8,0.1-1.4,0.1-1.8c0-0.4,0.1-0.7,0.1-1
			c0.6-3.2,3.4-5.4,6.6-5.1c2.4,0.2,4.6,2,5.2,4.3c0.3,1.1,0.3,2.1,0.1,3.1c-0.1,1.3-0.2,7.7-0.2,10.7c0,0.8-0.7,1.5-1.5,1.5
			L286.9,194.2z M293.9,186.8c1.6-0.1,2.8-0.8,3.7-1.7C296.6,186.1,295.3,186.7,293.9,186.8z"/>
	</g>
	<path class="st31" d="M293.4,185.9c0.2,2.4,2.2,4,4.6,3.9l4.1-0.1l0,0c2.4-0.2,4.2-2.2,4-4.6l-0.1-1.7c-0.2-2.4-2.2-4.2-4.6-4
		l-4.1,0.3c-2.4,0.2-4.2,2.2-4,4.6L293.4,185.9z"/>
	<g>
		<path class="st35" d="M310.7,176.4c0.5,0.7,0.9,1.5,1.1,2.4c0.1,0.3,0.1,0.6,0.2,1c0.1,0.5,0.1,1,0.2,1.8c0.1,1.2,0.3,2.8,0.5,4.8
			c0.3,3.4,0.5,7.2,0.5,7.2l-11.1,0.3c-0.9,0-1.6-0.7-1.6-1.5v-2.4"/>
	</g>
	<g>
		<path class="st35" d="M298.8,189.4l0,2.3c0,2.5-1.4,2.3-1.4,2.3l-10.7,0.1c0,0,0-3.5,0-6.8c0-2,0-3.6,0.1-4.8
			c0-0.8,0.1-1.4,0.1-1.8c0-0.4,0.1-0.7,0.1-1c0.2-1,0.5-1.8,1.1-2.6"/>
	</g>
	<line class="st86" x1="302.4" y1="189.5" x2="297.9" y2="189.4"/>
	<path class="st35" d="M298.6,182.9c0,0-1.4,4.4,1.2,6.5"/>
	<line class="st85" x1="284.3" y1="155.8" x2="254.6" y2="153.1"/>
	<line class="st87" x1="254.6" y1="153.1" x2="264.7" y2="154"/>
	<g>
		<path class="st31" d="M279.5,148.8c3.1-2.4,7.8-1.9,10.3,1.3c2.5,3.2,1.8,7.9-1.3,10.3C285.4,162.7,276.4,151.2,279.5,148.8z"/>
		<path class="st22" d="M279.5,148.8c3.1-2.4,7.8-1.9,10.3,1.3c2.5,3.2,1.8,7.9-1.3,10.3C285.4,162.7,276.4,151.2,279.5,148.8z"/>
	</g>
	<path class="st4" d="M310.1,193.3l2.3,0l0-1.9l-1.6,0c-0.4,0-0.7,0.3-0.7,0.7L310.1,193.3z"/>
	<path class="st4" d="M305.5,193.4l2.3,0l0-1.2c0-0.4-0.3-0.7-0.7-0.7l-0.9,0c-0.4,0-0.7,0.3-0.7,0.7L305.5,193.4z"/>
	<path class="st4" d="M300.9,193.5l2.3,0l0-1.2c0-0.4-0.3-0.7-0.7-0.7l-1.6,0L300.9,193.5z"/>
	<path class="st4" d="M289.2,193.7l-2.3,0l0-1.9l1.6,0c0.4,0,0.7,0.3,0.7,0.7L289.2,193.7z"/>
	<path class="st4" d="M294.1,193.7l-2.3,0l0-1.2c0-0.4,0.3-0.7,0.7-0.7l0.9,0c0.4,0,0.7,0.3,0.7,0.7L294.1,193.7z"/>
	<path class="st4" d="M298.4,193.6l-2.3,0l0-1.2c0-0.4,0.3-0.7,0.7-0.7l1.6,0L298.4,193.6z"/>
	<g>
		<path class="st31" d="M319.6,195.5l0.4-6.3c0.1-1.8-0.8-4.1-2.6-6.1l-6-7c-1.9-2.2-5.2-2.7-5.5-0.7l-1.1,6.6
			c-0.3,1.7,0.6,3.8,2.4,5.7l7,7.4C316.3,197.2,319.4,197.5,319.6,195.5z"/>
		<path class="st35" d="M319.6,195.5l0.4-6.3c0.1-1.8-0.8-4.1-2.6-6.1l-6-7c-1.9-2.2-5.2-2.7-5.5-0.7l-1.1,6.6
			c-0.3,1.7,0.6,3.8,2.4,5.7l7,7.4C316.3,197.2,319.4,197.5,319.6,195.5z"/>
	</g>
	<g>
		<path class="st31" d="M279.4,193.7l-0.5-6.1c-0.1-1.8,0.8-3.9,2.5-5.9l5.8-6.8c1.8-2.2,5-2.6,5.3-0.8l1.1,6.3
			c0.3,1.6-0.6,3.7-2.3,5.5l-6.7,7.2C282.6,195.4,279.6,195.7,279.4,193.7z"/>
		<path class="st35" d="M279.4,193.7l-0.5-6.1c-0.1-1.8,0.8-3.9,2.5-5.9l5.8-6.8c1.8-2.2,5-2.6,5.3-0.8l1.1,6.3
			c0.3,1.6-0.6,3.7-2.3,5.5l-6.7,7.2C282.6,195.4,279.6,195.7,279.4,193.7z"/>
	</g>
	<path class="st31" d="M298,183.4c1,0.2,2.1,0.3,3.3,0.2c8.2-0.2,11.3-7.9,11.4-8.2c0.4-1-0.1-2.1-1.1-2.5c-1-0.4-2.1,0.1-2.5,1.1
		c-0.1,0.2-2.4,5.6-8,5.8c-6.8,0.2-9.3-4.7-9.9-6.1c-0.4-1-1.5-1.5-2.5-1.1c-1,0.4-1.5,1.5-1.1,2.5
		C289.2,178.7,292.6,182.4,298,183.4z"/>
	<path class="st86" d="M298.4,183.5c1,0.1,2.1,0.2,3.3,0.1c8.2-0.6,10.9-8.4,11-8.8c0.3-1-0.2-2.1-1.2-2.4c-1-0.3-2.1,0.2-2.4,1.2
		c-0.1,0.2-2.1,5.8-7.7,6.2c-6.8,0.5-9.5-4.2-10.2-5.6c-0.4-1-1.6-1.4-2.5-0.9c-1,0.4-1.4,1.6-0.9,2.5
		C289.3,179.2,292.9,182.8,298.4,183.5z"/>
	<path class="st31" d="M284.6,157L284.6,157c-0.1-4.4,3.2-8.1,7.3-8.1l14.4-0.2c4.1-0.1,7.4,3.5,7.5,8v0c0,1.2,0.1,6.4,0.1,8.1
		c0,3.3-0.8,6.4-2.4,8.9c-0.6,1-1.3,2-2.2,2.9c-2.6,2.7-6.1,4.4-10,4.5c-3.9,0-7.5-1.6-10.1-4.2c-0.8-0.8-1.6-1.8-2.2-2.8
		c-1.6-2.5-2.5-5.6-2.6-8.9C284.4,163.2,284.6,157.9,284.6,157z"/>
	<path class="st35" d="M284.9,156.6L284.9,156.6c-0.1-4.4,3.2-8.1,7.3-8.1l14.4-0.2c4.1-0.1,7.4,3.5,7.5,8v0c0,1.2,0.1,6.4,0.1,8.1
		c0,3.3-0.8,6.4-2.4,8.9c-0.6,1-1.3,2-2.2,2.9c-2.6,2.7-6.1,4.4-10,4.5c-3.9,0-7.5-1.6-10.1-4.2c-0.8-0.8-1.6-1.8-2.2-2.8
		c-1.6-2.5-2.5-5.6-2.6-8.9C284.7,162.8,285,157.6,284.9,156.6z"/>
	<path class="st31" d="M292.9,145.7l13.7-1.2c1.6-0.1,2.7-1.5,2.6-3.1l-1.5-17.2l-19.4,1.7l1.5,17.2
		C290,144.7,291.4,145.9,292.9,145.7z"/>
	
		<rect x="289.3" y="128.8" transform="matrix(0.9986 -5.297934e-02 5.297934e-02 0.9986 -6.4874 16.0223)" class="st83" width="19.4" height="3.1"/>
	<path class="st35" d="M292.6,145.5l13.7-0.7c1.6-0.1,2.8-1.4,2.7-3l-0.9-17.2l-19.4,1l0.9,17.2C289.7,144.4,291,145.6,292.6,145.5z
		"/>
	
		<rect x="295.9" y="137.5" transform="matrix(-0.9978 6.583890e-02 -6.583890e-02 -0.9978 604.465 262.6168)" class="st4" width="4.1" height="7.5"/>
	<line class="st35" x1="309.3" y1="131.4" x2="288.5" y2="132.5"/>
	<line class="st35" x1="309" y1="128.3" x2="288.2" y2="129.4"/>
	<line class="st88" x1="303.1" y1="136.5" x2="292.7" y2="137.2"/>
	<g>
		<path class="st31" d="M291.4,149.5L291.4,149.5c3.5,6.2,12.4,6.3,16,0.1v0l0-1.6c0-1-0.8-1.7-1.7-1.8l-12.5-0.1
			c-1,0-1.7,0.8-1.8,1.7L291.4,149.5z"/>
		<path class="st35" d="M291,149.5L291,149.5c3.5,6.2,12.4,6.3,16,0.1l0,0l0-1.6c0-1-0.8-1.7-1.7-1.8l-12.5-0.1
			c-1,0-1.7,0.8-1.8,1.7L291,149.5z"/>
		<path class="st89" d="M293.6,148.3c3.2,2.1,8.9,2.2,11.4-0.7"/>
	</g>
	<path class="st4" d="M294.1,148.6L294.1,148.6c3.5,1.8,7.6,1.5,10.7-0.9l0,0l0-2.7l-11,0.1L294.1,148.6z"/>
	<path class="st31" d="M319.2,169.5"/>
	<path class="st35" d="M302.9,180.1c0,0-7.5,2.2-6.8-11.4l0,0l0.3-9.4l0.2-2.8c0.1-1.3,1.1-2.3,2.4-2.3l0,0"/>
	<g>
		<path class="st90" d="M309.5,176.2c-2.3,0-4.5-1-6-2.7l-13.6-15.4c-2.8-2.5-3.7-6.5-2.4-9.9c0.4-0.9,1.4-1.4,2.3-1
			c0.9,0.4,1.4,1.4,1,2.3c-0.8,2.1-0.2,4.5,1.5,6c0.1,0.1,0.1,0.1,0.2,0.2l13.7,15.5c1.1,1.2,2.8,1.8,4.5,1.3c1-0.3,2,0.3,2.2,1.3
			c0.3,1-0.3,2-1.3,2.2C310.9,176.1,310.2,176.2,309.5,176.2z"/>
	</g>
	<polyline class="st85" points="315.1,154.5 317,174.9 305.6,176 	"/>
	<line class="st87" x1="305.9" y1="176.1" x2="316.6" y2="175.1"/>
	<g>
		<path class="st31" d="M322.1,155.6c0.2-3.9-2.9-7.5-7-7.7c-4-0.2-7.5,3.1-7.7,7C307.2,158.9,321.9,159.6,322.1,155.6z"/>
		<path class="st22" d="M322.1,155.6c0.2-3.9-2.9-7.5-7-7.7c-4-0.2-7.5,3.1-7.7,7C307.2,158.9,321.9,159.6,322.1,155.6z"/>
	</g>
	<polygon class="st50" points="287.1,168.4 286.6,166.6 288.2,166.6 287.9,165.1 292.4,165.1 292.9,166.4 294.5,166.3 295,168.7 	
		"/>
	<polygon class="st91" points="303,184.4 287.7,184.4 283.4,168.3 298.7,168.3 	"/>
	<g>
		<g>
			<circle class="st31" cx="302.9" cy="176.6" r="3.9"/>
			<g>
				<path class="st55" d="M302.8,182.2c-1.5,0.6-2.9,0.2-3.1,0.2c-0.8-0.2-1.3-1.1-1.1-1.9c0.2-0.8,1.1-1.3,1.9-1.1
					c0.2,0,0.7,0.1,1.2-0.1c0.4-0.2,0.8-0.6,0.9-0.8c0.4-0.7,1.4-1,2.1-0.5c0.7,0.4,1,1.4,0.5,2.1
					C305.1,180.4,304.3,181.6,302.8,182.2z"/>
			</g>
			<g>
				<path class="st55" d="M300.4,181.3c-1.6,0.2-2.9-0.5-3-0.6c-0.7-0.4-1-1.4-0.6-2.1c0.4-0.7,1.4-1,2.1-0.6
					c0.2,0.1,0.7,0.3,1.1,0.2c0.5-0.1,0.9-0.4,1.1-0.5c0.6-0.6,1.6-0.6,2.2,0.1c0.6,0.6,0.6,1.6-0.1,2.2
					C303.1,180.1,302,181.2,300.4,181.3z"/>
			</g>
			<g>
				<path class="st55" d="M299.4,178.7c-1.5,0.6-2.9,0.3-3.1,0.2c-0.8-0.2-1.3-1.1-1.1-1.9c0.2-0.8,1-1.3,1.9-1.1
					c0.2,0,0.7,0.1,1.2-0.1c0.4-0.2,0.8-0.6,0.9-0.8c0.4-0.7,1.4-1,2.1-0.5c0.7,0.4,1,1.4,0.5,2.1
					C301.7,176.8,300.9,178.1,299.4,178.7z"/>
			</g>
			<g>
				<path class="st55" d="M304.4,175.3c-0.8,0.3-1.7,0-2.1-0.8c0,0-0.7-1.2-1.8-1.7c-0.8-0.4-1.2-1.4-0.8-2.3
					c0.4-0.8,1.4-1.2,2.3-0.8c2.1,1,3.1,3,3.3,3.2c0.4,0.8,0.1,1.9-0.7,2.3C304.5,175.2,304.4,175.2,304.4,175.3z"/>
			</g>
		</g>
		<g>
			<path class="st22" d="M299.3,174.8c0.5-0.9,0.8-1.3,1.8-1.7"/>
			<g>
				<path class="st22" d="M304.6,180.9c-0.4,0.4-1,1-1.8,1.3c-1.5,0.6-2.9,0.2-3.1,0.2c-0.6-0.2-1-0.7-1.1-1.2"/>
			</g>
			<g>
				<path class="st22" d="M303.2,180c-0.1,0.1-1.2,1.1-2.8,1.3c-1.6,0.2-2.9-0.5-3-0.6c-0.6-0.4-0.9-1.1-0.7-1.7"/>
			</g>
			<g>
				<path class="st22" d="M301,177.7c-0.4,0.4-0.9,0.7-1.5,1c-1.5,0.6-2.9,0.3-3.1,0.2c-0.8-0.2-1.3-1.1-1.1-1.9
					c0.2-0.8,1-1.3,1.9-1.1c0.2,0,0.7,0.1,1.2-0.1c0.4-0.2,0.8-0.6,0.9-0.8c0.1-0.1,0.1-0.2,0.2-0.3"/>
			</g>
			<g>
				<path class="st22" d="M301,173.1c-0.2-0.1-0.3-0.2-0.5-0.3c-0.8-0.4-1.2-1.4-0.8-2.3c0.4-0.8,1.4-1.2,2.3-0.8
					c0.9,0.4,1.6,1,2.1,1.6"/>
			</g>
		</g>
	</g>
	<g>
		<path class="st31" d="M298,233.9l-0.8-9.4l-5,0.9c-1.2-6.2-6.4-3.9-6.4-3.9l0.5,4.5l-1.6,2.5c-0.7,1.2-2,2-3.3,2.1l-1.6,0.2
			c-0.7,0.3-1.2,1-1.4,1.8l-0.4,2.3l7,1.5L298,233.9z"/>
		<path class="st35" d="M298,233.9l-0.8-9.4l-5,0.9c-1.2-6.2-6.4-3.9-6.4-3.9l0.5,4.5l-1.6,2.5c-0.7,1.2-2,2-3.3,2.1l-1.6,0.2
			c-0.7,0.3-1.2,1-1.4,1.8l-0.4,2.3l7,1.5L298,233.9z"/>
		<g>
			<path class="st4" d="M278.2,236.6l5.4,0.9c1,0.2,2.1,0.1,3.1-0.2c3.3-1,10.8-3.1,10.9-3.2c0.8-0.3,1.2-0.5,1.4-1.3v0
				c0.2-1-0.8-1.8-1.7-1.5l-10.1,3c-1,0.3-2.1,0.4-3.1,0.2l-5.3-0.9c-0.7-0.1-1.4,0.5-1.5,1.3C277.1,235.8,277.5,236.5,278.2,236.6z
				"/>
		</g>
		<path class="st36" d="M296.8,221.9l-4.6,0.8c-1.5,0.3-2.5,1.7-2.3,3.2l0,0l7.3-1.2c0.8-0.1,1.3-0.8,1.1-1.6v0
			C298.3,222.3,297.5,221.8,296.8,221.9z"/>
		<polyline class="st35" points="290,226.1 290.1,227.6 288.4,229.8 284.6,229.1 		"/>
		<path class="st35" d="M280.7,230.6c0,0,3-0.5,5.1,0.8l0,0"/>
		<line class="st35" x1="289.9" y1="226.3" x2="286.3" y2="225.7"/>
	</g>
	<g>
		<path class="st31" d="M316,234.5l-0.8-9.4l-5,0.9c-1.2-6.2-6.4-3.9-6.4-3.9l0.5,4.5l-1.6,2.5c-0.7,1.2-2,2-3.3,2.1l-1.6,0.2
			c-0.7,0.3-1.2,1-1.4,1.8l-0.4,2.3l7,1.5L316,234.5z"/>
		<path class="st35" d="M316,234.5l-0.8-9.4l-5,0.9c-1.2-6.2-6.4-3.9-6.4-3.9l0.5,4.5l-1.6,2.5c-0.7,1.2-2,2-3.3,2.1l-1.6,0.2
			c-0.7,0.3-1.2,1-1.4,1.8l-0.4,2.3l7,1.5L316,234.5z"/>
		<g>
			<path class="st4" d="M296.2,237.3l5.4,0.9c1,0.2,2.1,0.1,3.1-0.2c3.3-1,10.8-3.1,10.9-3.2c0.8-0.3,1.2-0.5,1.4-1.3l0,0
				c0.2-1-0.8-1.8-1.7-1.5l-10.1,3c-1,0.3-2.1,0.4-3.1,0.2l-5.3-0.9c-0.7-0.1-1.4,0.5-1.5,1.3C295.1,236.4,295.5,237.2,296.2,237.3z
				"/>
		</g>
		<path class="st92" d="M314.8,222.6l-4.6,0.8c-1.5,0.3-2.5,1.7-2.3,3.2l0,0l7.3-1.2c0.8-0.1,1.3-0.8,1.1-1.6v0
			C316.3,222.9,315.5,222.4,314.8,222.6z"/>
		<polyline class="st35" points="308,226.8 308.1,228.2 306.4,230.5 302.6,229.8 		"/>
		<path class="st35" d="M298.7,231.3c0,0,3-0.5,5.1,0.8l0,0"/>
		<line class="st35" x1="307.9" y1="227" x2="304.3" y2="226.4"/>
	</g>
	<g>
		<g>
			<path class="st71" d="M276.6,147.7c-0.8,2.1-3.1,3.2-5.2,2.4c-0.3-0.1,0.3-1.5,0-1.6c-1.6-1-3.1-1.7-2.5-3.5
				c0.8-2.1,3.1-3.2,5.2-2.4C276.2,143.3,277.3,145.6,276.6,147.7z"/>
		</g>
		<g class="st7">
			<g class="st8">
				<path class="st31" d="M268.9,144.5c-1.7-0.4-3.6-1.4-4.6-3.4c-0.4-0.9-0.1-1.9,0.8-2.4c0.9-0.4,1.9-0.1,2.4,0.8
					c1,2,4.7,1.7,4.7,1.7c1-0.1,1.8,0.6,1.9,1.6c0.1,1-0.6,1.8-1.6,1.9C272.4,144.8,270.8,144.9,268.9,144.5z"/>
			</g>
		</g>
		<g class="st7">
			<g class="st8">
				<path class="st18" d="M271.8,145.1c-0.7,0-1.8-0.1-2.9-0.3c-2.3-0.6-3.9-1.8-4.8-3.6c-0.5-1-0.1-2.3,1-2.8
					c0.5-0.3,1.1-0.3,1.6-0.1c0.5,0.2,1,0.6,1.2,1.1c0.6,1.2,2.8,1.6,4.6,1.6c0,0,0.1,0,0.1,0c0.2,0,0.3,0.2,0.3,0.4
					c0,0.2-0.2,0.3-0.4,0.3c-1,0-4.3-0.1-5.2-2c-0.2-0.3-0.5-0.6-0.8-0.7c-0.4-0.1-0.7-0.1-1.1,0.1c-0.7,0.3-1,1.2-0.6,1.9
					c0.8,1.6,2.3,2.7,4.3,3.2c1.8,0.4,3.4,0.3,3.5,0.3c0.2,0,0.4,0.1,0.4,0.3c0,0.2-0.1,0.4-0.3,0.4
					C272.5,145.1,272.2,145.1,271.8,145.1z"/>
			</g>
		</g>
		<g>
			<g>
				<path class="st55" d="M250.3,158.9c-0.6-0.2-1-0.8-1.1-1.5c-0.1-1,0.6-2,1.6-2.2c0.4-0.1,0.5-0.2,0.5-0.3c-0.1-1,0.6-2,1.6-2.2
					c1-0.2,1.8,0.6,1.9,1.6c0.1,1.6-0.7,4.1-3.6,4.6C250.8,159,250.5,159,250.3,158.9z"/>
			</g>
		</g>
		<g>
			<g>
				<g>
					<path class="st31" d="M248.7,152.9c-0.5-0.2-0.9-0.4-1.3-0.8c-0.5-0.6-0.8-1.4-0.6-2.3c0.2-0.9,0.7-1.7,1.6-2.1
						c1.8-0.9,4.4,0.2,5.5,0.8c0.9,0.5,1.3,1.6,0.8,2.6c-0.5,0.9-1.4,3.4-2.3,3c-0.3,0.7-0.8,0.1-1.6,0.2
						C250.5,154.2,249.5,153.2,248.7,152.9z"/>
				</g>
			</g>
			<g>
				<g>
					<path class="st18" d="M250.3,153.8c-0.4,0-1.1,0-1.8-0.3c-0.6-0.2-1.1-0.6-1.5-1c-0.7-0.8-0.9-1.8-0.7-2.8
						c0.2-1.1,0.9-2,1.9-2.5c1.2-0.6,3.6-0.6,4.9,0.4c0.3,0.2,0.3,0.6,0.1,0.8c-0.2,0.3-0.6,0.3-0.8,0.1c-1-0.7-2.8-0.7-3.7-0.3
						c-0.7,0.3-1.1,0.9-1.3,1.7c-0.1,0.7,0,1.3,0.5,1.8c0.3,0.3,0.6,0.5,1,0.7c0.7,0.2,1.4,0.2,1.6,0.2c0.8,0,1-0.4,1.1-0.7
						c0.1-0.3,0.5-0.4,0.8-0.3c0.3,0.1,0.4,0.5,0.3,0.8c-0.2,0.6-0.8,1.3-2.1,1.4C250.5,153.8,250.4,153.8,250.3,153.8z"/>
				</g>
			</g>
		</g>
		<g>
			<g>
				<path class="st31" d="M246.8,153.4c-0.4,0-0.8-0.2-1.1-0.5c-0.8-0.7-0.8-1.9-0.1-2.7c1.4-1.5,2.8-1.8,3.8-1.7c0,0,0,0,0,0
					c2.1,0.2,3.4,2,3.5,2.2c0.6,0.9,0.4,2.1-0.5,2.7c-0.9,0.6-2.1,0.4-2.7-0.5c-0.2-0.2-0.5-0.5-0.7-0.5c0,0,0,0,0,0
					c-0.1,0-0.3,0.1-0.6,0.5C248,153.3,247.4,153.5,246.8,153.4z"/>
			</g>
		</g>
		<g>
			<g>
				<path class="st18" d="M247,154c-0.1,0-0.1,0-0.2,0c-0.6,0-1.1-0.3-1.5-0.7c-0.5-0.5-0.8-1.1-0.8-1.7c0-0.7,0.2-1.3,0.7-1.8
					c1.6-1.7,3.2-2,4.2-1.9l0,0.6l-0.1,0.6c-0.8-0.1-2.1,0.2-3.3,1.5c-0.2,0.3-0.4,0.6-0.4,1c0,0.4,0.2,0.7,0.4,0.9
					c0.2,0.2,0.5,0.3,0.8,0.4c0.4,0,0.8-0.1,1.1-0.4c0.3-0.3,0.7-0.6,1.1-0.6c0,0,0,0,0,0c0,0,0,0,0,0c0.5,0,0.9,0.6,1.1,0.7
					c0.2,0.3,0.1,0.6-0.1,0.8c-0.3,0.2-0.6,0.1-0.8-0.1c0-0.1-0.1-0.1-0.2-0.2c-0.1,0-0.1,0.1-0.2,0.2
					C248.3,153.7,247.7,154,247,154z"/>
			</g>
		</g>
		<g>
			<g>
				<g>
					<path class="st55" d="M251.4,153.8c0.4-0.3-0.2-1.3-0.2-1.8c0-0.6,0.3-1.4-0.2-1.8c-0.3-0.2-1.2-0.2-1.6-0.2l-7.2-0.5
						c-1-0.1-1.9,0.7-2,1.8c-0.1,1,0.7,1.9,1.8,2l7.2,0.5C249.7,153.8,251,154.1,251.4,153.8z"/>
				</g>
			</g>
			<g>
				<g>
					<path class="st18" d="M249.8,156.2c-0.1,0-0.1,0-0.2,0c-0.3-0.1-0.5-0.4-0.4-0.7c0.1-0.4,0-0.6,0-0.6c-0.2-0.3-0.9-0.5-1.2-0.5
						l-6.2-0.4c-0.7,0-1.3-0.3-1.7-0.8c-0.4-0.5-0.7-1.1-0.6-1.8c0-0.7,0.3-1.3,0.8-1.7c0.5-0.4,1.1-0.7,1.8-0.6l7.5,0.4
						c0.3,0,0.6,0.3,0.6,0.6c0,0.3-0.3,0.6-0.6,0.6l-7.5-0.4c-0.4,0-0.7,0.1-1,0.3c-0.3,0.2-0.4,0.6-0.4,0.9c0,0.3,0.1,0.7,0.3,0.9
						c0.2,0.3,0.6,0.4,0.9,0.4l6.2,0.4c0.2,0,1.5,0.1,2.1,1c0.2,0.3,0.4,0.9,0.1,1.7C250.3,156.1,250.1,156.2,249.8,156.2z"/>
				</g>
			</g>
		</g>
		<g>
			<g>
				<path class="st18" d="M250.8,159.6c-0.3,0-0.5,0-0.7-0.1c-0.8-0.3-1.4-1.1-1.5-2c-0.1-0.9,0.4-1.7,0.9-2.2
					c0.2-0.2,0.6-0.2,0.8,0c0.2,0.2,0.2,0.6,0,0.8c-0.3,0.3-0.6,0.8-0.5,1.3c0,0.5,0.3,0.9,0.7,1c0.2,0.1,0.4,0.1,0.5,0
					c1.7-0.3,2.5-1.4,2.9-2.2c0.1-0.3,0.5-0.4,0.8-0.3c0.3,0.1,0.4,0.5,0.3,0.8c-0.7,1.6-2,2.6-3.8,3
					C251.1,159.6,250.9,159.6,250.8,159.6z"/>
			</g>
		</g>
	</g>
</g>
<g class="st93">
	<path class="st4" d="M241.2,150.3c0,0,1.5-1,5.7-0.5c4.2,0.5,4.2,0.1,9,4.2c4.8,4,10.5,4.7,12.5,3.4v2.3l-15.3-0.9
		c0,0-4.2,1.2-3.9-1.3c0.2-2.5,3.4-3.9-3.1-3.8C239.5,153.7,239.5,151.7,241.2,150.3z"/>
</g>
<g class="st93">
	<path class="st4" d="M282.8,147.8c0,0-4.5,2.4,2.2,9.5l-0.7,2.8C284.3,160.1,272.8,148.9,282.8,147.8z"/>
</g>
<g class="st93">
	<path class="st4" d="M279.2,134.3l6.3,8.9c0,0-0.4,1.7,1.4,1.9s0.8,2.5,0.8,2.5l-7.6,0.3v-0.7l3.5-2.5l-5.7-9.6
		c0,0-6.9-1.3-2.6-6.3L279.2,134.3z"/>
</g>
<g class="st93">
	<path class="st4" d="M290.3,125.5c0,0,0.5,6.3,4.7,11.6s9.1,7.1,9.1,7.1l-4.1,2l-9.7-1.2l-1.8-18.5L290.3,125.5z"/>
</g>
<g class="st93">
	<path class="st4" d="M308.3,152.8c0,0,1,6.2,13.3,3.1l-1.5,2.8l-7.7-0.6l-4.5-1.4C308,156.6,306.5,154.8,308.3,152.8z"/>
</g>
<g class="st93">
	<path class="st4" d="M291.4,154.2l12.4,16.5c0,0,0.5,1.6,0.2,2.6c-0.5,1.6-1.5,3.1,1.2,4.1c4.2,1.5,7.4,3.6,7.4,3.6
		s-5.3,0.8-5.4,0.8c-0.1,0-4.5,1.7-4.5,1.7l0.4,1.2l-15-0.2l-4.3-15.8c0,0,1.3-13.9,2.4-16.5s1.7-5.4,3.5-5.2
		C291.2,147.2,288.8,152,291.4,154.2z"/>
</g>
<g class="st93">
	<path class="st4" d="M285.5,177.4c0,0-5.7,5.9-6,7.1s-1.1,8.8,1.2,10.6c2.3,1.7,12-10.4,12-10.4l-4.9-0.2L285.5,177.4z"/>
</g>
<g class="st93">
	<path class="st4" d="M292.7,184.7l9.4-0.2l1-1l1.7-0.4l2.8-1.4c0,0-0.2,7.5,12.4,10.3c0,0,0.1,4.9-0.8,5.1
		c-0.9,0.2-3.6-0.9-3.6-0.9l-9.3-2.4l-5.6-0.4l-0.5-3.8l-1.6-0.1c0,0,0.8,3.4-0.2,4s-12.4,0.4-12.4,0.4l0.1-2.2L292.7,184.7z"/>
</g>
<g class="st93">
	<path class="st4" d="M286,222c0,0,3.3-1.3,5.2,1.3l2-0.7l2.5,9.6c0,0-9.2,2.9-11.4,3.4c-2.2,0.6-6.2-1.8-6.2-1.8s0.4-3.3,1.9-3.6
		s4.9-1.4,5.1-3C285.4,225.8,286,222,286,222z"/>
</g>
<g class="st93">
	<path class="st4" d="M303.7,222.7c0,0,0.6-2.1,2.4-1.5c1.8,0.6,3.2,2,3.2,2l-1.2,2.5c0,0-0.3,5.8,5.5,7.5l-8.8,3.8l-7.7-1.1l-1-1.1
		c0,0-0.3-2.7,1.6-3.3c1.9-0.6,3.7-1,3.7-1l2.2-4V222.7z"/>
</g>
</svg>
