<?xml version="1.0" encoding="utf-8"?>
<!-- Generator: Adobe Illustrator 23.0.2, SVG Export Plug-In . SVG Version: 6.00 Build 0)  -->
<svg version="1.1" id="Layer_2" xmlns="http://www.w3.org/2000/svg" xmlns:xlink="http://www.w3.org/1999/xlink" x="0px" y="0px"
	 viewBox="0 0 460 345" style="enable-background:new 0 0 460 345;" xml:space="preserve">
<style type="text/css">
	.st0{fill:#2AC6EA;}
	.st1{fill:none;stroke:#1B0C59;stroke-width:2.8915;stroke-linecap:round;stroke-linejoin:round;stroke-miterlimit:10;}
	.st2{fill:none;stroke:#1B0C59;stroke-width:35.2835;stroke-linecap:round;stroke-linejoin:round;stroke-miterlimit:10;}
	.st3{fill:none;stroke:#2AC6EA;stroke-width:30.243;stroke-linecap:round;stroke-linejoin:round;stroke-miterlimit:10;}
	.st4{fill:none;stroke:#191059;stroke-width:2.3428;stroke-linecap:round;stroke-linejoin:round;stroke-miterlimit:10;}
	.st5{fill:#1B0C59;}
	.st6{fill:#EB586F;}
	.st7{fill:none;stroke:#1B0C59;stroke-width:2.321;stroke-linecap:round;stroke-linejoin:round;stroke-miterlimit:10;}
	.st8{fill:none;stroke:#1B0C59;stroke-width:8.5957;stroke-linecap:round;stroke-linejoin:round;stroke-miterlimit:10;}
	.st9{fill:none;stroke:#1B0C59;stroke-width:2.5203;stroke-linecap:round;stroke-linejoin:round;stroke-miterlimit:10;}
	.st10{fill:#24C7EA;}
	.st11{fill:none;stroke:#191059;stroke-width:2.3899;stroke-linecap:round;stroke-linejoin:round;stroke-miterlimit:10;}
	.st12{fill:none;stroke:#191059;stroke-width:1.9001;stroke-linecap:round;stroke-linejoin:round;stroke-miterlimit:10;}
	.st13{fill:none;stroke:#191059;stroke-width:1.9825;stroke-linecap:round;stroke-linejoin:round;stroke-miterlimit:10;}
	.st14{fill:#D8E9F0;}
	.st15{fill:none;stroke:#1B0C59;stroke-width:2.2585;stroke-miterlimit:10;}
	.st16{fill:none;stroke:#1B0C59;stroke-width:2.2585;stroke-linecap:round;stroke-miterlimit:10;}
	.st17{fill:#D8E9F0;stroke:#1B0C59;stroke-width:2.2585;stroke-miterlimit:10;}
	.st18{fill:#EB586F;stroke:#1B0C59;stroke-width:2.2585;stroke-miterlimit:10;}
	.st19{opacity:0.2;}
	.st20{fill:#FFFFFF;}
	.st21{fill:none;stroke:#1B0C59;stroke-width:2.1331;stroke-linecap:round;stroke-linejoin:round;stroke-miterlimit:10;}
	.st22{fill:#2AC6EA;stroke:#1B0C59;stroke-width:2.3163;stroke-linecap:round;stroke-linejoin:round;stroke-miterlimit:10;}
	.st23{fill:none;stroke:#191059;stroke-width:2.2055;stroke-linecap:round;stroke-linejoin:round;stroke-miterlimit:10;}
	.st24{fill:none;stroke:#191059;stroke-width:2.3012;stroke-linecap:round;stroke-linejoin:round;stroke-miterlimit:10;}
	.st25{fill:#191059;stroke:#191059;stroke-width:2.841;stroke-linecap:round;stroke-linejoin:round;stroke-miterlimit:10;}
	.st26{fill:#2AC6EA;stroke:#191059;stroke-width:2.841;stroke-linecap:round;stroke-linejoin:round;stroke-miterlimit:10;}
	.st27{fill:none;stroke:#191059;stroke-width:2.841;stroke-linecap:round;stroke-linejoin:round;stroke-miterlimit:10;}
	.st28{display:none;fill:#FFFFFF;}
	.st29{fill:none;stroke:#1B0C59;stroke-width:2.117;stroke-linecap:round;stroke-linejoin:round;stroke-miterlimit:10;}
	.st30{fill:#2AC6EA;stroke:#1B0C59;stroke-width:2.2988;stroke-linecap:round;stroke-linejoin:round;stroke-miterlimit:10;}
	.st31{fill:none;stroke:#1B0C59;stroke-width:2.2988;stroke-linecap:round;stroke-linejoin:round;stroke-miterlimit:10;}
	
		.st32{display:none;fill:none;stroke:#1B0C59;stroke-width:2.2988;stroke-linecap:round;stroke-linejoin:round;stroke-miterlimit:10;}
	.st33{fill:none;stroke:#191059;stroke-width:2.2546;stroke-linecap:round;stroke-linejoin:round;stroke-miterlimit:10;}
	.st34{fill:#D8E9F0;stroke:#1B0C59;stroke-width:2.2546;stroke-linecap:round;stroke-linejoin:round;stroke-miterlimit:10;}
	.st35{opacity:0.25;fill:#191059;}
</style>
<g>
	<g>
		<path class="st0" d="M201.8,244.4l-7.6-16c-2.2-4.7-2.1-11.5,0.4-18.7l8.5-24.5c2.7-7.8,10.7-12.3,13.5-7.6l9.6,16
			c2.4,4.1,2.3,10.6-0.4,17.4l-10.5,26.6C212.2,245.6,204.2,249.5,201.8,244.4z"/>
		<path class="st1" d="M201.8,244.4l-7.6-16c-2.2-4.7-2.1-11.5,0.4-18.7l8.5-24.5c2.7-7.8,10.7-12.3,13.5-7.6l9.6,16
			c2.4,4.1,2.3,10.6-0.4,17.4l-10.5,26.6C212.2,245.6,204.2,249.5,201.8,244.4z"/>
	</g>
	<polyline class="st2" points="196.9,205.2 243,225.5 242.2,272.9 	"/>
	<polyline class="st2" points="156.3,213.1 134.6,248.2 90,262 	"/>
	<g>
		<g>
			<path class="st0" d="M134.4,221.1c0,0,2.6-9.7,5.3-19.2c1.6-5.6,2.9-10.1,4-13.4c0.7-2.2,1.2-3.8,1.7-5.1c0.4-1.1,0.8-2,1.1-2.7
				c3.6-7.5,11.4-11.6,19.4-10.1c9.6,1.8,15.9,11,14.1,20.6c-0.3,1.8-1,3.6-1.8,5.1c-1.6,4.7-9.8,34-9.8,34L134.4,221.1z
				 M159.5,205.3c4.5,0.8,8.5-0.1,11.7-1.9C167.7,205.4,163.6,206.1,159.5,205.3z"/>
		</g>
		<g>
			<path class="st0" d="M214,228.6c-1.2,2.1-3.9,2.8-6.1,1.6c-7.5-4.3-23.6-13.5-27-15.2c-2.8-0.9-5.4-2.4-7.7-4.8
				c-4.9-5.1-6.2-13-3.2-19.5c4.1-8.6,13.6-12.3,22.5-9.2c0.8,0.3,1.7,0.7,2.7,1.2c1.2,0.6,2.8,1.4,4.8,2.4c3,1.6,7.1,3.9,12.2,6.8
				c8.6,4.8,17.2,9.9,17.2,9.9L214,228.6z M190.9,215.1c3.5-1,7-3.1,9.6-6.9C198.1,211.7,194.7,214.1,190.9,215.1z"/>
		</g>
		<path class="st0" d="M195.3,206.5c1.1,6.9-3.4,12.8-10.3,14l-11.8,2.5l0,0c-6.9,1.1-13.4-3.5-14.5-10.4l-0.8-4.9
			c-1.1-6.9,3.5-13.4,10.4-14.5l11.7-2c6.9-1.1,13.4,3.5,14.5,10.4L195.3,206.5z"/>
		<g>
			<path class="st1" d="M171.8,222.9c-2,7.1-2.1,7-2.1,7l-41.1-11.2c0,0,2.6-9.7,5.3-19.2c1.6-5.6,2.9-10.1,4-13.4
				c0.7-2.2,1.2-3.8,1.7-5.1c0.4-1.1,0.8-2,1.1-2.7c1.2-2.6,3-4.7,5-6.4"/>
		</g>
		<g>
			<path class="st1" d="M184.4,180.6c2.6-0.3,5.4,0.1,8.1,1c0.8,0.3,1.7,0.7,2.7,1.2c1.2,0.6,2.8,1.4,4.8,2.4
				c3,1.6,7.1,3.9,12.2,6.8c8.6,4.8,17.2,9.9,17.2,9.9l-15.7,27c0,0-1.5,3.9-7.9,0.2l-17-9.7"/>
		</g>
		<line class="st1" x1="171.8" y1="222.9" x2="187.8" y2="218.7"/>
		<path class="st1" d="M178.4,201.7c0,0,6.9,11.4,1.1,19.1"/>
	</g>
	<g>
		<polyline class="st2" points="211.7,122.3 244,157.1 284.4,157.1 		"/>
		<line class="st3" x1="261" y1="157.1" x2="284.4" y2="157.1"/>
	</g>
	<g>
		<path class="st0" d="M239.7,126.7c3.6-10.8-2.3-23.2-13.5-26.9c-11.2-3.7-23.3,2.7-26.9,13.5C195.7,124,236.1,137.5,239.7,126.7z"
			/>
		<path class="st4" d="M239.7,126.7c3.6-10.8-2.3-23.2-13.5-26.9c-11.2-3.7-23.3,2.7-26.9,13.5C195.7,124,236.1,137.5,239.7,126.7z"
			/>
	</g>
	<path class="st5" d="M141.7,221.3l-6.3-1.8l1.5-5.2l4.4,1.3c1.1,0.3,1.7,1.4,1.4,2.5L141.7,221.3z"/>
	<path class="st5" d="M154.2,224.9l-6.3-1.8l0.9-3.3c0.3-1.1,1.4-1.7,2.5-1.4l2.5,0.7c1.1,0.3,1.7,1.4,1.4,2.5L154.2,224.9z"/>
	<path class="st5" d="M166.7,228.5l-6.3-1.8l0.9-3.3c0.3-1.1,1.4-1.7,2.5-1.4l4.4,1.3L166.7,228.5z"/>
	<path class="st5" d="M225.3,208.1l3.3-5.7l-4.7-2.7l-2.3,4c-0.6,1-0.2,2.2,0.7,2.8L225.3,208.1z"/>
	<path class="st5" d="M218.5,220.4l3.3-5.7l-3-1.7c-1-0.6-2.2-0.2-2.8,0.7l-1.3,2.2c-0.6,1-0.2,2.2,0.7,2.8L218.5,220.4z"/>
	<path class="st5" d="M211.8,231.1l3.3-5.7l-3-1.7c-1-0.6-2.2-0.2-2.8,0.7l-2.3,4L211.8,231.1z"/>
	<g>
		<path class="st0" d="M115.4,229.8l0.8-18.3c0.2-5.4,3.7-11.5,9.5-16.8l19.7-18.1c6.3-5.8,15.7-6,16-0.4l0.9,19.3
			c0.2,4.9-3.1,10.8-8.8,15.7L131,230.4C124.4,236,115.2,235.6,115.4,229.8z"/>
		<path class="st1" d="M115.4,229.8l0.8-18.3c0.2-5.4,3.7-11.5,9.5-16.8l19.7-18.1c6.3-5.8,15.7-6,16-0.4l0.9,19.3
			c0.2,4.9-3.1,10.8-8.8,15.7L131,230.4C124.4,236,115.2,235.6,115.4,229.8z"/>
	</g>
	<g>
		<path class="st0" d="M182.2,203.4c-3,0.1-6.1-0.1-9.5-0.7c-23.5-4-29.2-27.3-29.5-28.3c-0.7-3,1.1-6,4.1-6.7c3-0.7,6,1.1,6.7,4.1
			c0.2,0.7,4.4,17.2,20.5,19.9c19.5,3.3,28.6-9.5,30.9-13.5c1.5-2.6,4.9-3.5,7.6-2c2.6,1.5,3.5,4.9,2,7.6
			C209.4,193.5,198.2,202.8,182.2,203.4z"/>
	</g>
	<g>
		<path class="st1" d="M182.2,203.4c-3,0.1-6.1-0.1-9.5-0.7c-23.5-4-29.2-27.3-29.5-28.3c-0.7-3,1.1-6,4.1-6.7c3-0.7,6,1.1,6.7,4.1
			c0.2,0.7,4.4,17.2,20.5,19.9c19.5,3.3,28.6-9.5,30.9-13.5c1.5-2.6,4.9-3.5,7.6-2c2.6,1.5,3.5,4.9,2,7.6
			C209.4,193.5,198.2,202.8,182.2,203.4z"/>
	</g>
	<g>
		<path class="st0" d="M229.4,140.4L229.4,140.4c3.9-12.3-2-25.2-13.3-28.8l-39.9-12.8c-11.3-3.6-23.6,3.4-27.5,15.7l0,0
			c-1,3.3-5.7,17.7-7.1,22.3c-2.9,9.1-3.1,18.4-1.1,26.9c0.8,3.4,2,6.7,3.6,9.8c4.9,9.8,13.2,17.5,24,21c10.8,3.5,22.1,2,31.8-3.1
			c3-1.6,5.9-3.6,8.6-5.9c6.6-5.7,11.8-13.4,14.7-22.5C224.7,157.9,228.5,143.1,229.4,140.4z"/>
		<path class="st1" d="M229,140.3L229,140.3c3.9-12.3-2-25.2-13.3-28.8l-39.9-12.8c-11.3-3.6-23.6,3.4-27.5,15.7v0
			c-1,3.3-5.7,17.7-7.1,22.3c-2.9,9.1-3.1,18.4-1.1,26.9c0.8,3.4,2,6.7,3.6,9.8c4.9,9.8,13.2,17.5,24,21c10.8,3.5,22.1,2,31.8-3.1
			c3-1.6,5.9-3.6,8.6-5.9c6.6-5.7,11.8-13.4,14.7-22.5C224.4,157.8,228.1,143,229,140.3z"/>
	</g>
	<g>
		<polyline class="st2" points="154.3,110.6 112,137.3 109,172.9 		"/>
		<line class="st3" x1="110.5" y1="149.2" x2="109" y2="172.9"/>
	</g>
	<g>
		<path class="st0" d="M130,104.1c4.6-10.4,17.3-15.7,28-11s15.5,17.6,11,28S125.4,114.5,130,104.1z"/>
		<path class="st4" d="M130,104.1c4.6-10.4,17.3-15.7,28-11s15.5,17.6,11,28S125.4,114.5,130,104.1z"/>
	</g>
	<g>
		<path class="st0" d="M217,96.3l-39.7-4c-4.5-0.5-7.9-4.5-7.4-9.1l5-49.8l56.2,5.7l-5,49.8C225.5,93.5,221.5,96.8,217,96.3z"/>
		
			<rect x="196.4" y="23.3" transform="matrix(6.583891e-02 -0.9978 0.9978 6.583891e-02 136.2506 248.6485)" class="st6" width="9.1" height="56.5"/>
		<path class="st1" d="M218,95.7l-39.8-2.6c-4.6-0.3-8-4.2-7.7-8.8l3.3-49.9l56.3,3.7L226.8,88C226.5,92.6,222.6,96,218,95.7z"/>
		
			<rect x="199.9" y="65.7" transform="matrix(0.9978 6.583891e-02 -6.583891e-02 0.9978 5.7093 -13.3803)" class="st5" width="11.9" height="28.5"/>
		<line class="st7" x1="170.5" y1="54.1" x2="230.8" y2="58.1"/>
		<line class="st7" x1="171.1" y1="45" x2="231.4" y2="49"/>
		<line class="st8" x1="188.2" y1="64.7" x2="218.4" y2="66.7"/>
	</g>
	<path class="st0" d="M216.1,111.7L216.1,111.7c-13.5,15.7-38.8,11-45.7-8.5l0,0l0.8-4.5c0.5-2.7,3.1-4.5,5.9-4l35.8,6.7
		c2.7,0.5,4.5,3.1,4,5.9L216.1,111.7z"/>
	<path class="st9" d="M217.2,112L217.2,112c-13.5,15.7-38.8,11-45.7-8.5l0,0l0.8-4.5c0.5-2.7,3.1-4.5,5.9-4l35.8,6.7
		c2.7,0.5,4.5,3.1,4,5.9L217.2,112z"/>
	<path class="st5" d="M209.4,106.7l-0.3,0.1c-10.4,4.1-22.2,1.9-30.4-5.8l0,0l0.7-7.8l31.8,3.5L209.4,106.7z"/>
	<path class="st9" d="M210.2,107.1c-10.4,4.1-26.6,1.4-32.2-8.3"/>
	<path class="st0" d="M141,165.3"/>
	<path class="st9" d="M172.6,195.4c0,0,20.5,3.2,25.7-31v0l4.1-26.9l0.9-8.1c0.4-3.7-2-7.1-5.6-7.7v0"/>
	<g>
		<circle class="st0" cx="291.1" cy="153.5" r="12.2"/>
		<circle class="st10" cx="293" cy="162" r="10.9"/>
		<path class="st11" d="M295.7,151.5c5.8,1.5,9.3,7.4,7.8,13.3s-7.4,9.3-13.3,7.8c-1.4-0.4-2.7-1-3.8-1.9"/>
		<g>
			<g>
				<path class="st10" d="M303.7,163.3c1.1,1.4,1.5,3,1,4.5c-1,2.9-5.4,3.9-9.7,2.4c-4.4-1.5-7.1-5.1-6-8c0.5-1.4,1.8-2.4,3.6-2.8
					L303.7,163.3z"/>
				<path class="st12" d="M303.7,163.3c1.1,1.4,1.5,3,1,4.5c-1,2.9-5.4,3.9-9.7,2.4c-4.4-1.5-7.1-5.1-6-8c0.5-1.4,1.8-2.4,3.6-2.8"
					/>
			</g>
			<g>
				<path class="st10" d="M295,152.5c-1.7,0.6-3,1.7-3.3,3.1c-0.4,1.5,0.2,3,1.4,4.4c1.2,1.3,3.1,2.5,5.3,3c2.2,0.6,4.4,0.5,6.1-0.1
					c1.7-0.6,3-1.7,3.3-3.1c0.4-1.5-0.2-3-1.4-4.4L295,152.5z"/>
				<path class="st12" d="M295,152.5c-1.7,0.6-3,1.7-3.3,3.1c-0.4,1.5,0.2,3,1.4,4.4c1.2,1.3,3.1,2.5,5.3,3c2.2,0.6,4.4,0.5,6.1-0.1
					c1.7-0.6,3-1.7,3.3-3.1c0.4-1.5-0.2-3-1.4-4.4"/>
			</g>
			<g>
				<path class="st10" d="M308.7,151.3c-0.5,3-4.6,4.8-9.2,4c-4.6-0.8-7.8-3.8-7.3-6.8c0.4-2.7,1.9-3.9,5.8-3.7
					c0.2,0,4.5,0.4,7.1,1.6C307.9,147.7,309,149.7,308.7,151.3z"/>
				<path class="st12" d="M301.5,144.5c0.5,0.1,1.1,0.2,1.5,0.3c3.8,1.1,6.4,3.8,5.9,6.5c-0.5,3-4.6,4.8-9.2,4
					c-4.6-0.8-7.8-3.8-7.3-6.8c0.2-1.5,1.3-2.6,2.9-3.4C295.3,145.2,297.6,144,301.5,144.5z"/>
			</g>
		</g>
		
			<ellipse transform="matrix(8.733316e-03 -1 1 8.733316e-03 143.2806 436.3158)" class="st10" cx="291.7" cy="145.9" rx="8.7" ry="5.7"/>
		<path class="st13" d="M286.9,141.2c1-2.6,2.8-4.1,4.9-4c3.2,0,5.7,4,5.7,8.8s-2.6,8.7-5.8,8.7c-2.1,0-3.9-1.7-4.9-4.3"/>
	</g>
	<g>
		<g>
			<g>
				
					<rect x="103.7" y="162.2" transform="matrix(0.2151 -0.9766 0.9766 0.2151 -88.6412 245.528)" class="st14" width="9.5" height="31.4"/>
				
					<rect x="103.7" y="162.2" transform="matrix(0.2151 -0.9766 0.9766 0.2151 -88.6412 245.528)" class="st15" width="9.5" height="31.4"/>
				<line class="st16" x1="95.3" y1="179.9" x2="108" y2="171.9"/>
				<line class="st16" x1="91.9" y1="177.6" x2="105.5" y2="168.9"/>
				<line class="st16" x1="101" y1="181.1" x2="113.9" y2="172.6"/>
				<line class="st16" x1="116.2" y1="184.5" x2="124.1" y2="179.5"/>
				<line class="st16" x1="111" y1="183.3" x2="124.3" y2="174.9"/>
			</g>
			<g>
				<g>
					<g>
						<path class="st14" d="M260.1,223.4c-3.9,0-7.8-0.4-11.6-1.3l-84.3-18.6l0,0l-35.4-7.8l5.3-24.3l119.8,26.4
							c0.2,0,0.3,0.1,0.5,0.1c4.2,1,8.3,2.5,12.2,4.4c7,3.6,13.3,8.7,18.2,15C277.2,221.3,268.7,223.4,260.1,223.4L260.1,223.4z"/>
						<path class="st5" d="M135.1,172.8l77.2,17l36.8,8.1l4.5,1l0.2,0c0.1,0,0.3,0.1,0.4,0.1l0,0l0,0c4.1,1,8.1,2.4,11.9,4.3
							c6.5,3.3,12.3,7.9,16.9,13.6c-7.1,3.4-15,5.3-22.9,5.3c-3.8,0-7.6-0.4-11.3-1.2l-26.5-5.8l-15.5-3.4l-5.2-1.2l-36.8-8.1
							l-0.6-0.1l-34-7.5L135.1,172.8 M133.4,170.1l-5.8,26.5l0.3,0.1l1.7,0.4l34.8,7.7l0,0l36.8,8.1l5.2,1.2l15.5,3.4l26.5,5.8
							c3.9,0.9,7.9,1.3,11.8,1.3c9.2,0,18.2-2.3,26.4-6.8c-5.1-6.9-11.8-12.5-19.3-16.3c-3.9-2-8-3.5-12.4-4.5
							c-0.2-0.1-0.4-0.1-0.7-0.2l-4.5-1l-36.8-8.1l-79.2-17.4L133.4,170.1L133.4,170.1z"/>
					</g>
				</g>
				<path class="st5" d="M286.5,217.7l-40.5-8.9l-15.5-3.4l-5.2-1.2l-36.8-8.1l-56.1-12.4l-2.9,13.2l0,0l34.8,7.7l0,0l36.8,8.1
					l5.2,1.2l15.5,3.4l26.5,5.8C261.3,226.1,274.9,224.1,286.5,217.7z"/>
			</g>
			<g>
				<g>
					<path class="st14" d="M124.9,201.9c-0.3,0-0.5,0-0.8-0.1c-0.9-0.2-1.8-0.8-2.3-1.6s-0.7-1.8-0.5-2.7l7.2-32.7
						c0.4-1.6,1.9-2.8,3.5-2.8c0.3,0,0.5,0,0.8,0.1c0.9,0.2,1.8,0.8,2.3,1.6s0.7,1.8,0.5,2.7l-7.2,32.7
						C128.1,200.8,126.6,201.9,124.9,201.9z"/>
					<path class="st5" d="M132.1,163.1c0.2,0,0.4,0,0.5,0.1c1.3,0.3,2.2,1.6,1.9,3l-7.2,32.7c-0.3,1.2-1.3,2-2.4,2
						c-0.2,0-0.4,0-0.5-0.1c-1.3-0.3-2.2-1.6-1.9-3l7.2-32.7C129.9,163.9,130.9,163.1,132.1,163.1 M132.1,160.9L132.1,160.9
						c-2.2,0-4.2,1.6-4.6,3.7l-7.2,32.7c-0.3,1.2,0,2.5,0.6,3.6c0.7,1.1,1.7,1.8,3,2.1c0.3,0.1,0.7,0.1,1,0.1c2.2,0,4.2-1.6,4.6-3.7
						l7.2-32.7c0.6-2.6-1.1-5.1-3.6-5.7C132.8,160.9,132.4,160.9,132.1,160.9L132.1,160.9z"/>
				</g>
			</g>
			<g>
				<circle class="st17" cx="83.7" cy="172.5" r="9.6"/>
				<line class="st18" x1="74.3" y1="170.4" x2="93.1" y2="174.5"/>
				<line class="st18" x1="81.7" y1="181.9" x2="85.8" y2="163.1"/>
				<g>
					<path class="st6" d="M83.7,177.6c-0.4,0-0.7,0-1.1-0.1c-1.3-0.3-2.5-1.1-3.2-2.2s-1-2.5-0.7-3.8c0.5-2.3,2.6-4,5-4
						c0.4,0,0.7,0,1.1,0.1c1.3,0.3,2.5,1.1,3.2,2.2c0.7,1.1,1,2.5,0.7,3.8C88.2,175.9,86.1,177.6,83.7,177.6z"/>
					<path class="st5" d="M83.7,168.5L83.7,168.5c0.3,0,0.6,0,0.9,0.1c2.1,0.5,3.5,2.6,3,4.7c-0.4,1.8-2,3.1-3.9,3.1
						c-0.3,0-0.6,0-0.9-0.1c-1-0.2-1.9-0.8-2.5-1.7c-0.6-0.9-0.8-2-0.5-3C80.2,169.8,81.9,168.5,83.7,168.5 M83.7,166.2
						c-2.9,0-5.4,2-6.1,4.9c-0.7,3.4,1.4,6.7,4.7,7.4c0.5,0.1,0.9,0.1,1.3,0.1c2.9,0,5.4-2,6.1-4.9c0.7-3.4-1.4-6.7-4.7-7.4
						C84.6,166.3,84.2,166.2,83.7,166.2L83.7,166.2z"/>
				</g>
			</g>
		</g>
		<g class="st19">
			<polygon class="st20" points="249.6,195.7 212.8,187.6 164.3,204.7 201.1,212.8 			"/>
		</g>
		<g class="st19">
			<path class="st20" d="M267.2,201.4c-3.9-2-8-3.5-12.4-4.5L206.3,214l15.5,3.4L267.2,201.4z"/>
		</g>
	</g>
	<g>
		<path class="st0" d="M51.4,262l24.7-12.3l5.6,13.9c17.3-6.6,21.1,13.5,21.1,13.5l-13.5,2l-4,7.8c-1.8,3.6-1.9,7.9-0.1,11.6l2,4.2
			c0.4,2.1-0.5,4.5-2.4,6.2l-5.1,4.4L65.3,298L51.4,262z"/>
		<path class="st21" d="M51.4,262l24.7-12.3l5.6,13.9c17.3-6.6,21.1,13.5,21.1,13.5l-13.5,2l-4,7.8c-1.8,3.6-1.9,7.9-0.1,11.6l2,4.2
			c0.4,2.1-0.5,4.5-2.4,6.2l-5.1,4.4L65.3,298L51.4,262z"/>
		<g>
			<path class="st5" d="M74.7,315.5l-10.4-12c-2-2.3-3.5-5-4.3-8c-2.7-9.7-8.7-31.8-8.8-32.1c-0.5-2.5-0.6-3.9,1.1-5.4h0
				c2.2-1.9,5.6-0.8,6.3,1.9l8,29.7c0.8,3,2.3,5.8,4.3,8.1l10.4,12c1.4,1.6,1,4.1-0.9,5.7C78.6,317.1,76.1,317.1,74.7,315.5z"/>
		</g>
		<path class="st22" d="M83.1,246.6l5.1,12.7c1.7,4.1-0.3,8.9-4.5,10.5h0l-8.2-20.2c-0.8-2.1,0.2-4.4,2.2-5.3l0,0
			C79.9,243.5,82.2,244.5,83.1,246.6z"/>
		<polyline class="st21" points="82.9,270 79.2,271.9 76.1,279.6 83.7,288.3 		"/>
		<path class="st21" d="M85.9,300.2c0,0-3.4-8.2-9.8-11.4l0,0"/>
		<line class="st21" x1="82.6" y1="270.6" x2="89.7" y2="278.7"/>
	</g>
	<g>
		<circle class="st0" cx="110.1" cy="170.6" r="14.1"/>
		<g>
			<path class="st10" d="M103.6,172.8c-0.9-1.9-2.4-3.2-4.1-3.4c-3.5-0.4-6.9,3.5-7.5,8.8c-0.7,5.3,1.6,10,5.1,10.4
				c1.7,0.2,3.5-0.7,4.8-2.2"/>
			<path class="st10" d="M111.4,187.6c-1.2,1.7-2.8,2.7-4.6,2.7c-1.8-0.1-3.3-1.2-4.4-3c-1.1-1.8-1.7-4.3-1.6-6.9
				c0.1-2.7,0.9-5.1,2.1-6.8c1.2-1.7,2.8-2.7,4.6-2.7c1.8,0.1,3.3,1.2,4.4,3"/>
			<g>
				<path class="st10" d="M116.7,189.1c-3.5,0.2-6.6-2.7-6.9-9.4c-0.3-5.4,2.4-9.8,5.9-10c3.1-0.2,4.8,1.2,5.6,5.7
					c0,0.3,0.6,5.2,0,8.4C120.6,187.3,118.6,189,116.7,189.1z"/>
				<path class="st23" d="M91.9,178.2"/>
				<path class="st23" d="M122.6,179.2c0,0.6,0.1,1.3,0,1.8c-0.3,4.6-2.7,8.1-5.9,8.3c-1.5,0.1-3-0.7-4.2-2c0,0-0.8-0.8-1.1,0.3
					c-1.2,1.7-2.8,2.7-4.6,2.7c-1.8-0.1-3.3-1.2-4.4-3c-0.2-0.3-0.4-0.7-0.6-1.1l0,0.3c-1.4,1.6-3.1,2.5-4.8,2.2
					c-5.2-0.8-7.7-9.5-3.3-15.8"/>
			</g>
		</g>
		
			<ellipse transform="matrix(0.114 -0.9935 0.9935 0.114 -66.2887 271.5608)" class="st10" cx="119.1" cy="172.9" rx="4.9" ry="10.1"/>
		<path class="st24" d="M125.7,168.8c2.6,2,3.1,4,2.3,6.3c-0.7,2.2-3,3.6-5.9,4"/>
	</g>
	<rect x="284.6" y="78.7" class="st25" width="8.8" height="197.8"/>
	<path class="st26" d="M330.8,124.8c-0.1,1.1-0.1,2.3-0.2,3.5c-0.4,5.4-0.9,11.1-1.6,17.3c-0.1,1.1-0.3,2.3-0.4,3.5
		c-0.2,1.9-0.5,3.8-0.8,5.8c-0.2,1.2-0.4,2.5-0.5,3.7c-0.4,2.8-0.9,5.6-1.4,8.5c-0.2,1.2-0.4,2.3-0.6,3.5c-0.3,1.9-0.7,3.8-1.1,5.8
		c-0.2,1.2-0.5,2.3-0.7,3.5c-5.6,27.6-14.9,60.1-30,96.6V78.7h36.4C329.7,78.7,332.6,95.1,330.8,124.8z"/>
	<rect x="293.3" y="101" class="st6" width="38.1" height="11.7"/>
	<polygon class="st6" points="316.2,205.4 293.3,205.4 293.3,193.7 320.3,193.7 	"/>
	<path class="st27" d="M330.8,124.8c-0.1,1.1-0.1,2.3-0.2,3.5c-0.4,5.4-0.9,11.1-1.6,17.3c-0.1,1.1-0.3,2.3-0.4,3.5
		c-0.2,1.9-0.5,3.8-0.8,5.8c-0.2,1.2-0.4,2.5-0.5,3.7c-0.4,2.8-0.9,5.6-1.4,8.5c-0.2,1.2-0.4,2.3-0.6,3.5c-0.3,1.9-0.7,3.8-1.1,5.8
		c-0.2,1.2-0.5,2.3-0.7,3.5c-5.6,27.6-14.9,60.1-30,96.6V78.7h36.4C329.7,78.7,332.6,95.1,330.8,124.8z"/>
	<g>
		<polygon class="st28" points="250.3,286.2 257.7,295.2 268.4,295.1 259.1,285.5 		"/>
		<path class="st0" d="M228.5,311.1v-30.2h17.9v-3.5l12.8-0.4v8.6l0,0c3.3,5.5,8.6,9.5,14.8,11l8.2,2.1c1.9,1.1,3.1,3.3,3.1,5.8v6.7
			H228.5z"/>
		<path class="st29" d="M228.5,311.1v-30.2h17.9v-3.5l12.8-0.4v8.6l0,0c3.3,5.5,8.6,9.5,14.8,11l8.2,2.1c1.9,1.1,3.1,3.3,3.1,5.8
			v6.7H228.5z"/>
		<path class="st30" d="M228.6,272.9h13.6c4.4,0,8,3.6,8,8l0,0h-21.6c-2.2,0-4-1.8-4-4l0,0C224.6,274.7,226.4,272.9,228.6,272.9z"/>
		<g>
			<path class="st5" d="M283.8,316.3h-53.9c-2,0-3.7-2-3.7-4.4c0-2.4,1.7-4.4,3.7-4.4h53.9c2,0,3.7,2,3.7,4.4
				C287.5,314.4,285.8,316.3,283.8,316.3z"/>
		</g>
		<polyline class="st31" points="269.6,295.2 257.7,295.2 250.3,286.2 250.3,280.9 		"/>
		<line class="st31" x1="250.3" y1="286.2" x2="258.8" y2="286.2"/>
		<line class="st32" x1="254.2" y1="290.9" x2="263.1" y2="290.9"/>
	</g>
	<g>
		<g>
			<path class="st5" d="M304.8,157.6l0.2,0.1l1.5,0.4c0.2,0.2,0.3,0.4,0.5,0.6v-2.1C306.3,157,305.6,157.3,304.8,157.6z
				 M306.9,151.7h21.6c0.2-1.2,0.3-2.4,0.4-3.5h-23.7c-0.1,0-0.2,0-0.2,0c-0.3,0-0.7,0.2-0.9,0.4c-0.4,0.3-0.6,0.8-0.6,1.3v20.3
				c0,0.6,0,1.2,0.1,1.8c0.9,5.9,6,10.4,12.1,10.4h7.7c0.2-1.2,0.5-2.3,0.7-3.5h-8.4c-4.8,0-8.8-3.9-8.8-8.8V151.7z"/>
		</g>
		<g>
			<path class="st5" d="M327.1,161.2c0.2-1.3,0.4-2.5,0.5-3.7c-3.9,0.5-6.9,3.8-6.9,7.8v6.1c0,1,0.8,1.8,1.8,1.8h2.6
				c0.2-1.2,0.4-2.3,0.6-3.5h-1.5v-4.4C324.3,163.4,325.5,161.8,327.1,161.2z"/>
		</g>
		<g>
			<path class="st5" d="M330.8,127.4c-0.1,1.1-0.1,2.3-0.2,3.5h-4.9v3c0,1-0.8,1.8-1.8,1.8h-9.4c-0.5,0-0.9-0.2-1.2-0.5
				c-0.3-0.3-0.5-0.8-0.5-1.2v-3h-5.9v10.5h7.6c1,0,1.8,0.8,1.8,1.8c0,1-0.8,1.8-1.8,1.8h-9.3c-1,0-1.8-0.8-1.8-1.8v-14
				c0-1,0.8-1.8,1.8-1.8h9.4c1,0,1.8,0.8,1.8,1.8v3h5.9v-3c0-1,0.8-1.8,1.8-1.8H330.8z"/>
		</g>
	</g>
	<line class="st9" x1="295.1" y1="101" x2="331.4" y2="101"/>
	<line class="st9" x1="293.3" y1="112.7" x2="331.4" y2="112.7"/>
	<line class="st9" x1="295.1" y1="193.7" x2="320.3" y2="193.7"/>
	<line class="st9" x1="293.3" y1="205.4" x2="316.2" y2="205.4"/>
</g>
<polygon class="st5" points="322.7,163.1 327.1,161.2 325.1,170.6 324.3,169.7 "/>
<g>
	<line class="st33" x1="380.5" y1="79.1" x2="406" y2="73.9"/>
	<path class="st34" d="M433.8,72l-15.5,3.2v0c-2-1.8-2.6-4.7-1.5-7.2l0,0l15.5-3.2l-3.3,4.4L433.8,72z"/>
	<polygon class="st34" points="370.5,81.3 380.8,82.9 382,78.9 379.3,75.6 	"/>
	<line class="st33" x1="404.8" y1="74.2" x2="429.1" y2="69.2"/>
</g>
<g>
	<line class="st33" x1="389.5" y1="154" x2="412.4" y2="141.6"/>
	<path class="st34" d="M438.5,131.7l-13.9,7.6l0,0c-2.4-1.2-3.9-3.8-3.5-6.5l0,0l13.9-7.6l-1.9,5.2L438.5,131.7z"/>
	<polygon class="st34" points="380.5,159 390.9,157.5 390.8,153.3 387.3,151 	"/>
	<line class="st33" x1="411.3" y1="142.2" x2="433.2" y2="130.4"/>
</g>
<g>
	<line class="st33" x1="331.8" y1="219.2" x2="354.8" y2="207.2"/>
	<path class="st34" d="M381,197.6l-14,7.4v0c-2.4-1.2-3.8-3.8-3.4-6.5l0,0l14-7.4l-1.9,5.2L381,197.6z"/>
	<polygon class="st34" points="322.7,224.1 333,222.7 333.1,218.5 329.6,216.2 	"/>
	<line class="st33" x1="353.7" y1="207.7" x2="375.7" y2="196.3"/>
</g>
<path class="st35" d="M180.3,34.8c0,0,7.4,44.7,46.5,53.2c0,0-2,5.6-4,6.6s-30.3-1.5-30.3-1.5s-16.6-0.4-18.4-1.8
	c-1.9-1.4-3.7-1-2.7-19.1s2.3-37.9,2.3-37.9L180.3,34.8z"/>
<path class="st35" d="M214,101.6c0,0,22.8,3.2,22.8,28h-6.2l-3.8-11.3l-9.6-6.4C217.2,112,220.3,103.7,214,101.6z"/>
<polygon class="st35" points="246.3,139.7 286.9,141.2 287.5,173.2 250.3,173.9 240.8,150.1 "/>
<path class="st35" d="M199.1,110.6c0,0,4.5,9.8,8.9,7.8c0,0-17.4,8-27.7-1.5s-16-18.1-16-18.1s6.7-2.7,17.5-4.2
	S199.1,110.6,199.1,110.6z"/>
<path class="st35" d="M199.1,121.6c0,0,21.9,13,23.7,41.2l-6.2,14.9l6.2,12.6l-22.7-5L144,173.4c0,0-11.3-18.8-3-34.1l23.3-15.1
	l6.4-5.3l0.4-10.8C171.1,108.1,183.2,120.4,199.1,121.6z"/>
<path class="st35" d="M141,93.2c0,0-5.6,19.9,25.6,30.3h-25.9l-12.2-15.7C128.4,107.9,131.3,95,141,93.2z"/>
<path class="st35" d="M295.1,166.2c0,0-1.5,27.5,20.6,45.5l-22.4,63C293.3,274.7,287.5,175.2,295.1,166.2z"/>
<path class="st35" d="M235.5,220.4l-106-23.3c0,0,1.6,4-4.3,4.7s-5.9,0.7-5.9,0.7s-6.2,28.7-3.2,30.2s21.3,1.1,23.2,0.9
	c1.9-0.2,29.5-4.1,29.5-4.1l3.6-6.5l15.1-4.2l5.1,3.9l7.4,18.2c0,0,4,12.4,11.7,2.7c1.5-1.9,4.4-8,6.4-10
	C226.2,225.1,235.5,220.4,235.5,220.4z"/>
<path class="st35" d="M74.3,250.5l-19.3,9.6l11.5,34.3L79.9,312l6.5-5.3c0,0,1.9-0.6-1.7-8.7c-3.6-8.1,4.5-18.8,4.5-18.8l13.5-2
	l-4-13.1l-15.6-17.3C83.1,246.6,76.8,239.2,74.3,250.5z"/>
<path class="st35" d="M228.6,272.9c0,0-9.2,5.4,0.9,9.6l-1,25.4l56.7,2c0,0,3.2-9.7-3.1-11.3s-24.2-1-23.3-22.1
	S238.9,278.4,228.6,272.9z"/>
<path class="st35" d="M97.7,141.3c0,0,9.9,22.5,26.5,23.8l5,9l-6.6,6.9c0,0-1.1,7.8-3.5,8.1c-2.4,0.2-15.5,0-15.5,0
	s-10.4,0.2-10.5-1.5s-3.8-5.2-1.2-15S90.5,146.4,97.7,141.3z"/>
<circle class="st35" cx="83.7" cy="172.9" r="9.3"/>
</svg>
